G04 EAGLE Gerber X2 export*
%TF.Part,Single*%
%TF.FileFunction,Copper,L2,Bot,Mixed*%
%TF.FilePolarity,Positive*%
%TF.GenerationSoftware,Autodesk,EAGLE,9.2.2*%
%TF.CreationDate,2020-03-12T07:58:02Z*%
G75*
%MOMM*%
%FSLAX34Y34*%
%LPD*%
%INBottom Copper*%
%AMOC8*
5,1,8,0,0,1.08239X$1,22.5*%
G01*
%ADD10C,1.875000*%
%ADD11R,1.050000X0.550000*%
%ADD12R,1.450000X1.050000*%
%ADD13R,1.000000X0.950000*%
%ADD14R,1.200000X0.600000*%
%ADD15R,0.950000X1.000000*%
%ADD16R,0.600000X1.200000*%
%ADD17C,1.524000*%
%ADD18P,1.649562X8X202.500000*%
%ADD19C,0.300000*%
%ADD20C,1.500000*%
%ADD21C,0.400000*%
%ADD22C,0.800000*%

G36*
X495335Y452911D02*
X495335Y452911D01*
X495371Y452908D01*
X495507Y452931D01*
X495643Y452947D01*
X495677Y452959D01*
X495712Y452964D01*
X495839Y453017D01*
X495969Y453064D01*
X495998Y453084D01*
X496031Y453097D01*
X496143Y453178D01*
X496258Y453253D01*
X496283Y453279D01*
X496311Y453299D01*
X496402Y453404D01*
X496497Y453503D01*
X496515Y453534D01*
X496538Y453560D01*
X496602Y453683D01*
X496672Y453801D01*
X496682Y453835D01*
X496699Y453867D01*
X496733Y454000D01*
X496774Y454132D01*
X496776Y454167D01*
X496785Y454201D01*
X496799Y454406D01*
X496799Y673100D01*
X496795Y673135D01*
X496798Y673171D01*
X496775Y673307D01*
X496759Y673443D01*
X496747Y673477D01*
X496742Y673512D01*
X496689Y673639D01*
X496642Y673769D01*
X496623Y673798D01*
X496609Y673831D01*
X496528Y673943D01*
X496453Y674058D01*
X496427Y674083D01*
X496407Y674111D01*
X496303Y674202D01*
X496203Y674297D01*
X496172Y674315D01*
X496146Y674338D01*
X496023Y674402D01*
X495905Y674472D01*
X495871Y674482D01*
X495839Y674499D01*
X495706Y674533D01*
X495574Y674574D01*
X495539Y674576D01*
X495505Y674585D01*
X495300Y674599D01*
X182880Y674599D01*
X182845Y674595D01*
X182809Y674598D01*
X182673Y674575D01*
X182537Y674559D01*
X182503Y674547D01*
X182468Y674542D01*
X182341Y674489D01*
X182211Y674442D01*
X182182Y674423D01*
X182149Y674409D01*
X182037Y674328D01*
X181922Y674253D01*
X181897Y674227D01*
X181869Y674207D01*
X181778Y674103D01*
X181683Y674003D01*
X181665Y673972D01*
X181642Y673946D01*
X181578Y673823D01*
X181508Y673705D01*
X181498Y673671D01*
X181481Y673639D01*
X181447Y673506D01*
X181406Y673374D01*
X181404Y673339D01*
X181395Y673305D01*
X181381Y673100D01*
X181381Y454406D01*
X181385Y454371D01*
X181382Y454335D01*
X181405Y454199D01*
X181421Y454063D01*
X181433Y454029D01*
X181438Y453994D01*
X181491Y453867D01*
X181538Y453737D01*
X181558Y453708D01*
X181571Y453675D01*
X181652Y453563D01*
X181727Y453448D01*
X181753Y453423D01*
X181773Y453395D01*
X181878Y453304D01*
X181977Y453209D01*
X182008Y453191D01*
X182034Y453168D01*
X182157Y453104D01*
X182275Y453034D01*
X182309Y453024D01*
X182341Y453007D01*
X182474Y452973D01*
X182606Y452932D01*
X182641Y452930D01*
X182675Y452921D01*
X182880Y452907D01*
X495300Y452907D01*
X495335Y452911D01*
G37*
%LPC*%
G36*
X330183Y461129D02*
X330183Y461129D01*
X326866Y462503D01*
X324327Y465042D01*
X323846Y466204D01*
X323803Y466280D01*
X323770Y466361D01*
X323720Y466431D01*
X323678Y466506D01*
X323619Y466571D01*
X323568Y466641D01*
X323503Y466698D01*
X323445Y466761D01*
X323372Y466811D01*
X323306Y466868D01*
X323230Y466908D01*
X323159Y466957D01*
X323078Y466988D01*
X323000Y467029D01*
X322917Y467050D01*
X322837Y467081D01*
X322750Y467093D01*
X322666Y467115D01*
X322522Y467125D01*
X322495Y467129D01*
X322483Y467128D01*
X322461Y467129D01*
X315818Y467129D01*
X315680Y467113D01*
X315540Y467103D01*
X315508Y467093D01*
X315474Y467089D01*
X315344Y467042D01*
X315210Y467001D01*
X315181Y466983D01*
X315149Y466972D01*
X315032Y466896D01*
X314912Y466825D01*
X314878Y466795D01*
X314860Y466783D01*
X314836Y466759D01*
X314758Y466690D01*
X309863Y461795D01*
X199407Y461795D01*
X187475Y473727D01*
X187475Y515603D01*
X197196Y525324D01*
X197264Y525409D01*
X197319Y525467D01*
X197333Y525491D01*
X197374Y525538D01*
X197390Y525568D01*
X197411Y525595D01*
X197470Y525721D01*
X197487Y525754D01*
X197494Y525765D01*
X197495Y525769D01*
X197535Y525844D01*
X197543Y525877D01*
X197558Y525908D01*
X197586Y526044D01*
X197621Y526179D01*
X197624Y526224D01*
X197629Y526246D01*
X197628Y526280D01*
X197635Y526384D01*
X197635Y595613D01*
X202506Y600484D01*
X202593Y600593D01*
X202684Y600698D01*
X202700Y600728D01*
X202721Y600755D01*
X202780Y600881D01*
X202845Y601004D01*
X202853Y601037D01*
X202868Y601068D01*
X202896Y601204D01*
X202931Y601339D01*
X202934Y601384D01*
X202939Y601406D01*
X202938Y601440D01*
X202945Y601544D01*
X202945Y602529D01*
X204337Y605890D01*
X206910Y608463D01*
X210271Y609855D01*
X229149Y609855D01*
X232510Y608463D01*
X235083Y605890D01*
X236475Y602529D01*
X236475Y598891D01*
X235083Y595530D01*
X232510Y592957D01*
X229149Y591565D01*
X210271Y591565D01*
X206910Y592957D01*
X206283Y593585D01*
X206255Y593607D01*
X206232Y593633D01*
X206120Y593714D01*
X206012Y593799D01*
X205980Y593814D01*
X205951Y593835D01*
X205823Y593888D01*
X205699Y593946D01*
X205664Y593954D01*
X205631Y593967D01*
X205495Y593989D01*
X205360Y594018D01*
X205325Y594017D01*
X205290Y594022D01*
X205152Y594013D01*
X205015Y594009D01*
X204980Y594000D01*
X204945Y593998D01*
X204813Y593957D01*
X204680Y593922D01*
X204649Y593906D01*
X204615Y593895D01*
X204496Y593825D01*
X204374Y593761D01*
X204348Y593738D01*
X204317Y593720D01*
X204162Y593585D01*
X204124Y593546D01*
X204115Y593534D01*
X204114Y593534D01*
X204111Y593530D01*
X204037Y593437D01*
X203946Y593332D01*
X203930Y593302D01*
X203909Y593275D01*
X203850Y593149D01*
X203785Y593026D01*
X203777Y592993D01*
X203762Y592962D01*
X203734Y592826D01*
X203699Y592691D01*
X203696Y592646D01*
X203691Y592624D01*
X203692Y592590D01*
X203685Y592486D01*
X203685Y583457D01*
X203697Y583353D01*
X203699Y583249D01*
X203717Y583182D01*
X203725Y583113D01*
X203760Y583015D01*
X203786Y582914D01*
X203819Y582853D01*
X203842Y582788D01*
X203899Y582701D01*
X203948Y582609D01*
X203993Y582556D01*
X204031Y582499D01*
X204106Y582427D01*
X204175Y582348D01*
X204231Y582308D01*
X204281Y582260D01*
X204371Y582207D01*
X204456Y582146D01*
X204520Y582120D01*
X204579Y582085D01*
X204679Y582054D01*
X204775Y582014D01*
X204844Y582003D01*
X204910Y581983D01*
X205014Y581976D01*
X205117Y581959D01*
X205186Y581964D01*
X205255Y581959D01*
X205357Y581976D01*
X205462Y581983D01*
X205528Y582004D01*
X205596Y582015D01*
X205692Y582055D01*
X205792Y582086D01*
X205851Y582121D01*
X205915Y582148D01*
X206000Y582209D01*
X206089Y582262D01*
X206168Y582330D01*
X206195Y582350D01*
X206210Y582367D01*
X206244Y582397D01*
X206910Y583063D01*
X210271Y584455D01*
X229149Y584455D01*
X232510Y583063D01*
X235083Y580490D01*
X235592Y579260D01*
X235635Y579184D01*
X235668Y579103D01*
X235718Y579033D01*
X235760Y578958D01*
X235819Y578893D01*
X235870Y578823D01*
X235935Y578766D01*
X235993Y578703D01*
X236065Y578653D01*
X236132Y578596D01*
X236208Y578556D01*
X236278Y578507D01*
X236360Y578476D01*
X236438Y578435D01*
X236521Y578414D01*
X236601Y578383D01*
X236688Y578371D01*
X236772Y578349D01*
X236916Y578339D01*
X236943Y578335D01*
X236955Y578336D01*
X236977Y578335D01*
X265842Y578335D01*
X265980Y578351D01*
X266120Y578361D01*
X266152Y578371D01*
X266186Y578375D01*
X266316Y578422D01*
X266450Y578463D01*
X266479Y578481D01*
X266511Y578492D01*
X266628Y578568D01*
X266748Y578639D01*
X266782Y578669D01*
X266800Y578681D01*
X266824Y578705D01*
X266902Y578774D01*
X269003Y580875D01*
X288394Y580875D01*
X288429Y580879D01*
X288465Y580876D01*
X288601Y580899D01*
X288737Y580915D01*
X288771Y580927D01*
X288806Y580932D01*
X288933Y580985D01*
X289063Y581032D01*
X289092Y581051D01*
X289125Y581065D01*
X289237Y581146D01*
X289352Y581221D01*
X289377Y581247D01*
X289405Y581267D01*
X289496Y581371D01*
X289591Y581471D01*
X289609Y581502D01*
X289632Y581528D01*
X289696Y581651D01*
X289766Y581769D01*
X289776Y581803D01*
X289793Y581835D01*
X289827Y581968D01*
X289868Y582100D01*
X289870Y582135D01*
X289879Y582169D01*
X289893Y582374D01*
X289893Y592758D01*
X290786Y593651D01*
X302050Y593651D01*
X302943Y592758D01*
X302943Y582374D01*
X302947Y582339D01*
X302944Y582303D01*
X302967Y582167D01*
X302983Y582031D01*
X302995Y581997D01*
X303000Y581962D01*
X303053Y581835D01*
X303100Y581705D01*
X303119Y581676D01*
X303133Y581643D01*
X303214Y581531D01*
X303289Y581416D01*
X303315Y581391D01*
X303335Y581363D01*
X303440Y581272D01*
X303539Y581177D01*
X303570Y581159D01*
X303596Y581136D01*
X303719Y581072D01*
X303837Y581002D01*
X303871Y580992D01*
X303903Y580975D01*
X304036Y580941D01*
X304168Y580900D01*
X304203Y580898D01*
X304237Y580889D01*
X304442Y580875D01*
X312070Y580875D01*
X312208Y580891D01*
X312348Y580901D01*
X312380Y580911D01*
X312414Y580915D01*
X312544Y580962D01*
X312678Y581003D01*
X312707Y581021D01*
X312739Y581032D01*
X312856Y581108D01*
X312976Y581179D01*
X313010Y581209D01*
X313028Y581221D01*
X313052Y581245D01*
X313130Y581314D01*
X322546Y590730D01*
X322611Y590812D01*
X322683Y590887D01*
X322718Y590947D01*
X322761Y591001D01*
X322805Y591095D01*
X322858Y591185D01*
X322878Y591251D01*
X322908Y591314D01*
X322929Y591416D01*
X322960Y591516D01*
X322965Y591585D01*
X322979Y591652D01*
X322977Y591756D01*
X322984Y591861D01*
X322973Y591929D01*
X322971Y591998D01*
X322945Y592099D01*
X322928Y592202D01*
X322901Y592266D01*
X322884Y592332D01*
X322835Y592425D01*
X322795Y592521D01*
X322755Y592577D01*
X322722Y592638D01*
X322654Y592717D01*
X322593Y592801D01*
X322541Y592847D01*
X322495Y592899D01*
X322411Y592960D01*
X322332Y593028D01*
X322271Y593060D01*
X322214Y593101D01*
X322118Y593140D01*
X322026Y593189D01*
X321959Y593206D01*
X321895Y593233D01*
X321792Y593249D01*
X321691Y593275D01*
X321587Y593282D01*
X321554Y593288D01*
X321531Y593286D01*
X321486Y593289D01*
X311576Y593289D01*
X310262Y594604D01*
X310152Y594691D01*
X310047Y594782D01*
X310017Y594798D01*
X309991Y594819D01*
X309865Y594878D01*
X309741Y594943D01*
X309708Y594951D01*
X309678Y594966D01*
X309541Y594994D01*
X309406Y595029D01*
X309361Y595032D01*
X309339Y595037D01*
X309306Y595036D01*
X309201Y595043D01*
X308093Y595043D01*
X305102Y598034D01*
X305075Y598056D01*
X305051Y598083D01*
X304939Y598163D01*
X304831Y598249D01*
X304799Y598264D01*
X304771Y598284D01*
X304643Y598337D01*
X304518Y598395D01*
X304484Y598403D01*
X304451Y598416D01*
X304315Y598438D01*
X304180Y598467D01*
X304145Y598466D01*
X304110Y598472D01*
X303972Y598462D01*
X303834Y598459D01*
X303800Y598450D01*
X303765Y598447D01*
X303633Y598406D01*
X303500Y598371D01*
X303469Y598355D01*
X303435Y598344D01*
X303316Y598274D01*
X303194Y598210D01*
X303167Y598187D01*
X303137Y598169D01*
X302982Y598034D01*
X302050Y597101D01*
X290786Y597101D01*
X289893Y597994D01*
X289893Y608758D01*
X290786Y609651D01*
X302050Y609651D01*
X302943Y608758D01*
X302943Y607900D01*
X302947Y607865D01*
X302944Y607829D01*
X302967Y607693D01*
X302983Y607557D01*
X302995Y607523D01*
X303000Y607488D01*
X303053Y607361D01*
X303100Y607231D01*
X303119Y607202D01*
X303133Y607169D01*
X303214Y607057D01*
X303289Y606942D01*
X303315Y606917D01*
X303335Y606889D01*
X303439Y606798D01*
X303539Y606703D01*
X303570Y606685D01*
X303596Y606662D01*
X303719Y606598D01*
X303837Y606528D01*
X303871Y606518D01*
X303903Y606501D01*
X304036Y606467D01*
X304168Y606426D01*
X304203Y606424D01*
X304237Y606415D01*
X304442Y606401D01*
X305291Y606401D01*
X307502Y604190D01*
X309405Y602287D01*
X309432Y602265D01*
X309456Y602238D01*
X309568Y602158D01*
X309676Y602072D01*
X309708Y602057D01*
X309736Y602037D01*
X309864Y601984D01*
X309989Y601926D01*
X310023Y601918D01*
X310056Y601905D01*
X310192Y601883D01*
X310327Y601854D01*
X310362Y601855D01*
X310397Y601849D01*
X310535Y601859D01*
X310673Y601862D01*
X310707Y601871D01*
X310742Y601874D01*
X310874Y601915D01*
X311007Y601950D01*
X311038Y601966D01*
X311072Y601977D01*
X311191Y602047D01*
X311313Y602111D01*
X311340Y602134D01*
X311370Y602152D01*
X311525Y602287D01*
X311576Y602339D01*
X324840Y602339D01*
X325886Y601292D01*
X325968Y601228D01*
X326043Y601156D01*
X326103Y601121D01*
X326157Y601078D01*
X326251Y601033D01*
X326341Y600981D01*
X326407Y600960D01*
X326470Y600931D01*
X326572Y600909D01*
X326672Y600879D01*
X326741Y600874D01*
X326808Y600860D01*
X326912Y600862D01*
X327017Y600855D01*
X327085Y600866D01*
X327154Y600868D01*
X327255Y600894D01*
X327358Y600911D01*
X327422Y600937D01*
X327488Y600955D01*
X327581Y601004D01*
X327677Y601044D01*
X327733Y601084D01*
X327794Y601116D01*
X327873Y601185D01*
X327957Y601246D01*
X328003Y601298D01*
X328055Y601343D01*
X328116Y601428D01*
X328184Y601507D01*
X328216Y601568D01*
X328257Y601624D01*
X328296Y601720D01*
X328345Y601813D01*
X328362Y601880D01*
X328388Y601944D01*
X328405Y602047D01*
X328431Y602148D01*
X328438Y602252D01*
X328444Y602285D01*
X328442Y602308D01*
X328445Y602353D01*
X328445Y612275D01*
X328433Y612379D01*
X328431Y612483D01*
X328413Y612550D01*
X328405Y612619D01*
X328370Y612717D01*
X328344Y612818D01*
X328311Y612879D01*
X328288Y612944D01*
X328231Y613031D01*
X328182Y613124D01*
X328137Y613176D01*
X328099Y613234D01*
X328024Y613306D01*
X327955Y613384D01*
X327899Y613425D01*
X327849Y613472D01*
X327759Y613525D01*
X327674Y613586D01*
X327610Y613612D01*
X327551Y613647D01*
X327451Y613678D01*
X327355Y613718D01*
X327286Y613729D01*
X327220Y613749D01*
X327116Y613757D01*
X327013Y613773D01*
X326944Y613768D01*
X326875Y613773D01*
X326773Y613756D01*
X326668Y613749D01*
X326602Y613728D01*
X326534Y613717D01*
X326438Y613677D01*
X326338Y613646D01*
X326279Y613611D01*
X326215Y613584D01*
X326131Y613523D01*
X326041Y613470D01*
X325962Y613402D01*
X325935Y613382D01*
X325920Y613365D01*
X325886Y613336D01*
X324840Y612289D01*
X311576Y612289D01*
X310516Y613350D01*
X310406Y613437D01*
X310301Y613528D01*
X310271Y613544D01*
X310245Y613565D01*
X310119Y613624D01*
X309995Y613689D01*
X309962Y613697D01*
X309932Y613712D01*
X309795Y613740D01*
X309660Y613775D01*
X309615Y613778D01*
X309593Y613783D01*
X309560Y613782D01*
X309455Y613789D01*
X272203Y613789D01*
X263346Y622646D01*
X263237Y622733D01*
X263132Y622824D01*
X263102Y622840D01*
X263075Y622861D01*
X262949Y622920D01*
X262826Y622985D01*
X262793Y622993D01*
X262762Y623008D01*
X262626Y623036D01*
X262491Y623071D01*
X262446Y623074D01*
X262424Y623079D01*
X262390Y623078D01*
X262286Y623085D01*
X253059Y623085D01*
X252921Y623069D01*
X252782Y623059D01*
X252750Y623049D01*
X252716Y623045D01*
X252585Y622998D01*
X252452Y622957D01*
X252423Y622939D01*
X252391Y622928D01*
X252274Y622852D01*
X252154Y622781D01*
X252120Y622751D01*
X252101Y622739D01*
X252078Y622715D01*
X251999Y622646D01*
X250780Y621426D01*
X248749Y620585D01*
X235359Y620585D01*
X235221Y620569D01*
X235081Y620559D01*
X235049Y620549D01*
X235015Y620545D01*
X234884Y620498D01*
X234751Y620457D01*
X234722Y620439D01*
X234690Y620428D01*
X234573Y620352D01*
X234453Y620281D01*
X234419Y620251D01*
X234401Y620239D01*
X234377Y620215D01*
X234299Y620146D01*
X232510Y618357D01*
X229149Y616965D01*
X210271Y616965D01*
X206910Y618357D01*
X205121Y620146D01*
X205012Y620233D01*
X204907Y620324D01*
X204877Y620340D01*
X204850Y620361D01*
X204724Y620420D01*
X204601Y620485D01*
X204568Y620493D01*
X204537Y620508D01*
X204401Y620536D01*
X204266Y620571D01*
X204221Y620574D01*
X204199Y620579D01*
X204165Y620578D01*
X204061Y620585D01*
X201085Y620585D01*
X199054Y621426D01*
X194198Y626282D01*
X193357Y628313D01*
X193357Y659467D01*
X194198Y661498D01*
X202356Y669656D01*
X204387Y670497D01*
X436455Y670497D01*
X438486Y669656D01*
X446898Y661244D01*
X447739Y659213D01*
X447739Y655729D01*
X447755Y655591D01*
X447765Y655451D01*
X447775Y655419D01*
X447779Y655385D01*
X447826Y655255D01*
X447867Y655121D01*
X447885Y655092D01*
X447896Y655060D01*
X447972Y654943D01*
X448043Y654823D01*
X448073Y654789D01*
X448085Y654771D01*
X448109Y654747D01*
X448178Y654669D01*
X451359Y651488D01*
X451359Y643912D01*
X446002Y638555D01*
X438426Y638555D01*
X433069Y643912D01*
X433069Y651488D01*
X435988Y654407D01*
X436010Y654434D01*
X436037Y654458D01*
X436117Y654570D01*
X436203Y654678D01*
X436218Y654710D01*
X436238Y654739D01*
X436291Y654866D01*
X436350Y654991D01*
X436357Y655025D01*
X436370Y655058D01*
X436392Y655194D01*
X436421Y655329D01*
X436420Y655364D01*
X436426Y655399D01*
X436416Y655537D01*
X436413Y655675D01*
X436404Y655709D01*
X436401Y655744D01*
X436360Y655876D01*
X436326Y656009D01*
X436309Y656041D01*
X436298Y656074D01*
X436229Y656193D01*
X436164Y656315D01*
X436141Y656342D01*
X436123Y656372D01*
X435988Y656527D01*
X433507Y659008D01*
X433398Y659095D01*
X433292Y659186D01*
X433262Y659202D01*
X433236Y659223D01*
X433110Y659282D01*
X432986Y659347D01*
X432953Y659355D01*
X432923Y659370D01*
X432786Y659398D01*
X432651Y659433D01*
X432606Y659436D01*
X432584Y659441D01*
X432551Y659440D01*
X432447Y659447D01*
X421619Y659447D01*
X421515Y659435D01*
X421411Y659433D01*
X421344Y659415D01*
X421275Y659407D01*
X421177Y659372D01*
X421076Y659346D01*
X421015Y659313D01*
X420950Y659290D01*
X420863Y659233D01*
X420771Y659184D01*
X420719Y659139D01*
X420661Y659101D01*
X420589Y659026D01*
X420510Y658957D01*
X420470Y658901D01*
X420422Y658851D01*
X420369Y658761D01*
X420308Y658676D01*
X420282Y658612D01*
X420247Y658553D01*
X420216Y658453D01*
X420176Y658357D01*
X420165Y658288D01*
X420145Y658222D01*
X420138Y658118D01*
X420121Y658015D01*
X420126Y657946D01*
X420121Y657877D01*
X420138Y657775D01*
X420145Y657670D01*
X420166Y657604D01*
X420177Y657536D01*
X420217Y657440D01*
X420248Y657340D01*
X420283Y657281D01*
X420310Y657217D01*
X420371Y657132D01*
X420424Y657043D01*
X420492Y656964D01*
X420512Y656937D01*
X420529Y656922D01*
X420559Y656888D01*
X425959Y651488D01*
X425959Y643912D01*
X420602Y638555D01*
X413026Y638555D01*
X407669Y643912D01*
X407669Y651815D01*
X407680Y651881D01*
X407709Y652016D01*
X407708Y652052D01*
X407713Y652087D01*
X407704Y652224D01*
X407700Y652362D01*
X407692Y652396D01*
X407689Y652432D01*
X407648Y652563D01*
X407613Y652696D01*
X407597Y652728D01*
X407586Y652762D01*
X407516Y652880D01*
X407452Y653002D01*
X407429Y653029D01*
X407411Y653060D01*
X407276Y653215D01*
X406602Y653888D01*
X406493Y653975D01*
X406388Y654066D01*
X406358Y654082D01*
X406331Y654103D01*
X406205Y654162D01*
X406082Y654227D01*
X406049Y654235D01*
X406018Y654250D01*
X405882Y654278D01*
X405747Y654313D01*
X405702Y654316D01*
X405680Y654321D01*
X405646Y654320D01*
X405542Y654327D01*
X393211Y654327D01*
X393107Y654315D01*
X393003Y654313D01*
X392936Y654295D01*
X392867Y654287D01*
X392769Y654252D01*
X392668Y654226D01*
X392607Y654193D01*
X392542Y654170D01*
X392455Y654113D01*
X392362Y654064D01*
X392310Y654019D01*
X392253Y653981D01*
X392181Y653906D01*
X392102Y653837D01*
X392062Y653781D01*
X392014Y653731D01*
X391961Y653641D01*
X391900Y653556D01*
X391874Y653492D01*
X391839Y653433D01*
X391808Y653333D01*
X391768Y653236D01*
X391757Y653168D01*
X391737Y653102D01*
X391730Y652998D01*
X391713Y652895D01*
X391718Y652826D01*
X391713Y652757D01*
X391730Y652655D01*
X391738Y652550D01*
X391758Y652484D01*
X391769Y652416D01*
X391809Y652320D01*
X391840Y652220D01*
X391875Y652161D01*
X391902Y652097D01*
X391963Y652012D01*
X392016Y651922D01*
X392043Y651891D01*
X393447Y648503D01*
X393447Y629625D01*
X392055Y626264D01*
X389482Y623691D01*
X388252Y623182D01*
X388176Y623139D01*
X388095Y623106D01*
X388025Y623056D01*
X387950Y623014D01*
X387885Y622955D01*
X387815Y622904D01*
X387758Y622839D01*
X387695Y622781D01*
X387645Y622709D01*
X387588Y622642D01*
X387548Y622566D01*
X387499Y622496D01*
X387468Y622414D01*
X387427Y622336D01*
X387406Y622253D01*
X387375Y622173D01*
X387363Y622086D01*
X387341Y622002D01*
X387331Y621858D01*
X387327Y621831D01*
X387328Y621819D01*
X387327Y621797D01*
X387327Y620618D01*
X387343Y620480D01*
X387353Y620340D01*
X387363Y620308D01*
X387367Y620274D01*
X387414Y620144D01*
X387455Y620010D01*
X387473Y619981D01*
X387484Y619949D01*
X387560Y619832D01*
X387631Y619712D01*
X387661Y619678D01*
X387673Y619660D01*
X387697Y619636D01*
X387766Y619558D01*
X400535Y606789D01*
X400535Y588004D01*
X400539Y587969D01*
X400536Y587933D01*
X400559Y587797D01*
X400575Y587661D01*
X400587Y587627D01*
X400592Y587592D01*
X400645Y587465D01*
X400692Y587335D01*
X400711Y587306D01*
X400725Y587273D01*
X400806Y587161D01*
X400881Y587046D01*
X400907Y587021D01*
X400927Y586993D01*
X401031Y586902D01*
X401131Y586807D01*
X401162Y586789D01*
X401188Y586766D01*
X401311Y586702D01*
X401429Y586632D01*
X401463Y586622D01*
X401495Y586605D01*
X401628Y586571D01*
X401760Y586530D01*
X401795Y586528D01*
X401829Y586519D01*
X402034Y586505D01*
X405392Y586505D01*
X406285Y585612D01*
X406285Y574500D01*
X406289Y574465D01*
X406286Y574429D01*
X406309Y574293D01*
X406325Y574157D01*
X406337Y574123D01*
X406342Y574088D01*
X406395Y573961D01*
X406442Y573831D01*
X406461Y573802D01*
X406475Y573769D01*
X406556Y573657D01*
X406631Y573542D01*
X406657Y573517D01*
X406677Y573489D01*
X406781Y573398D01*
X406881Y573303D01*
X406912Y573285D01*
X406938Y573262D01*
X407061Y573198D01*
X407179Y573128D01*
X407213Y573118D01*
X407245Y573101D01*
X407378Y573067D01*
X407510Y573026D01*
X407545Y573024D01*
X407579Y573015D01*
X407784Y573001D01*
X450071Y573001D01*
X451843Y571229D01*
X451843Y556475D01*
X451855Y556371D01*
X451857Y556267D01*
X451875Y556200D01*
X451883Y556131D01*
X451918Y556033D01*
X451944Y555932D01*
X451977Y555871D01*
X452000Y555806D01*
X452057Y555719D01*
X452106Y555627D01*
X452151Y555574D01*
X452189Y555517D01*
X452264Y555445D01*
X452333Y555366D01*
X452389Y555326D01*
X452439Y555278D01*
X452529Y555225D01*
X452614Y555164D01*
X452678Y555138D01*
X452737Y555103D01*
X452837Y555072D01*
X452933Y555032D01*
X453002Y555021D01*
X453068Y555001D01*
X453172Y554994D01*
X453275Y554977D01*
X453344Y554982D01*
X453413Y554977D01*
X453515Y554994D01*
X453620Y555001D01*
X453686Y555022D01*
X453754Y555033D01*
X453850Y555073D01*
X453950Y555104D01*
X454009Y555139D01*
X454073Y555166D01*
X454158Y555227D01*
X454247Y555280D01*
X454326Y555348D01*
X454353Y555368D01*
X454368Y555385D01*
X454402Y555415D01*
X455554Y556567D01*
X455641Y556676D01*
X455732Y556781D01*
X455748Y556811D01*
X455769Y556838D01*
X455828Y556964D01*
X455893Y557087D01*
X455901Y557120D01*
X455916Y557151D01*
X455944Y557287D01*
X455979Y557422D01*
X455982Y557467D01*
X455987Y557489D01*
X455986Y557523D01*
X455993Y557627D01*
X455993Y581743D01*
X456834Y583774D01*
X461650Y588589D01*
X461737Y588698D01*
X461828Y588804D01*
X461844Y588834D01*
X461865Y588860D01*
X461924Y588986D01*
X461989Y589110D01*
X461997Y589143D01*
X462012Y589173D01*
X462040Y589310D01*
X462075Y589445D01*
X462078Y589490D01*
X462083Y589512D01*
X462082Y589545D01*
X462089Y589649D01*
X462089Y602627D01*
X462073Y602765D01*
X462063Y602904D01*
X462053Y602936D01*
X462049Y602970D01*
X462002Y603101D01*
X461961Y603234D01*
X461943Y603263D01*
X461932Y603295D01*
X461856Y603412D01*
X461785Y603532D01*
X461755Y603566D01*
X461743Y603585D01*
X461719Y603608D01*
X461650Y603687D01*
X450152Y615185D01*
X450124Y615207D01*
X450101Y615234D01*
X449989Y615314D01*
X449881Y615400D01*
X449849Y615415D01*
X449820Y615435D01*
X449693Y615488D01*
X449568Y615547D01*
X449533Y615554D01*
X449500Y615567D01*
X449364Y615589D01*
X449230Y615618D01*
X449194Y615617D01*
X449159Y615623D01*
X449022Y615613D01*
X448884Y615610D01*
X448850Y615601D01*
X448814Y615598D01*
X448683Y615557D01*
X448549Y615523D01*
X448518Y615506D01*
X448484Y615495D01*
X448365Y615425D01*
X448244Y615361D01*
X448217Y615338D01*
X448186Y615320D01*
X448032Y615185D01*
X446002Y613155D01*
X438426Y613155D01*
X435245Y616336D01*
X435136Y616423D01*
X435031Y616514D01*
X435001Y616530D01*
X434974Y616551D01*
X434848Y616610D01*
X434725Y616675D01*
X434692Y616683D01*
X434661Y616698D01*
X434525Y616726D01*
X434390Y616761D01*
X434345Y616764D01*
X434323Y616769D01*
X434289Y616768D01*
X434185Y616775D01*
X424843Y616775D01*
X424705Y616759D01*
X424565Y616749D01*
X424533Y616739D01*
X424499Y616735D01*
X424369Y616688D01*
X424235Y616647D01*
X424206Y616629D01*
X424174Y616618D01*
X424057Y616542D01*
X423937Y616471D01*
X423903Y616441D01*
X423885Y616429D01*
X423861Y616405D01*
X423783Y616336D01*
X420602Y613155D01*
X413026Y613155D01*
X407669Y618512D01*
X407669Y626088D01*
X413026Y631445D01*
X420602Y631445D01*
X423783Y628264D01*
X423892Y628177D01*
X423997Y628086D01*
X424027Y628070D01*
X424054Y628049D01*
X424180Y627990D01*
X424303Y627925D01*
X424336Y627917D01*
X424367Y627902D01*
X424503Y627874D01*
X424638Y627839D01*
X424683Y627836D01*
X424705Y627831D01*
X424739Y627832D01*
X424843Y627825D01*
X434185Y627825D01*
X434323Y627841D01*
X434463Y627851D01*
X434495Y627861D01*
X434529Y627865D01*
X434660Y627912D01*
X434793Y627953D01*
X434822Y627971D01*
X434854Y627982D01*
X434971Y628058D01*
X435091Y628129D01*
X435125Y628159D01*
X435143Y628171D01*
X435167Y628195D01*
X435245Y628264D01*
X438426Y631445D01*
X446002Y631445D01*
X449183Y628264D01*
X449292Y628177D01*
X449397Y628086D01*
X449427Y628070D01*
X449454Y628049D01*
X449580Y627990D01*
X449703Y627925D01*
X449736Y627917D01*
X449767Y627902D01*
X449903Y627874D01*
X450038Y627839D01*
X450083Y627836D01*
X450105Y627831D01*
X450139Y627832D01*
X450243Y627825D01*
X459585Y627825D01*
X459723Y627841D01*
X459863Y627851D01*
X459895Y627861D01*
X459929Y627865D01*
X460060Y627912D01*
X460193Y627953D01*
X460222Y627971D01*
X460254Y627982D01*
X460371Y628058D01*
X460491Y628129D01*
X460525Y628159D01*
X460543Y628171D01*
X460567Y628195D01*
X460645Y628264D01*
X463826Y631445D01*
X471402Y631445D01*
X476759Y626088D01*
X476759Y618512D01*
X473578Y615331D01*
X473491Y615222D01*
X473400Y615117D01*
X473384Y615087D01*
X473363Y615060D01*
X473304Y614934D01*
X473239Y614811D01*
X473231Y614778D01*
X473216Y614747D01*
X473188Y614611D01*
X473153Y614476D01*
X473150Y614431D01*
X473145Y614409D01*
X473146Y614375D01*
X473139Y614271D01*
X473139Y585641D01*
X472298Y583610D01*
X467482Y578795D01*
X467395Y578686D01*
X467304Y578580D01*
X467288Y578550D01*
X467267Y578524D01*
X467208Y578398D01*
X467143Y578274D01*
X467135Y578241D01*
X467120Y578211D01*
X467092Y578074D01*
X467057Y577939D01*
X467054Y577894D01*
X467049Y577872D01*
X467050Y577839D01*
X467043Y577735D01*
X467043Y557627D01*
X467059Y557489D01*
X467069Y557349D01*
X467079Y557317D01*
X467083Y557283D01*
X467130Y557152D01*
X467171Y557019D01*
X467189Y556990D01*
X467200Y556958D01*
X467276Y556841D01*
X467347Y556721D01*
X467377Y556687D01*
X467389Y556669D01*
X467413Y556645D01*
X467482Y556567D01*
X470758Y553290D01*
X472418Y549284D01*
X472418Y544948D01*
X470758Y540942D01*
X467692Y537876D01*
X463686Y536216D01*
X459350Y536216D01*
X455344Y537876D01*
X454402Y538817D01*
X454320Y538882D01*
X454245Y538954D01*
X454185Y538989D01*
X454131Y539032D01*
X454037Y539076D01*
X453947Y539129D01*
X453881Y539149D01*
X453818Y539179D01*
X453716Y539200D01*
X453616Y539231D01*
X453547Y539236D01*
X453480Y539250D01*
X453376Y539248D01*
X453271Y539255D01*
X453203Y539244D01*
X453134Y539242D01*
X453033Y539216D01*
X452930Y539199D01*
X452867Y539172D01*
X452800Y539155D01*
X452707Y539106D01*
X452611Y539066D01*
X452555Y539026D01*
X452494Y538993D01*
X452415Y538925D01*
X452331Y538864D01*
X452285Y538812D01*
X452233Y538766D01*
X452172Y538682D01*
X452104Y538603D01*
X452072Y538541D01*
X452031Y538485D01*
X451992Y538389D01*
X451943Y538297D01*
X451926Y538230D01*
X451900Y538166D01*
X451883Y538063D01*
X451857Y537962D01*
X451850Y537858D01*
X451844Y537825D01*
X451846Y537802D01*
X451843Y537757D01*
X451843Y511065D01*
X449124Y508346D01*
X438614Y497836D01*
X438549Y497754D01*
X438477Y497679D01*
X438442Y497619D01*
X438399Y497565D01*
X438355Y497471D01*
X438302Y497381D01*
X438282Y497315D01*
X438252Y497252D01*
X438231Y497150D01*
X438200Y497050D01*
X438195Y496981D01*
X438181Y496914D01*
X438183Y496810D01*
X438176Y496705D01*
X438187Y496637D01*
X438189Y496568D01*
X438215Y496467D01*
X438232Y496364D01*
X438259Y496300D01*
X438276Y496234D01*
X438325Y496141D01*
X438365Y496045D01*
X438405Y495989D01*
X438438Y495928D01*
X438506Y495849D01*
X438567Y495765D01*
X438619Y495719D01*
X438665Y495667D01*
X438749Y495606D01*
X438828Y495538D01*
X438889Y495506D01*
X438946Y495465D01*
X439042Y495426D01*
X439134Y495377D01*
X439201Y495360D01*
X439265Y495333D01*
X439368Y495317D01*
X439469Y495291D01*
X439573Y495284D01*
X439606Y495278D01*
X439629Y495280D01*
X439674Y495277D01*
X468026Y495277D01*
X468164Y495293D01*
X468304Y495303D01*
X468336Y495313D01*
X468370Y495317D01*
X468500Y495364D01*
X468634Y495405D01*
X468663Y495423D01*
X468695Y495434D01*
X468812Y495510D01*
X468932Y495581D01*
X468966Y495611D01*
X468984Y495623D01*
X469008Y495647D01*
X469086Y495716D01*
X481930Y508560D01*
X482017Y508669D01*
X482108Y508774D01*
X482124Y508804D01*
X482145Y508831D01*
X482204Y508957D01*
X482269Y509080D01*
X482277Y509113D01*
X482292Y509144D01*
X482320Y509280D01*
X482355Y509415D01*
X482358Y509460D01*
X482363Y509482D01*
X482362Y509516D01*
X482369Y509620D01*
X482369Y575743D01*
X482353Y575880D01*
X482343Y576020D01*
X482333Y576052D01*
X482329Y576086D01*
X482282Y576217D01*
X482241Y576350D01*
X482223Y576379D01*
X482212Y576411D01*
X482136Y576528D01*
X482065Y576648D01*
X482035Y576682D01*
X482023Y576701D01*
X481999Y576724D01*
X481930Y576803D01*
X480710Y578022D01*
X479869Y580053D01*
X479869Y636409D01*
X479853Y636546D01*
X479843Y636686D01*
X479833Y636718D01*
X479829Y636752D01*
X479782Y636883D01*
X479741Y637016D01*
X479723Y637045D01*
X479712Y637077D01*
X479636Y637194D01*
X479565Y637314D01*
X479535Y637348D01*
X479523Y637367D01*
X479499Y637390D01*
X479430Y637469D01*
X475933Y640966D01*
X475905Y640988D01*
X475882Y641015D01*
X475770Y641095D01*
X475662Y641181D01*
X475630Y641196D01*
X475601Y641216D01*
X475473Y641269D01*
X475349Y641328D01*
X475314Y641335D01*
X475281Y641348D01*
X475145Y641370D01*
X475011Y641399D01*
X474975Y641398D01*
X474940Y641404D01*
X474803Y641394D01*
X474665Y641391D01*
X474631Y641382D01*
X474595Y641379D01*
X474464Y641338D01*
X474330Y641304D01*
X474299Y641287D01*
X474265Y641276D01*
X474146Y641207D01*
X474025Y641142D01*
X473998Y641119D01*
X473967Y641101D01*
X473813Y640966D01*
X471402Y638555D01*
X463826Y638555D01*
X458469Y643912D01*
X458469Y651488D01*
X463826Y656845D01*
X471402Y656845D01*
X474583Y653664D01*
X474692Y653577D01*
X474797Y653486D01*
X474827Y653470D01*
X474854Y653449D01*
X474980Y653390D01*
X475103Y653325D01*
X475136Y653317D01*
X475167Y653302D01*
X475303Y653274D01*
X475438Y653239D01*
X475483Y653236D01*
X475505Y653231D01*
X475539Y653232D01*
X475643Y653225D01*
X478111Y653225D01*
X480142Y652384D01*
X490078Y642448D01*
X490919Y640417D01*
X490919Y580053D01*
X490078Y578022D01*
X488858Y576803D01*
X488771Y576694D01*
X488680Y576588D01*
X488664Y576558D01*
X488643Y576532D01*
X488584Y576406D01*
X488519Y576282D01*
X488511Y576249D01*
X488496Y576219D01*
X488468Y576082D01*
X488433Y575947D01*
X488430Y575902D01*
X488425Y575880D01*
X488426Y575847D01*
X488419Y575743D01*
X488419Y506493D01*
X471153Y489227D01*
X381824Y489227D01*
X381772Y489221D01*
X381720Y489224D01*
X381601Y489201D01*
X381481Y489187D01*
X381432Y489170D01*
X381380Y489160D01*
X381269Y489111D01*
X381156Y489070D01*
X381112Y489041D01*
X381064Y489020D01*
X380967Y488947D01*
X380866Y488881D01*
X380830Y488843D01*
X380788Y488812D01*
X380711Y488718D01*
X380627Y488631D01*
X380601Y488586D01*
X380567Y488546D01*
X380513Y488437D01*
X380452Y488333D01*
X380437Y488283D01*
X380414Y488236D01*
X380386Y488118D01*
X380350Y488002D01*
X380347Y487950D01*
X380335Y487899D01*
X380335Y487778D01*
X380327Y487657D01*
X380335Y487606D01*
X380335Y487554D01*
X380363Y487436D01*
X380383Y487316D01*
X380403Y487268D01*
X380415Y487217D01*
X380469Y487109D01*
X380515Y486997D01*
X380546Y486955D01*
X380569Y486908D01*
X380647Y486815D01*
X380717Y486717D01*
X380757Y486682D01*
X380790Y486642D01*
X380887Y486569D01*
X380979Y486490D01*
X381025Y486466D01*
X381067Y486434D01*
X381250Y486343D01*
X384080Y485171D01*
X386619Y482632D01*
X387993Y479315D01*
X387993Y475725D01*
X386619Y472408D01*
X384080Y469869D01*
X380763Y468495D01*
X377173Y468495D01*
X373856Y469869D01*
X371317Y472408D01*
X371043Y473070D01*
X371000Y473146D01*
X370967Y473227D01*
X370917Y473297D01*
X370875Y473372D01*
X370816Y473436D01*
X370765Y473507D01*
X370700Y473564D01*
X370642Y473627D01*
X370570Y473677D01*
X370503Y473734D01*
X370427Y473774D01*
X370357Y473823D01*
X370275Y473854D01*
X370197Y473895D01*
X370114Y473916D01*
X370034Y473947D01*
X369947Y473959D01*
X369863Y473981D01*
X369719Y473991D01*
X369692Y473995D01*
X369680Y473994D01*
X369658Y473995D01*
X358458Y473995D01*
X350007Y482446D01*
X349898Y482533D01*
X349793Y482624D01*
X349763Y482640D01*
X349736Y482661D01*
X349610Y482720D01*
X349486Y482785D01*
X349454Y482793D01*
X349423Y482808D01*
X349287Y482836D01*
X349152Y482871D01*
X349107Y482874D01*
X349085Y482879D01*
X349051Y482878D01*
X348947Y482885D01*
X322121Y482885D01*
X321983Y482869D01*
X321843Y482859D01*
X321811Y482849D01*
X321778Y482845D01*
X321647Y482798D01*
X321513Y482757D01*
X321484Y482739D01*
X321452Y482728D01*
X321336Y482652D01*
X321216Y482581D01*
X321181Y482551D01*
X321163Y482539D01*
X321140Y482515D01*
X321061Y482446D01*
X314353Y475738D01*
X314288Y475656D01*
X314216Y475581D01*
X314181Y475521D01*
X314138Y475467D01*
X314094Y475373D01*
X314041Y475283D01*
X314021Y475217D01*
X313991Y475154D01*
X313970Y475052D01*
X313939Y474952D01*
X313934Y474883D01*
X313920Y474816D01*
X313922Y474712D01*
X313915Y474607D01*
X313927Y474539D01*
X313928Y474470D01*
X313954Y474369D01*
X313971Y474266D01*
X313998Y474202D01*
X314015Y474136D01*
X314064Y474043D01*
X314104Y473947D01*
X314144Y473891D01*
X314177Y473830D01*
X314245Y473751D01*
X314306Y473667D01*
X314359Y473621D01*
X314404Y473569D01*
X314489Y473508D01*
X314567Y473440D01*
X314629Y473408D01*
X314685Y473367D01*
X314781Y473328D01*
X314873Y473279D01*
X314941Y473262D01*
X315004Y473236D01*
X315107Y473219D01*
X315208Y473193D01*
X315312Y473186D01*
X315346Y473180D01*
X315368Y473182D01*
X315413Y473179D01*
X322461Y473179D01*
X322548Y473189D01*
X322635Y473189D01*
X322719Y473209D01*
X322804Y473219D01*
X322887Y473248D01*
X322972Y473268D01*
X323049Y473307D01*
X323129Y473336D01*
X323203Y473384D01*
X323281Y473423D01*
X323347Y473478D01*
X323419Y473525D01*
X323479Y473588D01*
X323547Y473644D01*
X323598Y473713D01*
X323658Y473775D01*
X323702Y473850D01*
X323755Y473921D01*
X323819Y474049D01*
X323833Y474073D01*
X323836Y474085D01*
X323846Y474104D01*
X324327Y475266D01*
X326866Y477805D01*
X330183Y479179D01*
X333773Y479179D01*
X337090Y477805D01*
X339629Y475266D01*
X341003Y471949D01*
X341003Y468359D01*
X339629Y465042D01*
X337090Y462503D01*
X333773Y461129D01*
X330183Y461129D01*
G37*
%LPD*%
G36*
X309594Y619855D02*
X309594Y619855D01*
X309733Y619865D01*
X309765Y619875D01*
X309799Y619879D01*
X309930Y619926D01*
X310063Y619967D01*
X310092Y619985D01*
X310124Y619996D01*
X310241Y620072D01*
X310361Y620143D01*
X310395Y620173D01*
X310414Y620185D01*
X310437Y620209D01*
X310516Y620278D01*
X311576Y621339D01*
X315773Y621339D01*
X315877Y621351D01*
X315981Y621353D01*
X316048Y621371D01*
X316117Y621379D01*
X316215Y621414D01*
X316316Y621440D01*
X316377Y621473D01*
X316442Y621496D01*
X316530Y621553D01*
X316622Y621602D01*
X316674Y621647D01*
X316732Y621685D01*
X316804Y621760D01*
X316882Y621829D01*
X316923Y621885D01*
X316970Y621935D01*
X317023Y622025D01*
X317084Y622110D01*
X317110Y622174D01*
X317145Y622233D01*
X317176Y622333D01*
X317216Y622429D01*
X317227Y622498D01*
X317247Y622564D01*
X317255Y622668D01*
X317271Y622771D01*
X317266Y622840D01*
X317271Y622909D01*
X317254Y623012D01*
X317247Y623116D01*
X317226Y623182D01*
X317215Y623250D01*
X317175Y623346D01*
X317144Y623446D01*
X317109Y623505D01*
X317082Y623569D01*
X317021Y623654D01*
X316968Y623744D01*
X316900Y623822D01*
X316880Y623849D01*
X316863Y623864D01*
X316834Y623898D01*
X312695Y628036D01*
X312586Y628123D01*
X312480Y628214D01*
X312450Y628230D01*
X312424Y628251D01*
X312298Y628310D01*
X312174Y628375D01*
X312141Y628383D01*
X312111Y628398D01*
X311975Y628426D01*
X311839Y628461D01*
X311794Y628464D01*
X311772Y628469D01*
X311739Y628468D01*
X311635Y628475D01*
X304626Y628475D01*
X303733Y629368D01*
X303733Y640632D01*
X304626Y641525D01*
X315390Y641525D01*
X316283Y640632D01*
X316283Y633625D01*
X316299Y633486D01*
X316309Y633347D01*
X316319Y633315D01*
X316323Y633281D01*
X316370Y633150D01*
X316411Y633017D01*
X316429Y632988D01*
X316440Y632956D01*
X316516Y632839D01*
X316587Y632719D01*
X316617Y632685D01*
X316629Y632666D01*
X316653Y632643D01*
X316722Y632564D01*
X317174Y632112D01*
X317256Y632048D01*
X317331Y631976D01*
X317391Y631941D01*
X317445Y631898D01*
X317539Y631853D01*
X317629Y631801D01*
X317695Y631780D01*
X317758Y631751D01*
X317860Y631729D01*
X317960Y631699D01*
X318029Y631694D01*
X318096Y631680D01*
X318200Y631682D01*
X318305Y631675D01*
X318373Y631686D01*
X318442Y631688D01*
X318543Y631714D01*
X318646Y631731D01*
X318710Y631758D01*
X318777Y631775D01*
X318869Y631824D01*
X318965Y631864D01*
X319021Y631904D01*
X319082Y631936D01*
X319161Y632005D01*
X319245Y632066D01*
X319291Y632118D01*
X319343Y632164D01*
X319404Y632248D01*
X319472Y632327D01*
X319504Y632388D01*
X319545Y632444D01*
X319584Y632541D01*
X319633Y632633D01*
X319650Y632700D01*
X319677Y632764D01*
X319693Y632867D01*
X319719Y632968D01*
X319726Y633072D01*
X319732Y633105D01*
X319730Y633128D01*
X319733Y633173D01*
X319733Y640632D01*
X320626Y641525D01*
X321484Y641525D01*
X321519Y641529D01*
X321555Y641526D01*
X321691Y641549D01*
X321827Y641565D01*
X321861Y641577D01*
X321896Y641582D01*
X322023Y641635D01*
X322153Y641682D01*
X322182Y641701D01*
X322215Y641715D01*
X322327Y641796D01*
X322442Y641871D01*
X322467Y641897D01*
X322495Y641917D01*
X322586Y642021D01*
X322681Y642121D01*
X322699Y642152D01*
X322722Y642178D01*
X322786Y642301D01*
X322856Y642419D01*
X322866Y642453D01*
X322883Y642485D01*
X322917Y642618D01*
X322958Y642750D01*
X322960Y642785D01*
X322969Y642819D01*
X322983Y643024D01*
X322983Y650095D01*
X329776Y656888D01*
X329841Y656970D01*
X329913Y657045D01*
X329948Y657105D01*
X329991Y657159D01*
X330035Y657253D01*
X330088Y657343D01*
X330108Y657409D01*
X330138Y657472D01*
X330159Y657574D01*
X330190Y657674D01*
X330195Y657743D01*
X330209Y657810D01*
X330207Y657914D01*
X330214Y658019D01*
X330203Y658087D01*
X330201Y658156D01*
X330175Y658257D01*
X330158Y658360D01*
X330131Y658424D01*
X330114Y658490D01*
X330065Y658583D01*
X330025Y658679D01*
X329985Y658735D01*
X329952Y658796D01*
X329884Y658875D01*
X329823Y658959D01*
X329771Y659005D01*
X329725Y659057D01*
X329641Y659118D01*
X329562Y659186D01*
X329501Y659218D01*
X329444Y659259D01*
X329348Y659298D01*
X329256Y659347D01*
X329189Y659364D01*
X329125Y659390D01*
X329022Y659407D01*
X328921Y659433D01*
X328817Y659440D01*
X328784Y659446D01*
X328761Y659444D01*
X328716Y659447D01*
X208395Y659447D01*
X208257Y659431D01*
X208118Y659421D01*
X208086Y659411D01*
X208052Y659407D01*
X207921Y659360D01*
X207788Y659319D01*
X207759Y659301D01*
X207727Y659290D01*
X207610Y659214D01*
X207490Y659143D01*
X207456Y659113D01*
X207437Y659101D01*
X207414Y659077D01*
X207335Y659008D01*
X204846Y656519D01*
X204759Y656410D01*
X204668Y656304D01*
X204652Y656274D01*
X204631Y656248D01*
X204572Y656122D01*
X204507Y655998D01*
X204499Y655965D01*
X204484Y655935D01*
X204456Y655798D01*
X204421Y655663D01*
X204418Y655618D01*
X204413Y655596D01*
X204414Y655563D01*
X204407Y655459D01*
X204407Y634979D01*
X204419Y634875D01*
X204421Y634771D01*
X204439Y634704D01*
X204447Y634635D01*
X204482Y634537D01*
X204508Y634436D01*
X204541Y634375D01*
X204564Y634310D01*
X204621Y634223D01*
X204670Y634130D01*
X204715Y634078D01*
X204753Y634021D01*
X204828Y633949D01*
X204897Y633870D01*
X204953Y633830D01*
X205003Y633782D01*
X205093Y633729D01*
X205178Y633668D01*
X205242Y633642D01*
X205301Y633607D01*
X205401Y633576D01*
X205497Y633536D01*
X205566Y633525D01*
X205632Y633505D01*
X205736Y633498D01*
X205839Y633481D01*
X205908Y633486D01*
X205977Y633481D01*
X206080Y633498D01*
X206184Y633506D01*
X206250Y633526D01*
X206318Y633537D01*
X206414Y633577D01*
X206514Y633608D01*
X206573Y633643D01*
X206637Y633670D01*
X206722Y633731D01*
X206812Y633784D01*
X206890Y633852D01*
X206896Y633857D01*
X210271Y635255D01*
X229149Y635255D01*
X232510Y633863D01*
X234299Y632074D01*
X234408Y631987D01*
X234513Y631896D01*
X234543Y631880D01*
X234570Y631859D01*
X234696Y631800D01*
X234819Y631735D01*
X234852Y631727D01*
X234883Y631712D01*
X235019Y631684D01*
X235154Y631649D01*
X235199Y631646D01*
X235221Y631641D01*
X235255Y631642D01*
X235359Y631635D01*
X248749Y631635D01*
X250780Y630794D01*
X251999Y629574D01*
X252108Y629487D01*
X252214Y629396D01*
X252244Y629380D01*
X252270Y629359D01*
X252396Y629300D01*
X252520Y629235D01*
X252553Y629227D01*
X252583Y629212D01*
X252720Y629184D01*
X252855Y629149D01*
X252900Y629146D01*
X252922Y629141D01*
X252955Y629142D01*
X253059Y629135D01*
X265413Y629135D01*
X274270Y620278D01*
X274379Y620191D01*
X274484Y620100D01*
X274514Y620084D01*
X274541Y620063D01*
X274667Y620004D01*
X274790Y619939D01*
X274823Y619931D01*
X274854Y619916D01*
X274990Y619888D01*
X275125Y619853D01*
X275170Y619850D01*
X275192Y619845D01*
X275226Y619846D01*
X275330Y619839D01*
X309455Y619839D01*
X309594Y619855D01*
G37*
G36*
X272655Y491855D02*
X272655Y491855D01*
X272724Y491857D01*
X272825Y491883D01*
X272928Y491900D01*
X272992Y491927D01*
X273058Y491944D01*
X273151Y491993D01*
X273247Y492033D01*
X273303Y492073D01*
X273364Y492106D01*
X273443Y492174D01*
X273527Y492235D01*
X273573Y492287D01*
X273625Y492333D01*
X273686Y492417D01*
X273754Y492496D01*
X273786Y492558D01*
X273827Y492614D01*
X273866Y492710D01*
X273915Y492802D01*
X273932Y492869D01*
X273958Y492933D01*
X273975Y493036D01*
X274001Y493137D01*
X274008Y493241D01*
X274014Y493274D01*
X274012Y493297D01*
X274015Y493342D01*
X274015Y500932D01*
X274908Y501825D01*
X275536Y501825D01*
X275571Y501829D01*
X275607Y501826D01*
X275743Y501849D01*
X275879Y501865D01*
X275913Y501877D01*
X275948Y501882D01*
X276075Y501935D01*
X276205Y501982D01*
X276234Y502001D01*
X276267Y502015D01*
X276379Y502096D01*
X276494Y502171D01*
X276519Y502197D01*
X276547Y502217D01*
X276638Y502321D01*
X276733Y502421D01*
X276751Y502452D01*
X276774Y502478D01*
X276838Y502601D01*
X276908Y502719D01*
X276918Y502753D01*
X276935Y502785D01*
X276969Y502918D01*
X277010Y503050D01*
X277012Y503085D01*
X277021Y503119D01*
X277035Y503324D01*
X277035Y510877D01*
X277019Y511015D01*
X277009Y511155D01*
X276999Y511187D01*
X276995Y511221D01*
X276948Y511352D01*
X276907Y511485D01*
X276889Y511514D01*
X276878Y511546D01*
X276802Y511663D01*
X276731Y511783D01*
X276701Y511817D01*
X276689Y511836D01*
X276665Y511859D01*
X276596Y511938D01*
X275535Y512998D01*
X275535Y526262D01*
X276428Y527155D01*
X283692Y527155D01*
X283750Y527096D01*
X283778Y527074D01*
X283801Y527048D01*
X283913Y526967D01*
X284021Y526882D01*
X284053Y526867D01*
X284082Y526846D01*
X284209Y526794D01*
X284334Y526735D01*
X284369Y526728D01*
X284401Y526714D01*
X284537Y526692D01*
X284672Y526664D01*
X284708Y526664D01*
X284743Y526659D01*
X284880Y526669D01*
X285018Y526672D01*
X285052Y526681D01*
X285088Y526683D01*
X285219Y526724D01*
X285352Y526759D01*
X285384Y526775D01*
X285418Y526786D01*
X285537Y526856D01*
X285658Y526920D01*
X285685Y526944D01*
X285716Y526962D01*
X285870Y527096D01*
X286096Y527323D01*
X286183Y527432D01*
X286274Y527537D01*
X286290Y527567D01*
X286311Y527594D01*
X286370Y527720D01*
X286435Y527843D01*
X286443Y527876D01*
X286458Y527907D01*
X286486Y528043D01*
X286521Y528178D01*
X286524Y528223D01*
X286529Y528245D01*
X286528Y528278D01*
X286535Y528383D01*
X286535Y536329D01*
X286523Y536433D01*
X286521Y536537D01*
X286503Y536604D01*
X286495Y536673D01*
X286460Y536771D01*
X286434Y536872D01*
X286401Y536933D01*
X286378Y536998D01*
X286321Y537085D01*
X286272Y537178D01*
X286227Y537230D01*
X286189Y537288D01*
X286114Y537360D01*
X286045Y537438D01*
X285989Y537479D01*
X285939Y537526D01*
X285849Y537579D01*
X285764Y537640D01*
X285700Y537666D01*
X285641Y537701D01*
X285541Y537732D01*
X285445Y537772D01*
X285376Y537783D01*
X285310Y537803D01*
X285206Y537811D01*
X285103Y537827D01*
X285034Y537822D01*
X284965Y537827D01*
X284863Y537810D01*
X284758Y537803D01*
X284692Y537782D01*
X284624Y537771D01*
X284528Y537731D01*
X284428Y537700D01*
X284369Y537665D01*
X284305Y537638D01*
X284220Y537577D01*
X284131Y537524D01*
X284052Y537456D01*
X284025Y537436D01*
X284010Y537419D01*
X283976Y537390D01*
X283692Y537105D01*
X276428Y537105D01*
X275535Y537998D01*
X275535Y551262D01*
X276428Y552155D01*
X279576Y552155D01*
X279611Y552159D01*
X279647Y552156D01*
X279783Y552179D01*
X279919Y552195D01*
X279953Y552207D01*
X279988Y552212D01*
X280115Y552265D01*
X280245Y552312D01*
X280274Y552331D01*
X280307Y552345D01*
X280419Y552426D01*
X280534Y552501D01*
X280559Y552527D01*
X280587Y552547D01*
X280678Y552651D01*
X280773Y552751D01*
X280791Y552782D01*
X280814Y552808D01*
X280878Y552931D01*
X280948Y553049D01*
X280958Y553083D01*
X280975Y553115D01*
X281009Y553248D01*
X281050Y553380D01*
X281052Y553415D01*
X281061Y553449D01*
X281075Y553654D01*
X281075Y558396D01*
X281071Y558431D01*
X281074Y558467D01*
X281051Y558603D01*
X281035Y558739D01*
X281023Y558773D01*
X281018Y558808D01*
X280965Y558935D01*
X280918Y559065D01*
X280899Y559094D01*
X280885Y559127D01*
X280804Y559239D01*
X280729Y559354D01*
X280703Y559379D01*
X280683Y559407D01*
X280579Y559498D01*
X280479Y559593D01*
X280448Y559611D01*
X280422Y559634D01*
X280299Y559698D01*
X280181Y559768D01*
X280147Y559778D01*
X280115Y559795D01*
X279982Y559829D01*
X279850Y559870D01*
X279815Y559872D01*
X279781Y559881D01*
X279576Y559895D01*
X278718Y559895D01*
X277825Y560788D01*
X277825Y572052D01*
X278040Y572266D01*
X278104Y572348D01*
X278176Y572423D01*
X278211Y572483D01*
X278254Y572537D01*
X278299Y572631D01*
X278351Y572721D01*
X278372Y572787D01*
X278401Y572850D01*
X278423Y572952D01*
X278453Y573052D01*
X278458Y573121D01*
X278472Y573188D01*
X278470Y573292D01*
X278477Y573397D01*
X278466Y573465D01*
X278464Y573534D01*
X278438Y573635D01*
X278421Y573738D01*
X278395Y573801D01*
X278377Y573868D01*
X278328Y573961D01*
X278288Y574057D01*
X278248Y574113D01*
X278216Y574174D01*
X278147Y574253D01*
X278086Y574337D01*
X278034Y574383D01*
X277989Y574435D01*
X277904Y574496D01*
X277825Y574564D01*
X277764Y574596D01*
X277708Y574637D01*
X277611Y574676D01*
X277519Y574725D01*
X277452Y574742D01*
X277388Y574768D01*
X277285Y574785D01*
X277184Y574811D01*
X277080Y574818D01*
X277047Y574824D01*
X277024Y574822D01*
X276979Y574825D01*
X272130Y574825D01*
X271992Y574809D01*
X271852Y574799D01*
X271820Y574789D01*
X271786Y574785D01*
X271656Y574738D01*
X271522Y574697D01*
X271493Y574679D01*
X271461Y574668D01*
X271344Y574592D01*
X271224Y574521D01*
X271190Y574491D01*
X271172Y574479D01*
X271148Y574455D01*
X271070Y574386D01*
X268969Y572285D01*
X236977Y572285D01*
X236890Y572275D01*
X236803Y572275D01*
X236719Y572255D01*
X236634Y572245D01*
X236551Y572216D01*
X236466Y572196D01*
X236389Y572157D01*
X236308Y572128D01*
X236235Y572080D01*
X236157Y572041D01*
X236091Y571986D01*
X236019Y571939D01*
X235958Y571876D01*
X235891Y571820D01*
X235839Y571751D01*
X235780Y571689D01*
X235736Y571614D01*
X235683Y571543D01*
X235619Y571414D01*
X235605Y571391D01*
X235602Y571379D01*
X235592Y571360D01*
X235083Y570130D01*
X232510Y567557D01*
X229149Y566165D01*
X210271Y566165D01*
X206910Y567557D01*
X206244Y568223D01*
X206162Y568288D01*
X206087Y568360D01*
X206027Y568395D01*
X205973Y568438D01*
X205878Y568482D01*
X205789Y568535D01*
X205723Y568555D01*
X205660Y568585D01*
X205558Y568606D01*
X205458Y568637D01*
X205389Y568642D01*
X205322Y568656D01*
X205218Y568654D01*
X205113Y568661D01*
X205045Y568650D01*
X204976Y568648D01*
X204875Y568622D01*
X204772Y568605D01*
X204709Y568578D01*
X204642Y568561D01*
X204549Y568512D01*
X204453Y568472D01*
X204397Y568432D01*
X204336Y568399D01*
X204257Y568331D01*
X204173Y568270D01*
X204127Y568218D01*
X204075Y568172D01*
X204014Y568088D01*
X203946Y568009D01*
X203914Y567947D01*
X203873Y567891D01*
X203834Y567795D01*
X203785Y567703D01*
X203768Y567636D01*
X203742Y567572D01*
X203725Y567469D01*
X203699Y567368D01*
X203692Y567264D01*
X203686Y567231D01*
X203688Y567208D01*
X203685Y567163D01*
X203685Y550437D01*
X203697Y550333D01*
X203699Y550229D01*
X203717Y550162D01*
X203725Y550093D01*
X203760Y549995D01*
X203786Y549894D01*
X203819Y549833D01*
X203842Y549768D01*
X203899Y549681D01*
X203948Y549589D01*
X203993Y549537D01*
X204031Y549479D01*
X204106Y549407D01*
X204175Y549328D01*
X204231Y549288D01*
X204281Y549240D01*
X204371Y549187D01*
X204456Y549126D01*
X204520Y549100D01*
X204579Y549065D01*
X204679Y549034D01*
X204775Y548994D01*
X204844Y548983D01*
X204910Y548963D01*
X205014Y548956D01*
X205117Y548939D01*
X205186Y548944D01*
X205255Y548939D01*
X205357Y548956D01*
X205462Y548963D01*
X205528Y548984D01*
X205596Y548995D01*
X205692Y549035D01*
X205792Y549066D01*
X205851Y549101D01*
X205915Y549128D01*
X206000Y549189D01*
X206089Y549242D01*
X206168Y549310D01*
X206195Y549330D01*
X206210Y549347D01*
X206244Y549377D01*
X208180Y551313D01*
X211541Y552705D01*
X230419Y552705D01*
X233780Y551313D01*
X234299Y550794D01*
X234408Y550707D01*
X234513Y550616D01*
X234543Y550600D01*
X234570Y550579D01*
X234696Y550520D01*
X234819Y550455D01*
X234852Y550447D01*
X234883Y550432D01*
X235019Y550404D01*
X235154Y550369D01*
X235199Y550366D01*
X235221Y550361D01*
X235255Y550362D01*
X235359Y550355D01*
X261449Y550355D01*
X263480Y549514D01*
X264699Y548294D01*
X264808Y548207D01*
X264914Y548116D01*
X264944Y548100D01*
X264970Y548079D01*
X265096Y548020D01*
X265220Y547955D01*
X265253Y547947D01*
X265283Y547932D01*
X265420Y547904D01*
X265555Y547869D01*
X265600Y547866D01*
X265622Y547861D01*
X265655Y547862D01*
X265759Y547855D01*
X266683Y547855D01*
X272265Y542273D01*
X272265Y506747D01*
X267953Y502435D01*
X235477Y502435D01*
X235373Y502423D01*
X235269Y502421D01*
X235202Y502403D01*
X235133Y502395D01*
X235035Y502360D01*
X234934Y502334D01*
X234873Y502301D01*
X234808Y502278D01*
X234721Y502221D01*
X234629Y502172D01*
X234577Y502127D01*
X234519Y502089D01*
X234447Y502014D01*
X234368Y501945D01*
X234328Y501889D01*
X234280Y501839D01*
X234227Y501749D01*
X234166Y501664D01*
X234140Y501600D01*
X234105Y501541D01*
X234074Y501441D01*
X234034Y501345D01*
X234023Y501276D01*
X234003Y501210D01*
X233996Y501106D01*
X233979Y501003D01*
X233984Y500934D01*
X233979Y500865D01*
X233996Y500763D01*
X234003Y500658D01*
X234024Y500592D01*
X234035Y500524D01*
X234075Y500428D01*
X234106Y500328D01*
X234141Y500269D01*
X234168Y500205D01*
X234229Y500120D01*
X234282Y500031D01*
X234350Y499952D01*
X234370Y499925D01*
X234387Y499910D01*
X234417Y499876D01*
X235569Y498724D01*
X235678Y498637D01*
X235783Y498546D01*
X235813Y498530D01*
X235840Y498509D01*
X235966Y498450D01*
X236089Y498385D01*
X236122Y498377D01*
X236153Y498362D01*
X236289Y498334D01*
X236424Y498299D01*
X236469Y498296D01*
X236491Y498291D01*
X236525Y498292D01*
X236629Y498285D01*
X261449Y498285D01*
X263480Y497444D01*
X264699Y496224D01*
X264808Y496137D01*
X264914Y496046D01*
X264944Y496030D01*
X264970Y496009D01*
X265096Y495950D01*
X265220Y495885D01*
X265253Y495877D01*
X265283Y495862D01*
X265420Y495834D01*
X265555Y495799D01*
X265600Y495796D01*
X265622Y495791D01*
X265655Y495792D01*
X265759Y495785D01*
X267953Y495785D01*
X270164Y493574D01*
X271456Y492282D01*
X271538Y492217D01*
X271613Y492145D01*
X271673Y492110D01*
X271727Y492067D01*
X271821Y492023D01*
X271911Y491970D01*
X271977Y491950D01*
X272040Y491920D01*
X272142Y491899D01*
X272242Y491868D01*
X272311Y491863D01*
X272378Y491849D01*
X272482Y491851D01*
X272587Y491844D01*
X272655Y491855D01*
G37*
G36*
X387271Y582149D02*
X387271Y582149D01*
X387307Y582146D01*
X387443Y582169D01*
X387579Y582185D01*
X387613Y582197D01*
X387648Y582202D01*
X387775Y582255D01*
X387905Y582302D01*
X387934Y582321D01*
X387967Y582335D01*
X388079Y582416D01*
X388194Y582491D01*
X388219Y582517D01*
X388247Y582537D01*
X388338Y582641D01*
X388433Y582741D01*
X388451Y582772D01*
X388474Y582798D01*
X388538Y582921D01*
X388608Y583039D01*
X388618Y583073D01*
X388635Y583105D01*
X388669Y583238D01*
X388710Y583370D01*
X388712Y583405D01*
X388721Y583439D01*
X388735Y583644D01*
X388735Y585612D01*
X389628Y586505D01*
X392986Y586505D01*
X393021Y586509D01*
X393057Y586506D01*
X393193Y586529D01*
X393329Y586545D01*
X393363Y586557D01*
X393398Y586562D01*
X393525Y586615D01*
X393655Y586662D01*
X393684Y586681D01*
X393717Y586695D01*
X393829Y586776D01*
X393944Y586851D01*
X393969Y586877D01*
X393997Y586897D01*
X394088Y587001D01*
X394183Y587101D01*
X394201Y587132D01*
X394224Y587158D01*
X394288Y587281D01*
X394358Y587399D01*
X394368Y587433D01*
X394385Y587465D01*
X394419Y587598D01*
X394460Y587730D01*
X394462Y587765D01*
X394471Y587799D01*
X394485Y588004D01*
X394485Y603662D01*
X394469Y603800D01*
X394459Y603940D01*
X394449Y603972D01*
X394445Y604006D01*
X394398Y604136D01*
X394357Y604270D01*
X394339Y604299D01*
X394328Y604331D01*
X394252Y604448D01*
X394181Y604568D01*
X394151Y604602D01*
X394139Y604620D01*
X394115Y604644D01*
X394046Y604722D01*
X381277Y617491D01*
X381277Y621797D01*
X381267Y621884D01*
X381267Y621971D01*
X381247Y622055D01*
X381237Y622140D01*
X381208Y622223D01*
X381188Y622308D01*
X381149Y622385D01*
X381120Y622466D01*
X381072Y622539D01*
X381033Y622617D01*
X380978Y622683D01*
X380931Y622755D01*
X380868Y622815D01*
X380812Y622883D01*
X380743Y622935D01*
X380681Y622994D01*
X380606Y623038D01*
X380535Y623091D01*
X380406Y623155D01*
X380383Y623169D01*
X380371Y623172D01*
X380352Y623182D01*
X379122Y623691D01*
X376549Y626264D01*
X375157Y629625D01*
X375157Y648503D01*
X376563Y651897D01*
X376590Y651925D01*
X376625Y651985D01*
X376668Y652039D01*
X376712Y652133D01*
X376765Y652223D01*
X376785Y652289D01*
X376815Y652352D01*
X376836Y652454D01*
X376867Y652554D01*
X376872Y652623D01*
X376886Y652690D01*
X376884Y652794D01*
X376891Y652899D01*
X376880Y652967D01*
X376878Y653036D01*
X376852Y653137D01*
X376835Y653240D01*
X376808Y653303D01*
X376791Y653370D01*
X376742Y653463D01*
X376702Y653559D01*
X376662Y653615D01*
X376630Y653676D01*
X376561Y653755D01*
X376500Y653839D01*
X376448Y653885D01*
X376402Y653937D01*
X376318Y653998D01*
X376239Y654066D01*
X376177Y654098D01*
X376122Y654138D01*
X376025Y654178D01*
X375933Y654227D01*
X375866Y654244D01*
X375802Y654270D01*
X375699Y654287D01*
X375598Y654313D01*
X375494Y654320D01*
X375461Y654326D01*
X375438Y654324D01*
X375393Y654327D01*
X369920Y654327D01*
X369782Y654311D01*
X369642Y654301D01*
X369610Y654291D01*
X369576Y654287D01*
X369446Y654240D01*
X369312Y654199D01*
X369283Y654181D01*
X369251Y654170D01*
X369134Y654094D01*
X369014Y654023D01*
X368980Y653993D01*
X368962Y653981D01*
X368938Y653957D01*
X368860Y653888D01*
X367573Y652601D01*
X367416Y652444D01*
X367362Y652376D01*
X367300Y652314D01*
X367255Y652241D01*
X367201Y652173D01*
X367164Y652094D01*
X367118Y652020D01*
X367091Y651938D01*
X367054Y651860D01*
X367036Y651775D01*
X367009Y651692D01*
X367001Y651606D01*
X366983Y651522D01*
X366985Y651434D01*
X366977Y651347D01*
X366989Y651262D01*
X366991Y651176D01*
X367013Y651091D01*
X367026Y651005D01*
X367071Y650868D01*
X367078Y650842D01*
X367084Y650831D01*
X367091Y650810D01*
X368047Y648503D01*
X368047Y629625D01*
X366655Y626264D01*
X364082Y623691D01*
X360721Y622299D01*
X357083Y622299D01*
X353722Y623691D01*
X351149Y626264D01*
X350884Y626905D01*
X350808Y627042D01*
X350735Y627180D01*
X350724Y627192D01*
X350716Y627207D01*
X350610Y627322D01*
X350508Y627440D01*
X350494Y627450D01*
X350483Y627463D01*
X350354Y627551D01*
X350227Y627642D01*
X350211Y627648D01*
X350197Y627658D01*
X350053Y627714D01*
X349907Y627774D01*
X349891Y627777D01*
X349875Y627783D01*
X349721Y627804D01*
X349566Y627829D01*
X349549Y627828D01*
X349532Y627830D01*
X349377Y627816D01*
X349221Y627805D01*
X349205Y627800D01*
X349188Y627798D01*
X349040Y627748D01*
X348891Y627702D01*
X348877Y627693D01*
X348860Y627688D01*
X348728Y627606D01*
X348593Y627526D01*
X348577Y627512D01*
X348567Y627506D01*
X348547Y627486D01*
X348439Y627391D01*
X347427Y626379D01*
X347158Y626268D01*
X347082Y626226D01*
X347001Y626192D01*
X346931Y626142D01*
X346856Y626100D01*
X346791Y626041D01*
X346721Y625990D01*
X346664Y625925D01*
X346601Y625867D01*
X346551Y625795D01*
X346494Y625729D01*
X346454Y625653D01*
X346405Y625582D01*
X346374Y625500D01*
X346333Y625423D01*
X346312Y625339D01*
X346281Y625259D01*
X346269Y625173D01*
X346247Y625088D01*
X346237Y624944D01*
X346233Y624917D01*
X346234Y624905D01*
X346233Y624883D01*
X346233Y622838D01*
X346237Y622803D01*
X346234Y622767D01*
X346257Y622631D01*
X346273Y622495D01*
X346285Y622461D01*
X346290Y622426D01*
X346343Y622299D01*
X346390Y622169D01*
X346409Y622140D01*
X346423Y622107D01*
X346504Y621995D01*
X346579Y621880D01*
X346605Y621855D01*
X346625Y621827D01*
X346729Y621736D01*
X346829Y621641D01*
X346860Y621623D01*
X346886Y621600D01*
X347009Y621536D01*
X347127Y621466D01*
X347161Y621456D01*
X347193Y621439D01*
X347326Y621405D01*
X347458Y621364D01*
X347493Y621362D01*
X347527Y621353D01*
X347732Y621339D01*
X349840Y621339D01*
X350733Y620446D01*
X350733Y613182D01*
X350674Y613124D01*
X350652Y613096D01*
X350626Y613073D01*
X350545Y612961D01*
X350460Y612853D01*
X350445Y612821D01*
X350424Y612792D01*
X350371Y612664D01*
X350313Y612540D01*
X350306Y612506D01*
X350292Y612473D01*
X350270Y612336D01*
X350242Y612202D01*
X350242Y612166D01*
X350237Y612131D01*
X350247Y611994D01*
X350250Y611856D01*
X350259Y611822D01*
X350261Y611786D01*
X350302Y611655D01*
X350337Y611522D01*
X350353Y611490D01*
X350364Y611456D01*
X350434Y611338D01*
X350498Y611216D01*
X350522Y611189D01*
X350540Y611159D01*
X350674Y611004D01*
X350733Y610946D01*
X350733Y610568D01*
X350737Y610533D01*
X350734Y610497D01*
X350757Y610361D01*
X350773Y610225D01*
X350785Y610191D01*
X350790Y610156D01*
X350843Y610029D01*
X350890Y609899D01*
X350909Y609870D01*
X350923Y609837D01*
X351004Y609725D01*
X351079Y609610D01*
X351105Y609585D01*
X351125Y609557D01*
X351229Y609466D01*
X351329Y609371D01*
X351360Y609353D01*
X351386Y609330D01*
X351509Y609266D01*
X351627Y609196D01*
X351661Y609186D01*
X351693Y609169D01*
X351826Y609135D01*
X351958Y609094D01*
X351993Y609092D01*
X352027Y609083D01*
X352232Y609069D01*
X354861Y609069D01*
X355000Y609085D01*
X355139Y609095D01*
X355171Y609105D01*
X355205Y609109D01*
X355336Y609156D01*
X355469Y609197D01*
X355498Y609215D01*
X355530Y609226D01*
X355647Y609302D01*
X355767Y609373D01*
X355801Y609403D01*
X355820Y609415D01*
X355843Y609439D01*
X355922Y609508D01*
X357080Y610667D01*
X368344Y610667D01*
X369237Y609774D01*
X369237Y599010D01*
X368344Y598117D01*
X357080Y598117D01*
X356187Y599010D01*
X356187Y601520D01*
X356183Y601555D01*
X356186Y601591D01*
X356163Y601727D01*
X356147Y601863D01*
X356135Y601897D01*
X356130Y601932D01*
X356077Y602059D01*
X356030Y602189D01*
X356011Y602218D01*
X355997Y602251D01*
X355916Y602363D01*
X355841Y602478D01*
X355815Y602503D01*
X355795Y602531D01*
X355691Y602622D01*
X355591Y602717D01*
X355560Y602735D01*
X355534Y602758D01*
X355411Y602822D01*
X355293Y602892D01*
X355259Y602902D01*
X355227Y602919D01*
X355094Y602953D01*
X354962Y602994D01*
X354927Y602996D01*
X354893Y603005D01*
X354688Y603019D01*
X352232Y603019D01*
X352197Y603015D01*
X352161Y603018D01*
X352025Y602995D01*
X351889Y602979D01*
X351855Y602967D01*
X351820Y602962D01*
X351693Y602909D01*
X351563Y602862D01*
X351534Y602843D01*
X351501Y602829D01*
X351389Y602748D01*
X351274Y602673D01*
X351249Y602647D01*
X351221Y602627D01*
X351130Y602523D01*
X351035Y602423D01*
X351017Y602392D01*
X350994Y602366D01*
X350930Y602243D01*
X350860Y602125D01*
X350850Y602091D01*
X350833Y602059D01*
X350799Y601926D01*
X350758Y601794D01*
X350756Y601759D01*
X350747Y601725D01*
X350733Y601520D01*
X350733Y594182D01*
X350526Y593976D01*
X350462Y593894D01*
X350390Y593819D01*
X350355Y593759D01*
X350312Y593705D01*
X350267Y593611D01*
X350215Y593521D01*
X350194Y593455D01*
X350165Y593392D01*
X350143Y593290D01*
X350113Y593190D01*
X350108Y593121D01*
X350094Y593054D01*
X350096Y592950D01*
X350089Y592845D01*
X350100Y592777D01*
X350102Y592708D01*
X350128Y592607D01*
X350145Y592504D01*
X350171Y592441D01*
X350189Y592374D01*
X350238Y592281D01*
X350278Y592185D01*
X350318Y592129D01*
X350350Y592068D01*
X350419Y591989D01*
X350480Y591905D01*
X350532Y591859D01*
X350577Y591807D01*
X350662Y591746D01*
X350741Y591678D01*
X350802Y591646D01*
X350858Y591605D01*
X350955Y591566D01*
X351047Y591517D01*
X351114Y591500D01*
X351178Y591474D01*
X351281Y591457D01*
X351382Y591431D01*
X351486Y591424D01*
X351519Y591418D01*
X351542Y591420D01*
X351587Y591417D01*
X354688Y591417D01*
X354723Y591421D01*
X354759Y591418D01*
X354895Y591441D01*
X355031Y591457D01*
X355065Y591469D01*
X355100Y591474D01*
X355227Y591527D01*
X355357Y591574D01*
X355386Y591593D01*
X355419Y591607D01*
X355531Y591688D01*
X355646Y591763D01*
X355671Y591789D01*
X355699Y591809D01*
X355790Y591913D01*
X355885Y592013D01*
X355903Y592044D01*
X355926Y592070D01*
X355990Y592193D01*
X356060Y592311D01*
X356070Y592345D01*
X356087Y592377D01*
X356121Y592510D01*
X356162Y592642D01*
X356164Y592677D01*
X356173Y592711D01*
X356187Y592916D01*
X356187Y593774D01*
X357080Y594667D01*
X368344Y594667D01*
X369237Y593774D01*
X369237Y583644D01*
X369241Y583609D01*
X369238Y583573D01*
X369261Y583437D01*
X369277Y583301D01*
X369289Y583267D01*
X369294Y583232D01*
X369347Y583105D01*
X369394Y582975D01*
X369413Y582946D01*
X369427Y582913D01*
X369508Y582801D01*
X369583Y582686D01*
X369609Y582661D01*
X369629Y582633D01*
X369733Y582542D01*
X369833Y582447D01*
X369864Y582429D01*
X369890Y582406D01*
X370013Y582342D01*
X370131Y582272D01*
X370165Y582262D01*
X370197Y582245D01*
X370330Y582211D01*
X370462Y582170D01*
X370497Y582168D01*
X370531Y582159D01*
X370736Y582145D01*
X387236Y582145D01*
X387271Y582149D01*
G37*
G36*
X264751Y508489D02*
X264751Y508489D01*
X264787Y508486D01*
X264923Y508509D01*
X265059Y508525D01*
X265093Y508537D01*
X265128Y508542D01*
X265255Y508595D01*
X265385Y508642D01*
X265414Y508661D01*
X265447Y508675D01*
X265559Y508756D01*
X265674Y508831D01*
X265699Y508857D01*
X265727Y508877D01*
X265818Y508981D01*
X265913Y509081D01*
X265931Y509112D01*
X265954Y509138D01*
X266018Y509261D01*
X266088Y509379D01*
X266098Y509413D01*
X266115Y509445D01*
X266149Y509578D01*
X266190Y509710D01*
X266192Y509745D01*
X266201Y509779D01*
X266215Y509984D01*
X266215Y539146D01*
X266199Y539284D01*
X266189Y539423D01*
X266179Y539456D01*
X266175Y539490D01*
X266128Y539620D01*
X266087Y539753D01*
X266069Y539783D01*
X266058Y539815D01*
X265982Y539931D01*
X265911Y540051D01*
X265881Y540086D01*
X265869Y540104D01*
X265845Y540128D01*
X265776Y540206D01*
X265718Y540264D01*
X265690Y540286D01*
X265667Y540313D01*
X265555Y540394D01*
X265447Y540479D01*
X265415Y540494D01*
X265386Y540515D01*
X265259Y540567D01*
X265134Y540626D01*
X265099Y540633D01*
X265066Y540647D01*
X264931Y540669D01*
X264796Y540697D01*
X264760Y540696D01*
X264725Y540702D01*
X264588Y540692D01*
X264450Y540689D01*
X264416Y540680D01*
X264380Y540678D01*
X264249Y540637D01*
X264116Y540602D01*
X264084Y540586D01*
X264050Y540575D01*
X263932Y540505D01*
X263810Y540441D01*
X263783Y540417D01*
X263752Y540399D01*
X263598Y540264D01*
X263479Y540146D01*
X261449Y539305D01*
X237738Y539305D01*
X237651Y539295D01*
X237563Y539295D01*
X237479Y539275D01*
X237394Y539265D01*
X237312Y539236D01*
X237227Y539215D01*
X237150Y539177D01*
X237069Y539148D01*
X236996Y539100D01*
X236917Y539061D01*
X236851Y539006D01*
X236779Y538959D01*
X236719Y538896D01*
X236652Y538840D01*
X236600Y538771D01*
X236541Y538709D01*
X236496Y538633D01*
X236444Y538563D01*
X236380Y538435D01*
X236366Y538411D01*
X236362Y538399D01*
X236353Y538380D01*
X233780Y535807D01*
X230419Y534415D01*
X211541Y534415D01*
X208180Y535807D01*
X206244Y537743D01*
X206162Y537808D01*
X206087Y537880D01*
X206027Y537915D01*
X205973Y537958D01*
X205879Y538002D01*
X205789Y538055D01*
X205723Y538075D01*
X205660Y538105D01*
X205558Y538126D01*
X205458Y538157D01*
X205389Y538162D01*
X205322Y538176D01*
X205218Y538174D01*
X205113Y538181D01*
X205045Y538170D01*
X204976Y538168D01*
X204875Y538142D01*
X204772Y538125D01*
X204708Y538098D01*
X204642Y538081D01*
X204549Y538032D01*
X204453Y537992D01*
X204397Y537952D01*
X204336Y537919D01*
X204257Y537851D01*
X204173Y537790D01*
X204127Y537738D01*
X204075Y537692D01*
X204014Y537608D01*
X203946Y537529D01*
X203914Y537467D01*
X203873Y537411D01*
X203834Y537315D01*
X203785Y537223D01*
X203768Y537156D01*
X203742Y537092D01*
X203725Y536989D01*
X203699Y536888D01*
X203692Y536784D01*
X203686Y536751D01*
X203688Y536728D01*
X203685Y536683D01*
X203685Y525037D01*
X203697Y524933D01*
X203699Y524829D01*
X203717Y524762D01*
X203725Y524693D01*
X203760Y524595D01*
X203786Y524494D01*
X203819Y524433D01*
X203842Y524368D01*
X203899Y524281D01*
X203948Y524189D01*
X203993Y524137D01*
X204031Y524079D01*
X204106Y524007D01*
X204175Y523928D01*
X204231Y523888D01*
X204281Y523840D01*
X204371Y523787D01*
X204456Y523726D01*
X204520Y523700D01*
X204579Y523665D01*
X204679Y523634D01*
X204775Y523594D01*
X204844Y523583D01*
X204910Y523563D01*
X205014Y523556D01*
X205117Y523539D01*
X205186Y523544D01*
X205255Y523539D01*
X205357Y523556D01*
X205462Y523563D01*
X205528Y523584D01*
X205596Y523595D01*
X205692Y523635D01*
X205792Y523666D01*
X205851Y523701D01*
X205915Y523728D01*
X206000Y523789D01*
X206089Y523842D01*
X206168Y523910D01*
X206195Y523930D01*
X206210Y523947D01*
X206244Y523977D01*
X208180Y525913D01*
X211541Y527305D01*
X230419Y527305D01*
X233780Y525913D01*
X236353Y523340D01*
X237745Y519979D01*
X237745Y516341D01*
X236353Y512980D01*
X234417Y511044D01*
X234352Y510962D01*
X234280Y510887D01*
X234245Y510827D01*
X234202Y510773D01*
X234158Y510679D01*
X234105Y510589D01*
X234085Y510523D01*
X234055Y510460D01*
X234034Y510358D01*
X234003Y510258D01*
X233998Y510189D01*
X233984Y510122D01*
X233986Y510018D01*
X233979Y509913D01*
X233990Y509845D01*
X233992Y509776D01*
X234018Y509675D01*
X234035Y509572D01*
X234062Y509508D01*
X234079Y509442D01*
X234128Y509349D01*
X234168Y509253D01*
X234208Y509197D01*
X234241Y509136D01*
X234309Y509057D01*
X234370Y508973D01*
X234422Y508927D01*
X234468Y508875D01*
X234552Y508814D01*
X234631Y508746D01*
X234693Y508714D01*
X234749Y508673D01*
X234845Y508634D01*
X234937Y508585D01*
X235004Y508568D01*
X235068Y508542D01*
X235171Y508525D01*
X235272Y508499D01*
X235376Y508492D01*
X235409Y508486D01*
X235432Y508488D01*
X235477Y508485D01*
X264716Y508485D01*
X264751Y508489D01*
G37*
G36*
X431588Y499865D02*
X431588Y499865D01*
X431728Y499875D01*
X431760Y499885D01*
X431794Y499889D01*
X431924Y499936D01*
X432058Y499977D01*
X432087Y499995D01*
X432119Y500006D01*
X432236Y500082D01*
X432356Y500153D01*
X432390Y500183D01*
X432408Y500195D01*
X432432Y500219D01*
X432510Y500288D01*
X438448Y506226D01*
X438513Y506308D01*
X438585Y506383D01*
X438620Y506443D01*
X438663Y506497D01*
X438707Y506591D01*
X438760Y506681D01*
X438780Y506747D01*
X438810Y506810D01*
X438831Y506912D01*
X438862Y507012D01*
X438867Y507081D01*
X438881Y507148D01*
X438879Y507252D01*
X438886Y507357D01*
X438875Y507425D01*
X438873Y507494D01*
X438847Y507595D01*
X438830Y507698D01*
X438803Y507762D01*
X438786Y507828D01*
X438737Y507921D01*
X438697Y508017D01*
X438657Y508073D01*
X438624Y508134D01*
X438556Y508213D01*
X438495Y508297D01*
X438443Y508343D01*
X438397Y508395D01*
X438313Y508456D01*
X438234Y508524D01*
X438173Y508556D01*
X438116Y508597D01*
X438020Y508636D01*
X437928Y508685D01*
X437861Y508702D01*
X437797Y508728D01*
X437694Y508745D01*
X437593Y508771D01*
X437489Y508778D01*
X437456Y508784D01*
X437433Y508782D01*
X437388Y508785D01*
X413989Y508785D01*
X406808Y515966D01*
X406699Y516053D01*
X406594Y516144D01*
X406564Y516160D01*
X406537Y516181D01*
X406411Y516240D01*
X406288Y516305D01*
X406255Y516313D01*
X406224Y516328D01*
X406088Y516356D01*
X405953Y516391D01*
X405908Y516394D01*
X405886Y516399D01*
X405852Y516398D01*
X405748Y516405D01*
X404264Y516405D01*
X404229Y516401D01*
X404193Y516404D01*
X404057Y516381D01*
X403921Y516365D01*
X403887Y516353D01*
X403852Y516348D01*
X403725Y516295D01*
X403595Y516248D01*
X403566Y516229D01*
X403533Y516215D01*
X403421Y516134D01*
X403306Y516059D01*
X403281Y516033D01*
X403253Y516013D01*
X403162Y515909D01*
X403067Y515809D01*
X403049Y515778D01*
X403026Y515752D01*
X402962Y515629D01*
X402892Y515511D01*
X402882Y515477D01*
X402865Y515445D01*
X402831Y515312D01*
X402790Y515180D01*
X402788Y515145D01*
X402779Y515111D01*
X402765Y514906D01*
X402765Y506048D01*
X401872Y505155D01*
X390608Y505155D01*
X389711Y506052D01*
X389714Y506087D01*
X389691Y506223D01*
X389675Y506359D01*
X389663Y506393D01*
X389658Y506428D01*
X389605Y506555D01*
X389558Y506685D01*
X389539Y506714D01*
X389525Y506747D01*
X389444Y506859D01*
X389369Y506974D01*
X389343Y506999D01*
X389323Y507027D01*
X389219Y507118D01*
X389119Y507213D01*
X389088Y507231D01*
X389062Y507254D01*
X388939Y507318D01*
X388821Y507388D01*
X388787Y507398D01*
X388755Y507415D01*
X388622Y507449D01*
X388490Y507490D01*
X388455Y507492D01*
X388421Y507501D01*
X388216Y507515D01*
X364442Y507515D01*
X364304Y507499D01*
X364164Y507489D01*
X364132Y507479D01*
X364098Y507475D01*
X363968Y507428D01*
X363834Y507387D01*
X363805Y507369D01*
X363773Y507358D01*
X363656Y507282D01*
X363536Y507211D01*
X363502Y507181D01*
X363484Y507169D01*
X363460Y507145D01*
X363382Y507076D01*
X360533Y504227D01*
X358714Y502408D01*
X358649Y502326D01*
X358577Y502251D01*
X358542Y502191D01*
X358499Y502137D01*
X358455Y502043D01*
X358402Y501953D01*
X358382Y501887D01*
X358352Y501824D01*
X358331Y501722D01*
X358300Y501622D01*
X358295Y501553D01*
X358281Y501486D01*
X358283Y501382D01*
X358276Y501277D01*
X358287Y501209D01*
X358289Y501140D01*
X358315Y501039D01*
X358332Y500936D01*
X358359Y500872D01*
X358376Y500806D01*
X358425Y500713D01*
X358465Y500617D01*
X358505Y500561D01*
X358538Y500500D01*
X358606Y500421D01*
X358667Y500337D01*
X358719Y500291D01*
X358765Y500239D01*
X358849Y500178D01*
X358928Y500110D01*
X358990Y500078D01*
X359046Y500037D01*
X359142Y499998D01*
X359234Y499949D01*
X359301Y499932D01*
X359365Y499906D01*
X359468Y499889D01*
X359569Y499863D01*
X359673Y499856D01*
X359706Y499850D01*
X359729Y499852D01*
X359774Y499849D01*
X431450Y499849D01*
X431588Y499865D01*
G37*
G36*
X338719Y621343D02*
X338719Y621343D01*
X338755Y621340D01*
X338891Y621363D01*
X339027Y621379D01*
X339061Y621391D01*
X339096Y621396D01*
X339223Y621449D01*
X339353Y621496D01*
X339382Y621515D01*
X339415Y621529D01*
X339527Y621610D01*
X339642Y621685D01*
X339667Y621711D01*
X339695Y621731D01*
X339786Y621835D01*
X339881Y621935D01*
X339899Y621966D01*
X339922Y621992D01*
X339986Y622115D01*
X340056Y622233D01*
X340066Y622267D01*
X340083Y622299D01*
X340117Y622432D01*
X340158Y622564D01*
X340160Y622599D01*
X340169Y622633D01*
X340183Y622838D01*
X340183Y626743D01*
X340167Y626881D01*
X340157Y627020D01*
X340147Y627052D01*
X340143Y627086D01*
X340096Y627217D01*
X340055Y627350D01*
X340037Y627379D01*
X340026Y627411D01*
X339950Y627528D01*
X339879Y627648D01*
X339849Y627682D01*
X339837Y627701D01*
X339813Y627724D01*
X339744Y627803D01*
X339613Y627933D01*
X338772Y629964D01*
X338772Y632162D01*
X339613Y634193D01*
X349318Y643897D01*
X349405Y644006D01*
X349496Y644112D01*
X349512Y644142D01*
X349533Y644168D01*
X349592Y644294D01*
X349657Y644418D01*
X349665Y644451D01*
X349680Y644481D01*
X349708Y644618D01*
X349743Y644753D01*
X349746Y644798D01*
X349751Y644820D01*
X349750Y644853D01*
X349757Y644957D01*
X349757Y648503D01*
X350862Y651170D01*
X350886Y651254D01*
X350919Y651335D01*
X350933Y651420D01*
X350956Y651502D01*
X350960Y651590D01*
X350974Y651676D01*
X350968Y651762D01*
X350972Y651848D01*
X350956Y651934D01*
X350950Y652021D01*
X350925Y652103D01*
X350909Y652187D01*
X350873Y652268D01*
X350847Y652351D01*
X350804Y652425D01*
X350769Y652504D01*
X350716Y652573D01*
X350672Y652649D01*
X350577Y652757D01*
X350560Y652779D01*
X350551Y652787D01*
X350537Y652804D01*
X349452Y653888D01*
X349343Y653975D01*
X349238Y654066D01*
X349208Y654082D01*
X349181Y654103D01*
X349055Y654162D01*
X348932Y654227D01*
X348899Y654235D01*
X348868Y654250D01*
X348732Y654278D01*
X348597Y654313D01*
X348552Y654316D01*
X348530Y654321D01*
X348496Y654320D01*
X348392Y654327D01*
X336392Y654327D01*
X336254Y654311D01*
X336114Y654301D01*
X336082Y654291D01*
X336048Y654287D01*
X335918Y654240D01*
X335784Y654199D01*
X335755Y654181D01*
X335723Y654170D01*
X335606Y654094D01*
X335486Y654023D01*
X335452Y653993D01*
X335434Y653981D01*
X335410Y653957D01*
X335332Y653888D01*
X329472Y648028D01*
X329385Y647919D01*
X329294Y647814D01*
X329278Y647784D01*
X329257Y647757D01*
X329198Y647631D01*
X329133Y647508D01*
X329125Y647475D01*
X329110Y647444D01*
X329082Y647308D01*
X329047Y647173D01*
X329044Y647128D01*
X329039Y647106D01*
X329040Y647072D01*
X329033Y646968D01*
X329033Y643024D01*
X329037Y642989D01*
X329034Y642953D01*
X329057Y642817D01*
X329073Y642681D01*
X329085Y642647D01*
X329090Y642612D01*
X329143Y642485D01*
X329190Y642355D01*
X329209Y642326D01*
X329223Y642293D01*
X329304Y642181D01*
X329379Y642066D01*
X329405Y642041D01*
X329425Y642013D01*
X329529Y641922D01*
X329629Y641827D01*
X329660Y641809D01*
X329686Y641786D01*
X329809Y641722D01*
X329927Y641652D01*
X329961Y641642D01*
X329993Y641625D01*
X330126Y641591D01*
X330258Y641550D01*
X330293Y641548D01*
X330327Y641539D01*
X330532Y641525D01*
X331390Y641525D01*
X332283Y640632D01*
X332283Y633624D01*
X332299Y633486D01*
X332309Y633346D01*
X332319Y633314D01*
X332323Y633280D01*
X332370Y633149D01*
X332411Y633016D01*
X332429Y632987D01*
X332440Y632955D01*
X332516Y632838D01*
X332587Y632718D01*
X332617Y632684D01*
X332629Y632666D01*
X332653Y632642D01*
X332722Y632564D01*
X334495Y630791D01*
X334495Y622838D01*
X334499Y622803D01*
X334496Y622767D01*
X334519Y622631D01*
X334535Y622495D01*
X334547Y622461D01*
X334552Y622426D01*
X334605Y622299D01*
X334652Y622169D01*
X334671Y622140D01*
X334685Y622107D01*
X334766Y621995D01*
X334841Y621880D01*
X334867Y621855D01*
X334887Y621827D01*
X334991Y621736D01*
X335091Y621641D01*
X335122Y621623D01*
X335148Y621600D01*
X335271Y621536D01*
X335389Y621466D01*
X335423Y621456D01*
X335455Y621439D01*
X335588Y621405D01*
X335720Y621364D01*
X335755Y621362D01*
X335789Y621353D01*
X335994Y621339D01*
X338684Y621339D01*
X338719Y621343D01*
G37*
G36*
X271122Y480557D02*
X271122Y480557D01*
X271226Y480559D01*
X271293Y480577D01*
X271362Y480585D01*
X271460Y480620D01*
X271561Y480646D01*
X271622Y480679D01*
X271687Y480702D01*
X271774Y480759D01*
X271866Y480808D01*
X271918Y480853D01*
X271976Y480891D01*
X272048Y480966D01*
X272127Y481035D01*
X272167Y481091D01*
X272215Y481141D01*
X272268Y481231D01*
X272329Y481316D01*
X272355Y481380D01*
X272390Y481439D01*
X272421Y481539D01*
X272461Y481635D01*
X272472Y481704D01*
X272492Y481770D01*
X272499Y481874D01*
X272516Y481977D01*
X272511Y482046D01*
X272516Y482115D01*
X272499Y482217D01*
X272492Y482322D01*
X272471Y482388D01*
X272460Y482456D01*
X272420Y482552D01*
X272389Y482652D01*
X272354Y482711D01*
X272327Y482775D01*
X272266Y482860D01*
X272213Y482949D01*
X272145Y483028D01*
X272125Y483055D01*
X272108Y483070D01*
X272078Y483104D01*
X266353Y488830D01*
X266325Y488852D01*
X266302Y488878D01*
X266190Y488959D01*
X266082Y489044D01*
X266050Y489059D01*
X266021Y489080D01*
X265894Y489133D01*
X265769Y489191D01*
X265734Y489198D01*
X265701Y489212D01*
X265565Y489234D01*
X265431Y489262D01*
X265395Y489261D01*
X265360Y489267D01*
X265223Y489257D01*
X265085Y489254D01*
X265051Y489245D01*
X265015Y489243D01*
X264884Y489202D01*
X264750Y489167D01*
X264719Y489151D01*
X264685Y489140D01*
X264566Y489070D01*
X264445Y489006D01*
X264418Y488982D01*
X264387Y488964D01*
X264233Y488830D01*
X263479Y488076D01*
X261449Y487235D01*
X236629Y487235D01*
X236491Y487219D01*
X236351Y487209D01*
X236319Y487199D01*
X236285Y487195D01*
X236154Y487148D01*
X236021Y487107D01*
X235992Y487089D01*
X235960Y487078D01*
X235843Y487002D01*
X235723Y486931D01*
X235689Y486901D01*
X235671Y486889D01*
X235647Y486865D01*
X235569Y486796D01*
X233780Y485007D01*
X230419Y483615D01*
X211541Y483615D01*
X208180Y485007D01*
X207514Y485673D01*
X207432Y485738D01*
X207357Y485810D01*
X207297Y485845D01*
X207243Y485888D01*
X207148Y485932D01*
X207059Y485985D01*
X206993Y486005D01*
X206930Y486035D01*
X206828Y486056D01*
X206728Y486087D01*
X206659Y486092D01*
X206592Y486106D01*
X206488Y486104D01*
X206383Y486111D01*
X206315Y486100D01*
X206246Y486098D01*
X206145Y486072D01*
X206042Y486055D01*
X205979Y486028D01*
X205912Y486011D01*
X205819Y485962D01*
X205723Y485922D01*
X205667Y485882D01*
X205606Y485849D01*
X205527Y485781D01*
X205443Y485720D01*
X205397Y485668D01*
X205345Y485622D01*
X205284Y485538D01*
X205216Y485459D01*
X205184Y485397D01*
X205143Y485341D01*
X205104Y485245D01*
X205055Y485153D01*
X205038Y485086D01*
X205012Y485022D01*
X204995Y484919D01*
X204969Y484818D01*
X204962Y484714D01*
X204956Y484681D01*
X204958Y484658D01*
X204955Y484613D01*
X204955Y484474D01*
X204971Y484336D01*
X204981Y484196D01*
X204991Y484164D01*
X204995Y484130D01*
X205042Y484000D01*
X205083Y483866D01*
X205101Y483837D01*
X205112Y483805D01*
X205188Y483688D01*
X205259Y483568D01*
X205289Y483534D01*
X205301Y483516D01*
X205325Y483492D01*
X205394Y483414D01*
X207824Y480984D01*
X207933Y480897D01*
X208038Y480806D01*
X208068Y480790D01*
X208095Y480769D01*
X208221Y480710D01*
X208344Y480645D01*
X208377Y480637D01*
X208408Y480622D01*
X208544Y480594D01*
X208679Y480559D01*
X208724Y480556D01*
X208746Y480551D01*
X208780Y480552D01*
X208884Y480545D01*
X271018Y480545D01*
X271122Y480557D01*
G37*
G36*
X309813Y530897D02*
X309813Y530897D01*
X309882Y530899D01*
X309983Y530925D01*
X310086Y530942D01*
X310149Y530969D01*
X310216Y530986D01*
X310309Y531035D01*
X310405Y531075D01*
X310461Y531115D01*
X310522Y531148D01*
X310601Y531216D01*
X310685Y531277D01*
X310731Y531329D01*
X310783Y531375D01*
X310844Y531459D01*
X310912Y531538D01*
X310944Y531600D01*
X310985Y531656D01*
X311024Y531752D01*
X311073Y531844D01*
X311090Y531911D01*
X311116Y531975D01*
X311133Y532078D01*
X311159Y532179D01*
X311166Y532283D01*
X311172Y532316D01*
X311170Y532339D01*
X311173Y532384D01*
X311173Y573326D01*
X311169Y573361D01*
X311172Y573397D01*
X311149Y573533D01*
X311133Y573669D01*
X311121Y573703D01*
X311116Y573738D01*
X311063Y573865D01*
X311016Y573995D01*
X310997Y574024D01*
X310983Y574057D01*
X310902Y574169D01*
X310827Y574284D01*
X310801Y574309D01*
X310781Y574337D01*
X310677Y574428D01*
X310577Y574523D01*
X310546Y574541D01*
X310520Y574564D01*
X310397Y574628D01*
X310279Y574698D01*
X310245Y574708D01*
X310213Y574725D01*
X310080Y574759D01*
X309948Y574800D01*
X309913Y574802D01*
X309879Y574811D01*
X309674Y574825D01*
X307221Y574825D01*
X307117Y574813D01*
X307013Y574811D01*
X306946Y574793D01*
X306877Y574785D01*
X306779Y574750D01*
X306678Y574724D01*
X306617Y574691D01*
X306552Y574668D01*
X306465Y574611D01*
X306372Y574562D01*
X306320Y574517D01*
X306262Y574479D01*
X306190Y574404D01*
X306112Y574335D01*
X306071Y574279D01*
X306024Y574229D01*
X305971Y574139D01*
X305910Y574054D01*
X305884Y573990D01*
X305849Y573931D01*
X305818Y573831D01*
X305778Y573735D01*
X305767Y573666D01*
X305747Y573600D01*
X305739Y573496D01*
X305723Y573393D01*
X305728Y573324D01*
X305723Y573255D01*
X305740Y573153D01*
X305747Y573048D01*
X305768Y572982D01*
X305779Y572914D01*
X305819Y572818D01*
X305850Y572718D01*
X305885Y572659D01*
X305912Y572595D01*
X305973Y572510D01*
X306026Y572421D01*
X306094Y572342D01*
X306114Y572315D01*
X306131Y572300D01*
X306160Y572266D01*
X306375Y572052D01*
X306375Y560788D01*
X305482Y559895D01*
X303584Y559895D01*
X303549Y559891D01*
X303513Y559894D01*
X303377Y559871D01*
X303241Y559855D01*
X303207Y559843D01*
X303172Y559838D01*
X303045Y559785D01*
X302915Y559738D01*
X302886Y559719D01*
X302853Y559705D01*
X302741Y559624D01*
X302626Y559549D01*
X302601Y559523D01*
X302573Y559503D01*
X302482Y559399D01*
X302387Y559299D01*
X302369Y559268D01*
X302346Y559242D01*
X302282Y559119D01*
X302212Y559001D01*
X302202Y558967D01*
X302185Y558935D01*
X302151Y558802D01*
X302110Y558670D01*
X302108Y558635D01*
X302099Y558601D01*
X302085Y558396D01*
X302085Y553383D01*
X302101Y553244D01*
X302111Y553105D01*
X302121Y553073D01*
X302125Y553039D01*
X302172Y552908D01*
X302213Y552775D01*
X302231Y552746D01*
X302242Y552714D01*
X302318Y552597D01*
X302389Y552477D01*
X302419Y552443D01*
X302431Y552424D01*
X302455Y552401D01*
X302500Y552350D01*
X302503Y552345D01*
X302507Y552342D01*
X302524Y552322D01*
X303585Y551262D01*
X303585Y537922D01*
X303572Y537904D01*
X303519Y537776D01*
X303461Y537652D01*
X303453Y537617D01*
X303440Y537584D01*
X303418Y537448D01*
X303389Y537313D01*
X303390Y537278D01*
X303384Y537243D01*
X303394Y537105D01*
X303397Y536968D01*
X303406Y536933D01*
X303409Y536898D01*
X303450Y536766D01*
X303485Y536633D01*
X303501Y536602D01*
X303512Y536568D01*
X303582Y536449D01*
X303646Y536327D01*
X303669Y536301D01*
X303687Y536270D01*
X303822Y536116D01*
X307646Y532292D01*
X308614Y531324D01*
X308696Y531259D01*
X308771Y531187D01*
X308831Y531152D01*
X308885Y531109D01*
X308980Y531065D01*
X309069Y531012D01*
X309135Y530992D01*
X309198Y530962D01*
X309300Y530941D01*
X309400Y530910D01*
X309469Y530905D01*
X309536Y530891D01*
X309640Y530893D01*
X309745Y530886D01*
X309813Y530897D01*
G37*
G36*
X360022Y513577D02*
X360022Y513577D01*
X360126Y513579D01*
X360193Y513597D01*
X360262Y513605D01*
X360360Y513640D01*
X360461Y513666D01*
X360522Y513699D01*
X360587Y513722D01*
X360674Y513779D01*
X360766Y513828D01*
X360818Y513873D01*
X360876Y513911D01*
X360948Y513986D01*
X361027Y514055D01*
X361067Y514111D01*
X361115Y514161D01*
X361168Y514251D01*
X361229Y514336D01*
X361255Y514400D01*
X361290Y514459D01*
X361321Y514559D01*
X361361Y514655D01*
X361372Y514724D01*
X361392Y514790D01*
X361399Y514894D01*
X361416Y514997D01*
X361411Y515066D01*
X361416Y515135D01*
X361399Y515237D01*
X361392Y515342D01*
X361371Y515408D01*
X361360Y515476D01*
X361320Y515572D01*
X361289Y515672D01*
X361254Y515731D01*
X361227Y515795D01*
X361166Y515880D01*
X361113Y515969D01*
X361045Y516048D01*
X361025Y516075D01*
X361008Y516090D01*
X360978Y516124D01*
X358486Y518616D01*
X346225Y530877D01*
X346225Y563276D01*
X346209Y563414D01*
X346199Y563554D01*
X346189Y563586D01*
X346185Y563620D01*
X346138Y563750D01*
X346097Y563884D01*
X346079Y563913D01*
X346068Y563945D01*
X345992Y564061D01*
X345921Y564182D01*
X345891Y564216D01*
X345879Y564234D01*
X345855Y564258D01*
X345786Y564336D01*
X345584Y564538D01*
X345502Y564603D01*
X345427Y564675D01*
X345367Y564710D01*
X345313Y564753D01*
X345219Y564797D01*
X345129Y564850D01*
X345063Y564870D01*
X345000Y564900D01*
X344898Y564921D01*
X344798Y564952D01*
X344729Y564957D01*
X344662Y564971D01*
X344558Y564969D01*
X344453Y564976D01*
X344385Y564965D01*
X344316Y564963D01*
X344215Y564937D01*
X344112Y564920D01*
X344048Y564893D01*
X343982Y564876D01*
X343889Y564827D01*
X343793Y564787D01*
X343737Y564747D01*
X343676Y564714D01*
X343597Y564646D01*
X343513Y564585D01*
X343467Y564533D01*
X343415Y564487D01*
X343354Y564403D01*
X343286Y564324D01*
X343254Y564263D01*
X343213Y564206D01*
X343174Y564110D01*
X343125Y564018D01*
X343108Y563951D01*
X343081Y563887D01*
X343065Y563784D01*
X343039Y563683D01*
X343032Y563579D01*
X343026Y563546D01*
X343028Y563523D01*
X343025Y563478D01*
X343025Y557298D01*
X342716Y556990D01*
X342694Y556962D01*
X342668Y556939D01*
X342587Y556827D01*
X342502Y556719D01*
X342487Y556687D01*
X342466Y556658D01*
X342413Y556531D01*
X342355Y556406D01*
X342348Y556371D01*
X342334Y556339D01*
X342312Y556202D01*
X342284Y556068D01*
X342284Y556032D01*
X342279Y555997D01*
X342289Y555860D01*
X342292Y555722D01*
X342301Y555688D01*
X342303Y555652D01*
X342344Y555521D01*
X342379Y555388D01*
X342395Y555356D01*
X342406Y555322D01*
X342476Y555204D01*
X342540Y555082D01*
X342564Y555055D01*
X342582Y555024D01*
X342716Y554870D01*
X343025Y554562D01*
X343025Y547798D01*
X342716Y547490D01*
X342694Y547462D01*
X342668Y547439D01*
X342587Y547327D01*
X342502Y547219D01*
X342487Y547187D01*
X342466Y547158D01*
X342413Y547031D01*
X342355Y546906D01*
X342348Y546871D01*
X342334Y546839D01*
X342312Y546702D01*
X342284Y546568D01*
X342284Y546532D01*
X342279Y546497D01*
X342289Y546360D01*
X342292Y546222D01*
X342301Y546188D01*
X342303Y546152D01*
X342344Y546021D01*
X342379Y545888D01*
X342395Y545856D01*
X342406Y545822D01*
X342476Y545704D01*
X342540Y545582D01*
X342564Y545555D01*
X342582Y545524D01*
X342716Y545370D01*
X343025Y545062D01*
X343025Y538298D01*
X342132Y537405D01*
X340774Y537405D01*
X340739Y537401D01*
X340703Y537404D01*
X340567Y537381D01*
X340431Y537365D01*
X340397Y537353D01*
X340362Y537348D01*
X340235Y537295D01*
X340105Y537248D01*
X340076Y537229D01*
X340043Y537215D01*
X339931Y537134D01*
X339816Y537059D01*
X339791Y537033D01*
X339763Y537013D01*
X339672Y536909D01*
X339577Y536809D01*
X339559Y536778D01*
X339536Y536752D01*
X339472Y536629D01*
X339402Y536511D01*
X339392Y536477D01*
X339375Y536445D01*
X339341Y536312D01*
X339300Y536180D01*
X339298Y536145D01*
X339289Y536111D01*
X339275Y535906D01*
X339275Y533034D01*
X339291Y532896D01*
X339301Y532756D01*
X339311Y532724D01*
X339315Y532690D01*
X339362Y532560D01*
X339403Y532426D01*
X339421Y532397D01*
X339432Y532365D01*
X339508Y532248D01*
X339579Y532128D01*
X339609Y532094D01*
X339621Y532076D01*
X339645Y532052D01*
X339714Y531974D01*
X357684Y514004D01*
X357793Y513917D01*
X357898Y513826D01*
X357928Y513810D01*
X357955Y513789D01*
X358081Y513730D01*
X358204Y513665D01*
X358237Y513657D01*
X358268Y513642D01*
X358404Y513614D01*
X358539Y513579D01*
X358584Y513576D01*
X358606Y513571D01*
X358640Y513572D01*
X358744Y513565D01*
X359918Y513565D01*
X360022Y513577D01*
G37*
G36*
X323296Y551719D02*
X323296Y551719D01*
X323365Y551714D01*
X323467Y551731D01*
X323572Y551738D01*
X323638Y551759D01*
X323706Y551770D01*
X323802Y551810D01*
X323902Y551841D01*
X323961Y551876D01*
X324025Y551903D01*
X324110Y551964D01*
X324199Y552017D01*
X324278Y552085D01*
X324305Y552105D01*
X324320Y552122D01*
X324354Y552152D01*
X326407Y554205D01*
X328497Y554205D01*
X328636Y554221D01*
X328775Y554231D01*
X328807Y554241D01*
X328841Y554245D01*
X328972Y554292D01*
X329105Y554333D01*
X329134Y554351D01*
X329166Y554362D01*
X329283Y554438D01*
X329403Y554509D01*
X329437Y554539D01*
X329456Y554551D01*
X329479Y554575D01*
X329558Y554644D01*
X329784Y554870D01*
X329806Y554898D01*
X329832Y554921D01*
X329913Y555033D01*
X329998Y555141D01*
X330013Y555173D01*
X330034Y555202D01*
X330087Y555329D01*
X330145Y555454D01*
X330152Y555489D01*
X330166Y555521D01*
X330188Y555658D01*
X330216Y555792D01*
X330216Y555828D01*
X330221Y555863D01*
X330211Y556000D01*
X330208Y556138D01*
X330199Y556172D01*
X330197Y556208D01*
X330156Y556339D01*
X330121Y556472D01*
X330105Y556504D01*
X330094Y556538D01*
X330024Y556657D01*
X329960Y556778D01*
X329936Y556805D01*
X329918Y556835D01*
X329784Y556990D01*
X329475Y557298D01*
X329475Y564062D01*
X330368Y564955D01*
X331726Y564955D01*
X331761Y564959D01*
X331797Y564956D01*
X331933Y564979D01*
X332069Y564995D01*
X332103Y565007D01*
X332138Y565012D01*
X332265Y565065D01*
X332395Y565112D01*
X332424Y565131D01*
X332457Y565145D01*
X332569Y565226D01*
X332684Y565301D01*
X332709Y565327D01*
X332737Y565347D01*
X332828Y565451D01*
X332923Y565551D01*
X332941Y565582D01*
X332964Y565608D01*
X333028Y565731D01*
X333098Y565849D01*
X333108Y565883D01*
X333125Y565915D01*
X333159Y566048D01*
X333200Y566180D01*
X333202Y566215D01*
X333211Y566249D01*
X333225Y566454D01*
X333225Y569913D01*
X334356Y571044D01*
X336848Y573536D01*
X336913Y573618D01*
X336985Y573693D01*
X337020Y573753D01*
X337063Y573807D01*
X337107Y573901D01*
X337160Y573991D01*
X337180Y574057D01*
X337210Y574120D01*
X337231Y574222D01*
X337262Y574322D01*
X337267Y574391D01*
X337281Y574458D01*
X337279Y574562D01*
X337286Y574667D01*
X337275Y574735D01*
X337273Y574804D01*
X337247Y574905D01*
X337230Y575008D01*
X337203Y575072D01*
X337186Y575138D01*
X337137Y575231D01*
X337097Y575327D01*
X337057Y575383D01*
X337024Y575444D01*
X336956Y575523D01*
X336895Y575607D01*
X336843Y575653D01*
X336797Y575705D01*
X336713Y575766D01*
X336634Y575834D01*
X336572Y575866D01*
X336516Y575907D01*
X336420Y575946D01*
X336328Y575995D01*
X336261Y576012D01*
X336197Y576038D01*
X336094Y576055D01*
X335993Y576081D01*
X335889Y576088D01*
X335856Y576094D01*
X335833Y576092D01*
X335788Y576095D01*
X326994Y576095D01*
X326856Y576079D01*
X326716Y576069D01*
X326684Y576059D01*
X326650Y576055D01*
X326520Y576008D01*
X326386Y575967D01*
X326357Y575949D01*
X326325Y575938D01*
X326208Y575862D01*
X326088Y575791D01*
X326054Y575761D01*
X326036Y575749D01*
X326012Y575725D01*
X325934Y575656D01*
X322234Y571956D01*
X322147Y571847D01*
X322056Y571742D01*
X322040Y571712D01*
X322019Y571685D01*
X321960Y571559D01*
X321895Y571436D01*
X321887Y571403D01*
X321872Y571372D01*
X321844Y571236D01*
X321809Y571101D01*
X321806Y571056D01*
X321801Y571034D01*
X321802Y571000D01*
X321795Y570896D01*
X321795Y553212D01*
X321807Y553108D01*
X321809Y553004D01*
X321827Y552937D01*
X321835Y552868D01*
X321870Y552770D01*
X321896Y552669D01*
X321929Y552608D01*
X321952Y552543D01*
X322009Y552456D01*
X322058Y552364D01*
X322103Y552312D01*
X322141Y552254D01*
X322216Y552182D01*
X322285Y552103D01*
X322341Y552063D01*
X322391Y552015D01*
X322481Y551962D01*
X322566Y551901D01*
X322630Y551875D01*
X322689Y551840D01*
X322789Y551809D01*
X322885Y551769D01*
X322954Y551758D01*
X323020Y551738D01*
X323124Y551731D01*
X323227Y551714D01*
X323296Y551719D01*
G37*
G36*
X349944Y504835D02*
X349944Y504835D01*
X350084Y504845D01*
X350116Y504855D01*
X350150Y504859D01*
X350280Y504906D01*
X350414Y504947D01*
X350443Y504965D01*
X350475Y504976D01*
X350592Y505052D01*
X350712Y505123D01*
X350746Y505153D01*
X350764Y505165D01*
X350788Y505189D01*
X350866Y505258D01*
X351882Y506274D01*
X352009Y506401D01*
X352096Y506510D01*
X352187Y506615D01*
X352203Y506645D01*
X352224Y506672D01*
X352283Y506798D01*
X352348Y506921D01*
X352356Y506954D01*
X352371Y506985D01*
X352399Y507121D01*
X352434Y507256D01*
X352437Y507301D01*
X352442Y507323D01*
X352441Y507357D01*
X352448Y507461D01*
X352448Y510063D01*
X352432Y510201D01*
X352422Y510341D01*
X352412Y510373D01*
X352408Y510407D01*
X352361Y510537D01*
X352320Y510671D01*
X352302Y510700D01*
X352291Y510732D01*
X352215Y510849D01*
X352144Y510969D01*
X352114Y511003D01*
X352102Y511021D01*
X352078Y511045D01*
X352009Y511123D01*
X344070Y519062D01*
X343988Y519127D01*
X343913Y519199D01*
X343853Y519234D01*
X343799Y519277D01*
X343705Y519321D01*
X343615Y519374D01*
X343549Y519394D01*
X343486Y519424D01*
X343384Y519445D01*
X343284Y519476D01*
X343215Y519481D01*
X343148Y519495D01*
X343044Y519493D01*
X342939Y519500D01*
X342871Y519489D01*
X342802Y519487D01*
X342701Y519461D01*
X342598Y519444D01*
X342534Y519417D01*
X342468Y519400D01*
X342375Y519351D01*
X342279Y519311D01*
X342223Y519271D01*
X342162Y519238D01*
X342083Y519170D01*
X341999Y519109D01*
X341953Y519057D01*
X341901Y519011D01*
X341840Y518927D01*
X341772Y518848D01*
X341740Y518787D01*
X341699Y518730D01*
X341660Y518634D01*
X341611Y518542D01*
X341594Y518475D01*
X341568Y518411D01*
X341551Y518308D01*
X341525Y518207D01*
X341518Y518103D01*
X341512Y518070D01*
X341514Y518047D01*
X341511Y518002D01*
X341511Y515095D01*
X340137Y511778D01*
X337598Y509239D01*
X334281Y507865D01*
X331168Y507865D01*
X331064Y507853D01*
X330959Y507851D01*
X330893Y507833D01*
X330824Y507825D01*
X330726Y507790D01*
X330625Y507764D01*
X330564Y507731D01*
X330499Y507708D01*
X330412Y507651D01*
X330319Y507602D01*
X330267Y507557D01*
X330210Y507519D01*
X330137Y507443D01*
X330059Y507375D01*
X330018Y507319D01*
X329971Y507269D01*
X329918Y507179D01*
X329857Y507094D01*
X329831Y507030D01*
X329796Y506971D01*
X329765Y506871D01*
X329725Y506774D01*
X329714Y506706D01*
X329694Y506640D01*
X329687Y506536D01*
X329670Y506433D01*
X329675Y506364D01*
X329670Y506295D01*
X329687Y506192D01*
X329695Y506088D01*
X329715Y506022D01*
X329726Y505954D01*
X329766Y505858D01*
X329797Y505758D01*
X329832Y505699D01*
X329859Y505635D01*
X329920Y505550D01*
X329973Y505460D01*
X330041Y505382D01*
X330061Y505355D01*
X330078Y505340D01*
X330108Y505306D01*
X330156Y505258D01*
X330265Y505171D01*
X330370Y505080D01*
X330400Y505064D01*
X330427Y505043D01*
X330553Y504984D01*
X330676Y504919D01*
X330709Y504911D01*
X330740Y504896D01*
X330876Y504868D01*
X331011Y504833D01*
X331057Y504830D01*
X331079Y504825D01*
X331112Y504826D01*
X331216Y504819D01*
X349806Y504819D01*
X349944Y504835D01*
G37*
G36*
X369745Y481055D02*
X369745Y481055D01*
X369832Y481055D01*
X369916Y481075D01*
X370001Y481085D01*
X370084Y481114D01*
X370169Y481134D01*
X370246Y481173D01*
X370327Y481202D01*
X370400Y481250D01*
X370478Y481289D01*
X370544Y481344D01*
X370616Y481391D01*
X370677Y481454D01*
X370744Y481510D01*
X370796Y481579D01*
X370855Y481641D01*
X370899Y481717D01*
X370952Y481787D01*
X371016Y481915D01*
X371030Y481939D01*
X371033Y481951D01*
X371043Y481970D01*
X371317Y482632D01*
X373856Y485171D01*
X376686Y486343D01*
X376731Y486368D01*
X376780Y486386D01*
X376882Y486452D01*
X376988Y486511D01*
X377026Y486546D01*
X377070Y486575D01*
X377153Y486662D01*
X377243Y486744D01*
X377273Y486787D01*
X377309Y486825D01*
X377370Y486929D01*
X377438Y487029D01*
X377457Y487078D01*
X377484Y487123D01*
X377519Y487239D01*
X377563Y487352D01*
X377570Y487404D01*
X377586Y487454D01*
X377594Y487574D01*
X377611Y487694D01*
X377606Y487746D01*
X377609Y487799D01*
X377590Y487918D01*
X377579Y488039D01*
X377562Y488088D01*
X377553Y488140D01*
X377507Y488251D01*
X377468Y488366D01*
X377441Y488411D01*
X377421Y488459D01*
X377350Y488557D01*
X377286Y488660D01*
X377249Y488697D01*
X377219Y488739D01*
X377127Y488819D01*
X377041Y488904D01*
X376997Y488932D01*
X376957Y488966D01*
X376850Y489022D01*
X376747Y489086D01*
X376698Y489103D01*
X376651Y489127D01*
X376534Y489157D01*
X376419Y489195D01*
X376367Y489200D01*
X376317Y489213D01*
X376112Y489227D01*
X356815Y489227D01*
X356711Y489215D01*
X356607Y489213D01*
X356540Y489195D01*
X356472Y489187D01*
X356373Y489152D01*
X356272Y489126D01*
X356211Y489093D01*
X356146Y489070D01*
X356059Y489013D01*
X355967Y488964D01*
X355915Y488919D01*
X355857Y488881D01*
X355785Y488806D01*
X355706Y488737D01*
X355666Y488681D01*
X355618Y488631D01*
X355565Y488541D01*
X355504Y488456D01*
X355478Y488392D01*
X355443Y488333D01*
X355412Y488233D01*
X355372Y488137D01*
X355361Y488068D01*
X355341Y488002D01*
X355334Y487898D01*
X355317Y487795D01*
X355322Y487726D01*
X355317Y487657D01*
X355334Y487555D01*
X355342Y487450D01*
X355362Y487384D01*
X355373Y487316D01*
X355413Y487220D01*
X355444Y487120D01*
X355480Y487061D01*
X355506Y486997D01*
X355567Y486912D01*
X355620Y486823D01*
X355688Y486744D01*
X355708Y486717D01*
X355725Y486702D01*
X355755Y486668D01*
X360939Y481484D01*
X361048Y481397D01*
X361153Y481306D01*
X361183Y481290D01*
X361210Y481269D01*
X361336Y481210D01*
X361460Y481145D01*
X361492Y481137D01*
X361523Y481122D01*
X361659Y481094D01*
X361794Y481059D01*
X361839Y481056D01*
X361861Y481051D01*
X361895Y481052D01*
X361999Y481045D01*
X369658Y481045D01*
X369745Y481055D01*
G37*
G36*
X293581Y550869D02*
X293581Y550869D01*
X293719Y550872D01*
X293753Y550881D01*
X293788Y550884D01*
X293920Y550925D01*
X294053Y550960D01*
X294084Y550976D01*
X294118Y550987D01*
X294237Y551057D01*
X294359Y551121D01*
X294386Y551144D01*
X294416Y551162D01*
X294571Y551297D01*
X295596Y552322D01*
X295667Y552412D01*
X295707Y552454D01*
X295718Y552472D01*
X295774Y552537D01*
X295790Y552567D01*
X295811Y552593D01*
X295870Y552719D01*
X295935Y552843D01*
X295943Y552876D01*
X295958Y552906D01*
X295986Y553043D01*
X296021Y553178D01*
X296024Y553223D01*
X296029Y553245D01*
X296028Y553278D01*
X296035Y553383D01*
X296035Y558396D01*
X296031Y558431D01*
X296034Y558467D01*
X296011Y558603D01*
X295995Y558739D01*
X295983Y558773D01*
X295978Y558808D01*
X295925Y558935D01*
X295878Y559065D01*
X295859Y559094D01*
X295845Y559127D01*
X295764Y559239D01*
X295689Y559354D01*
X295663Y559379D01*
X295643Y559407D01*
X295539Y559498D01*
X295439Y559593D01*
X295408Y559611D01*
X295382Y559634D01*
X295259Y559698D01*
X295141Y559768D01*
X295107Y559778D01*
X295075Y559795D01*
X294942Y559829D01*
X294810Y559870D01*
X294775Y559872D01*
X294741Y559881D01*
X294732Y559882D01*
X293825Y560788D01*
X293825Y572052D01*
X294040Y572266D01*
X294104Y572348D01*
X294176Y572423D01*
X294211Y572483D01*
X294254Y572537D01*
X294299Y572631D01*
X294351Y572721D01*
X294372Y572787D01*
X294401Y572850D01*
X294423Y572952D01*
X294453Y573052D01*
X294458Y573121D01*
X294472Y573188D01*
X294470Y573292D01*
X294477Y573397D01*
X294466Y573465D01*
X294464Y573534D01*
X294438Y573635D01*
X294421Y573738D01*
X294395Y573801D01*
X294377Y573868D01*
X294328Y573961D01*
X294288Y574057D01*
X294248Y574113D01*
X294216Y574174D01*
X294147Y574253D01*
X294086Y574337D01*
X294034Y574383D01*
X293989Y574435D01*
X293904Y574496D01*
X293825Y574564D01*
X293764Y574596D01*
X293708Y574637D01*
X293611Y574676D01*
X293519Y574725D01*
X293452Y574742D01*
X293388Y574768D01*
X293285Y574785D01*
X293184Y574811D01*
X293080Y574818D01*
X293047Y574824D01*
X293024Y574822D01*
X292979Y574825D01*
X291221Y574825D01*
X291117Y574813D01*
X291013Y574811D01*
X290946Y574793D01*
X290877Y574785D01*
X290779Y574750D01*
X290678Y574724D01*
X290617Y574691D01*
X290552Y574668D01*
X290465Y574611D01*
X290372Y574562D01*
X290320Y574517D01*
X290262Y574479D01*
X290190Y574404D01*
X290112Y574335D01*
X290071Y574279D01*
X290024Y574229D01*
X289971Y574139D01*
X289910Y574054D01*
X289884Y573990D01*
X289849Y573931D01*
X289818Y573831D01*
X289778Y573735D01*
X289767Y573666D01*
X289747Y573600D01*
X289739Y573496D01*
X289723Y573393D01*
X289728Y573324D01*
X289723Y573255D01*
X289740Y573153D01*
X289747Y573048D01*
X289768Y572982D01*
X289779Y572914D01*
X289819Y572818D01*
X289850Y572718D01*
X289885Y572659D01*
X289912Y572595D01*
X289973Y572510D01*
X290026Y572421D01*
X290094Y572342D01*
X290114Y572315D01*
X290131Y572300D01*
X290160Y572266D01*
X290375Y572052D01*
X290375Y560788D01*
X289482Y559895D01*
X288624Y559895D01*
X288589Y559891D01*
X288553Y559894D01*
X288417Y559871D01*
X288281Y559855D01*
X288247Y559843D01*
X288212Y559838D01*
X288085Y559785D01*
X287955Y559738D01*
X287926Y559719D01*
X287893Y559705D01*
X287781Y559624D01*
X287666Y559549D01*
X287641Y559523D01*
X287613Y559503D01*
X287522Y559399D01*
X287427Y559299D01*
X287409Y559268D01*
X287386Y559242D01*
X287322Y559119D01*
X287252Y559001D01*
X287242Y558967D01*
X287225Y558935D01*
X287191Y558802D01*
X287150Y558670D01*
X287148Y558635D01*
X287139Y558601D01*
X287125Y558396D01*
X287125Y557244D01*
X287141Y557106D01*
X287151Y556966D01*
X287161Y556934D01*
X287165Y556900D01*
X287212Y556770D01*
X287253Y556636D01*
X287271Y556607D01*
X287282Y556575D01*
X287358Y556458D01*
X287429Y556338D01*
X287459Y556304D01*
X287471Y556286D01*
X287495Y556262D01*
X287564Y556184D01*
X292451Y551297D01*
X292478Y551275D01*
X292502Y551248D01*
X292614Y551168D01*
X292722Y551082D01*
X292754Y551067D01*
X292782Y551047D01*
X292910Y550994D01*
X293035Y550936D01*
X293069Y550928D01*
X293102Y550915D01*
X293238Y550893D01*
X293373Y550864D01*
X293408Y550865D01*
X293443Y550859D01*
X293581Y550869D01*
G37*
G36*
X387271Y573005D02*
X387271Y573005D01*
X387307Y573002D01*
X387443Y573025D01*
X387579Y573041D01*
X387613Y573053D01*
X387648Y573058D01*
X387775Y573111D01*
X387905Y573158D01*
X387934Y573177D01*
X387967Y573191D01*
X388079Y573272D01*
X388194Y573347D01*
X388219Y573373D01*
X388247Y573393D01*
X388338Y573497D01*
X388433Y573597D01*
X388451Y573628D01*
X388474Y573654D01*
X388538Y573777D01*
X388608Y573895D01*
X388618Y573929D01*
X388635Y573961D01*
X388669Y574094D01*
X388710Y574226D01*
X388712Y574261D01*
X388721Y574295D01*
X388735Y574500D01*
X388735Y574596D01*
X388731Y574631D01*
X388734Y574667D01*
X388711Y574803D01*
X388695Y574939D01*
X388683Y574973D01*
X388678Y575008D01*
X388625Y575135D01*
X388578Y575265D01*
X388559Y575294D01*
X388545Y575327D01*
X388464Y575439D01*
X388389Y575554D01*
X388363Y575579D01*
X388343Y575607D01*
X388239Y575698D01*
X388139Y575793D01*
X388108Y575811D01*
X388082Y575834D01*
X387959Y575898D01*
X387841Y575968D01*
X387807Y575978D01*
X387775Y575995D01*
X387642Y576029D01*
X387510Y576070D01*
X387475Y576072D01*
X387441Y576081D01*
X387236Y576095D01*
X357632Y576095D01*
X357528Y576083D01*
X357424Y576081D01*
X357357Y576063D01*
X357288Y576055D01*
X357190Y576020D01*
X357089Y575994D01*
X357028Y575961D01*
X356963Y575938D01*
X356876Y575881D01*
X356783Y575832D01*
X356731Y575787D01*
X356674Y575749D01*
X356602Y575674D01*
X356523Y575605D01*
X356483Y575549D01*
X356435Y575499D01*
X356382Y575409D01*
X356321Y575324D01*
X356295Y575260D01*
X356260Y575201D01*
X356229Y575101D01*
X356189Y575004D01*
X356178Y574936D01*
X356158Y574870D01*
X356151Y574766D01*
X356134Y574663D01*
X356139Y574594D01*
X356134Y574525D01*
X356151Y574422D01*
X356159Y574318D01*
X356179Y574252D01*
X356190Y574184D01*
X356230Y574088D01*
X356261Y573988D01*
X356296Y573929D01*
X356323Y573865D01*
X356384Y573780D01*
X356437Y573690D01*
X356505Y573612D01*
X356525Y573585D01*
X356542Y573570D01*
X356572Y573536D01*
X356668Y573440D01*
X356777Y573353D01*
X356882Y573262D01*
X356912Y573246D01*
X356939Y573225D01*
X357065Y573166D01*
X357188Y573101D01*
X357221Y573093D01*
X357252Y573078D01*
X357388Y573050D01*
X357523Y573015D01*
X357568Y573012D01*
X357590Y573007D01*
X357624Y573008D01*
X357728Y573001D01*
X387236Y573001D01*
X387271Y573005D01*
G37*
G36*
X288551Y488169D02*
X288551Y488169D01*
X288587Y488166D01*
X288723Y488189D01*
X288859Y488205D01*
X288893Y488217D01*
X288928Y488222D01*
X289055Y488275D01*
X289185Y488322D01*
X289214Y488341D01*
X289247Y488355D01*
X289359Y488436D01*
X289474Y488511D01*
X289499Y488537D01*
X289527Y488557D01*
X289618Y488661D01*
X289713Y488761D01*
X289731Y488792D01*
X289754Y488818D01*
X289818Y488941D01*
X289888Y489059D01*
X289898Y489093D01*
X289915Y489125D01*
X289949Y489258D01*
X289990Y489390D01*
X289992Y489425D01*
X290001Y489459D01*
X290015Y489664D01*
X290015Y500937D01*
X290018Y500940D01*
X290045Y500963D01*
X290125Y501076D01*
X290211Y501183D01*
X290226Y501215D01*
X290246Y501244D01*
X290299Y501372D01*
X290357Y501496D01*
X290365Y501531D01*
X290378Y501564D01*
X290400Y501700D01*
X290429Y501835D01*
X290428Y501870D01*
X290434Y501905D01*
X290424Y502043D01*
X290421Y502180D01*
X290412Y502215D01*
X290409Y502250D01*
X290368Y502382D01*
X290333Y502515D01*
X290317Y502546D01*
X290306Y502580D01*
X290236Y502699D01*
X290172Y502821D01*
X290149Y502847D01*
X290131Y502878D01*
X289996Y503032D01*
X286535Y506493D01*
X286535Y510877D01*
X286519Y511016D01*
X286509Y511155D01*
X286499Y511187D01*
X286495Y511221D01*
X286448Y511352D01*
X286407Y511485D01*
X286389Y511514D01*
X286378Y511546D01*
X286302Y511663D01*
X286231Y511783D01*
X286201Y511817D01*
X286189Y511836D01*
X286165Y511859D01*
X286096Y511937D01*
X285870Y512164D01*
X285842Y512186D01*
X285819Y512212D01*
X285707Y512293D01*
X285599Y512378D01*
X285567Y512393D01*
X285538Y512414D01*
X285411Y512467D01*
X285286Y512525D01*
X285252Y512532D01*
X285219Y512546D01*
X285083Y512568D01*
X284948Y512596D01*
X284912Y512596D01*
X284877Y512601D01*
X284740Y512591D01*
X284602Y512588D01*
X284568Y512579D01*
X284532Y512577D01*
X284401Y512536D01*
X284268Y512501D01*
X284236Y512485D01*
X284202Y512474D01*
X284083Y512404D01*
X283962Y512340D01*
X283935Y512316D01*
X283905Y512298D01*
X283750Y512164D01*
X283524Y511938D01*
X283437Y511828D01*
X283346Y511723D01*
X283330Y511693D01*
X283309Y511667D01*
X283250Y511541D01*
X283185Y511417D01*
X283177Y511384D01*
X283162Y511354D01*
X283134Y511217D01*
X283099Y511082D01*
X283096Y511037D01*
X283091Y511015D01*
X283092Y510982D01*
X283085Y510877D01*
X283085Y503324D01*
X283089Y503289D01*
X283086Y503253D01*
X283109Y503117D01*
X283125Y502981D01*
X283137Y502947D01*
X283142Y502912D01*
X283195Y502785D01*
X283242Y502655D01*
X283261Y502626D01*
X283275Y502593D01*
X283356Y502481D01*
X283431Y502366D01*
X283457Y502341D01*
X283477Y502313D01*
X283581Y502222D01*
X283681Y502127D01*
X283712Y502109D01*
X283738Y502086D01*
X283861Y502022D01*
X283979Y501952D01*
X284013Y501942D01*
X284045Y501925D01*
X284178Y501891D01*
X284310Y501850D01*
X284345Y501848D01*
X284379Y501839D01*
X284584Y501825D01*
X285672Y501825D01*
X286565Y500932D01*
X286565Y489664D01*
X286569Y489629D01*
X286566Y489593D01*
X286589Y489457D01*
X286605Y489321D01*
X286617Y489287D01*
X286622Y489252D01*
X286675Y489125D01*
X286722Y488995D01*
X286741Y488966D01*
X286755Y488933D01*
X286836Y488821D01*
X286911Y488706D01*
X286937Y488681D01*
X286957Y488653D01*
X287061Y488562D01*
X287161Y488467D01*
X287192Y488449D01*
X287218Y488426D01*
X287341Y488362D01*
X287459Y488292D01*
X287493Y488282D01*
X287525Y488265D01*
X287658Y488231D01*
X287790Y488190D01*
X287825Y488188D01*
X287859Y488179D01*
X288064Y488165D01*
X288516Y488165D01*
X288551Y488169D01*
G37*
G36*
X294380Y526669D02*
X294380Y526669D01*
X294518Y526672D01*
X294552Y526681D01*
X294588Y526683D01*
X294719Y526724D01*
X294852Y526759D01*
X294884Y526775D01*
X294918Y526786D01*
X295037Y526856D01*
X295158Y526920D01*
X295185Y526944D01*
X295216Y526962D01*
X295370Y527096D01*
X295428Y527155D01*
X300608Y527155D01*
X300712Y527167D01*
X300816Y527169D01*
X300883Y527187D01*
X300952Y527195D01*
X301050Y527230D01*
X301151Y527256D01*
X301212Y527289D01*
X301277Y527312D01*
X301364Y527369D01*
X301456Y527418D01*
X301508Y527463D01*
X301566Y527501D01*
X301638Y527576D01*
X301717Y527645D01*
X301757Y527701D01*
X301805Y527751D01*
X301858Y527841D01*
X301919Y527926D01*
X301945Y527990D01*
X301980Y528049D01*
X302011Y528149D01*
X302051Y528245D01*
X302062Y528314D01*
X302082Y528380D01*
X302089Y528484D01*
X302106Y528587D01*
X302101Y528656D01*
X302106Y528725D01*
X302089Y528827D01*
X302082Y528932D01*
X302061Y528998D01*
X302050Y529066D01*
X302010Y529162D01*
X301979Y529262D01*
X301944Y529321D01*
X301917Y529385D01*
X301856Y529470D01*
X301803Y529559D01*
X301735Y529638D01*
X301715Y529665D01*
X301698Y529680D01*
X301668Y529714D01*
X296035Y535347D01*
X296035Y535877D01*
X296019Y536016D01*
X296009Y536155D01*
X295999Y536187D01*
X295995Y536221D01*
X295948Y536352D01*
X295907Y536485D01*
X295889Y536514D01*
X295878Y536546D01*
X295802Y536663D01*
X295731Y536783D01*
X295701Y536817D01*
X295689Y536836D01*
X295665Y536859D01*
X295596Y536938D01*
X295144Y537390D01*
X295062Y537454D01*
X294987Y537526D01*
X294927Y537561D01*
X294873Y537604D01*
X294779Y537649D01*
X294689Y537701D01*
X294623Y537722D01*
X294560Y537751D01*
X294458Y537773D01*
X294358Y537803D01*
X294289Y537808D01*
X294222Y537822D01*
X294118Y537820D01*
X294013Y537827D01*
X293945Y537816D01*
X293876Y537814D01*
X293775Y537788D01*
X293672Y537771D01*
X293609Y537745D01*
X293542Y537727D01*
X293449Y537678D01*
X293353Y537638D01*
X293297Y537598D01*
X293236Y537566D01*
X293157Y537497D01*
X293073Y537436D01*
X293027Y537384D01*
X292975Y537339D01*
X292914Y537254D01*
X292846Y537175D01*
X292814Y537114D01*
X292773Y537058D01*
X292734Y536961D01*
X292685Y536869D01*
X292668Y536802D01*
X292642Y536738D01*
X292625Y536635D01*
X292599Y536534D01*
X292592Y536430D01*
X292586Y536397D01*
X292588Y536374D01*
X292585Y536329D01*
X292585Y528383D01*
X292601Y528244D01*
X292611Y528105D01*
X292621Y528073D01*
X292625Y528039D01*
X292672Y527908D01*
X292713Y527775D01*
X292731Y527746D01*
X292742Y527714D01*
X292818Y527597D01*
X292889Y527477D01*
X292919Y527443D01*
X292931Y527424D01*
X292955Y527401D01*
X293024Y527322D01*
X293250Y527096D01*
X293278Y527074D01*
X293301Y527048D01*
X293413Y526967D01*
X293521Y526882D01*
X293553Y526867D01*
X293582Y526846D01*
X293709Y526794D01*
X293834Y526735D01*
X293869Y526728D01*
X293901Y526714D01*
X294038Y526692D01*
X294172Y526664D01*
X294208Y526664D01*
X294243Y526659D01*
X294380Y526669D01*
G37*
G36*
X354723Y582149D02*
X354723Y582149D01*
X354759Y582146D01*
X354895Y582169D01*
X355031Y582185D01*
X355065Y582197D01*
X355100Y582202D01*
X355227Y582255D01*
X355357Y582302D01*
X355386Y582321D01*
X355419Y582335D01*
X355531Y582416D01*
X355646Y582491D01*
X355671Y582517D01*
X355699Y582537D01*
X355790Y582641D01*
X355885Y582741D01*
X355903Y582772D01*
X355926Y582798D01*
X355990Y582921D01*
X356060Y583039D01*
X356070Y583073D01*
X356087Y583105D01*
X356121Y583238D01*
X356162Y583370D01*
X356164Y583405D01*
X356173Y583439D01*
X356187Y583644D01*
X356187Y583868D01*
X356183Y583903D01*
X356186Y583939D01*
X356163Y584075D01*
X356147Y584211D01*
X356135Y584245D01*
X356130Y584280D01*
X356077Y584407D01*
X356030Y584537D01*
X356011Y584566D01*
X355997Y584599D01*
X355916Y584711D01*
X355841Y584826D01*
X355815Y584851D01*
X355795Y584879D01*
X355691Y584970D01*
X355591Y585065D01*
X355560Y585083D01*
X355534Y585106D01*
X355411Y585170D01*
X355293Y585240D01*
X355259Y585250D01*
X355227Y585267D01*
X355094Y585301D01*
X354962Y585342D01*
X354927Y585344D01*
X354893Y585353D01*
X354688Y585367D01*
X339058Y585367D01*
X338919Y585351D01*
X338780Y585341D01*
X338748Y585331D01*
X338714Y585327D01*
X338583Y585280D01*
X338450Y585239D01*
X338421Y585221D01*
X338389Y585210D01*
X338272Y585134D01*
X338153Y585063D01*
X338118Y585033D01*
X338100Y585021D01*
X338076Y584997D01*
X337998Y584928D01*
X337774Y584704D01*
X337709Y584622D01*
X337637Y584547D01*
X337602Y584487D01*
X337559Y584433D01*
X337515Y584339D01*
X337462Y584249D01*
X337442Y584183D01*
X337412Y584120D01*
X337391Y584018D01*
X337360Y583918D01*
X337355Y583849D01*
X337341Y583782D01*
X337343Y583678D01*
X337336Y583573D01*
X337347Y583505D01*
X337349Y583436D01*
X337375Y583335D01*
X337392Y583232D01*
X337419Y583168D01*
X337436Y583102D01*
X337485Y583009D01*
X337525Y582913D01*
X337565Y582857D01*
X337598Y582796D01*
X337666Y582717D01*
X337727Y582633D01*
X337779Y582587D01*
X337825Y582535D01*
X337909Y582474D01*
X337988Y582406D01*
X338049Y582374D01*
X338106Y582334D01*
X338202Y582294D01*
X338294Y582245D01*
X338361Y582228D01*
X338425Y582202D01*
X338528Y582185D01*
X338629Y582159D01*
X338733Y582152D01*
X338766Y582146D01*
X338789Y582148D01*
X338834Y582145D01*
X354688Y582145D01*
X354723Y582149D01*
G37*
G36*
X315422Y494315D02*
X315422Y494315D01*
X315491Y494310D01*
X315593Y494327D01*
X315698Y494334D01*
X315764Y494355D01*
X315832Y494366D01*
X315928Y494406D01*
X316028Y494437D01*
X316087Y494472D01*
X316151Y494499D01*
X316236Y494560D01*
X316325Y494613D01*
X316404Y494681D01*
X316431Y494701D01*
X316446Y494718D01*
X316480Y494748D01*
X317009Y495277D01*
X321310Y495277D01*
X321414Y495289D01*
X321518Y495291D01*
X321585Y495309D01*
X321654Y495317D01*
X321752Y495352D01*
X321853Y495378D01*
X321914Y495411D01*
X321979Y495434D01*
X322066Y495491D01*
X322158Y495540D01*
X322210Y495585D01*
X322268Y495623D01*
X322340Y495698D01*
X322419Y495767D01*
X322459Y495823D01*
X322507Y495873D01*
X322560Y495963D01*
X322621Y496048D01*
X322647Y496112D01*
X322682Y496171D01*
X322713Y496271D01*
X322753Y496367D01*
X322764Y496436D01*
X322784Y496502D01*
X322791Y496606D01*
X322808Y496709D01*
X322803Y496778D01*
X322808Y496847D01*
X322791Y496949D01*
X322784Y497054D01*
X322763Y497120D01*
X322752Y497188D01*
X322712Y497284D01*
X322681Y497384D01*
X322646Y497443D01*
X322619Y497507D01*
X322558Y497592D01*
X322505Y497681D01*
X322437Y497760D01*
X322417Y497787D01*
X322400Y497802D01*
X322370Y497836D01*
X316480Y503726D01*
X316398Y503791D01*
X316323Y503863D01*
X316263Y503898D01*
X316209Y503941D01*
X316115Y503985D01*
X316025Y504038D01*
X315959Y504058D01*
X315896Y504088D01*
X315794Y504109D01*
X315694Y504140D01*
X315625Y504145D01*
X315558Y504159D01*
X315454Y504157D01*
X315349Y504164D01*
X315281Y504153D01*
X315212Y504151D01*
X315111Y504125D01*
X315008Y504108D01*
X314944Y504081D01*
X314878Y504064D01*
X314785Y504015D01*
X314689Y503975D01*
X314633Y503935D01*
X314572Y503902D01*
X314493Y503834D01*
X314409Y503773D01*
X314363Y503721D01*
X314311Y503675D01*
X314250Y503591D01*
X314182Y503512D01*
X314150Y503451D01*
X314109Y503394D01*
X314070Y503298D01*
X314021Y503206D01*
X314004Y503139D01*
X313977Y503075D01*
X313961Y502972D01*
X313935Y502871D01*
X313928Y502767D01*
X313922Y502734D01*
X313924Y502711D01*
X313921Y502666D01*
X313921Y495808D01*
X313933Y495704D01*
X313935Y495600D01*
X313953Y495533D01*
X313961Y495464D01*
X313996Y495366D01*
X314022Y495265D01*
X314055Y495204D01*
X314078Y495139D01*
X314135Y495052D01*
X314184Y494960D01*
X314229Y494907D01*
X314267Y494850D01*
X314342Y494778D01*
X314411Y494699D01*
X314467Y494659D01*
X314517Y494611D01*
X314607Y494558D01*
X314692Y494497D01*
X314756Y494471D01*
X314815Y494436D01*
X314915Y494405D01*
X315011Y494365D01*
X315080Y494354D01*
X315146Y494334D01*
X315250Y494327D01*
X315353Y494310D01*
X315422Y494315D01*
G37*
G36*
X201376Y505999D02*
X201376Y505999D01*
X201445Y505994D01*
X201547Y506011D01*
X201652Y506018D01*
X201718Y506039D01*
X201786Y506050D01*
X201882Y506090D01*
X201982Y506121D01*
X202041Y506156D01*
X202105Y506183D01*
X202190Y506244D01*
X202279Y506297D01*
X202358Y506365D01*
X202385Y506385D01*
X202400Y506402D01*
X202434Y506432D01*
X204487Y508485D01*
X206483Y508485D01*
X206587Y508497D01*
X206691Y508499D01*
X206758Y508517D01*
X206827Y508525D01*
X206925Y508560D01*
X207026Y508586D01*
X207087Y508619D01*
X207152Y508642D01*
X207239Y508699D01*
X207331Y508748D01*
X207383Y508793D01*
X207441Y508831D01*
X207513Y508906D01*
X207592Y508975D01*
X207632Y509031D01*
X207680Y509081D01*
X207733Y509171D01*
X207794Y509256D01*
X207820Y509320D01*
X207855Y509379D01*
X207886Y509479D01*
X207926Y509575D01*
X207937Y509644D01*
X207957Y509710D01*
X207964Y509814D01*
X207981Y509917D01*
X207976Y509986D01*
X207981Y510055D01*
X207964Y510157D01*
X207957Y510262D01*
X207936Y510328D01*
X207925Y510396D01*
X207885Y510492D01*
X207854Y510592D01*
X207819Y510651D01*
X207792Y510715D01*
X207731Y510800D01*
X207678Y510889D01*
X207610Y510968D01*
X207590Y510995D01*
X207573Y511010D01*
X207543Y511044D01*
X205607Y512980D01*
X205125Y514145D01*
X205049Y514282D01*
X204976Y514420D01*
X204965Y514433D01*
X204956Y514447D01*
X204851Y514563D01*
X204749Y514681D01*
X204735Y514690D01*
X204723Y514703D01*
X204595Y514791D01*
X204468Y514882D01*
X204452Y514889D01*
X204438Y514898D01*
X204293Y514954D01*
X204148Y515014D01*
X204131Y515017D01*
X204116Y515023D01*
X203962Y515044D01*
X203807Y515069D01*
X203790Y515068D01*
X203773Y515071D01*
X203618Y515056D01*
X203462Y515045D01*
X203446Y515040D01*
X203429Y515038D01*
X203281Y514989D01*
X203132Y514942D01*
X203117Y514934D01*
X203101Y514928D01*
X202968Y514846D01*
X202834Y514767D01*
X202818Y514752D01*
X202808Y514746D01*
X202788Y514726D01*
X202679Y514632D01*
X200314Y512266D01*
X200227Y512157D01*
X200136Y512052D01*
X200120Y512022D01*
X200099Y511995D01*
X200040Y511869D01*
X199975Y511746D01*
X199967Y511713D01*
X199952Y511682D01*
X199924Y511546D01*
X199889Y511411D01*
X199886Y511366D01*
X199881Y511344D01*
X199882Y511310D01*
X199875Y511206D01*
X199875Y507492D01*
X199887Y507388D01*
X199889Y507284D01*
X199907Y507217D01*
X199915Y507148D01*
X199950Y507050D01*
X199976Y506949D01*
X200009Y506888D01*
X200032Y506823D01*
X200089Y506736D01*
X200138Y506644D01*
X200183Y506592D01*
X200221Y506534D01*
X200296Y506462D01*
X200365Y506383D01*
X200421Y506343D01*
X200471Y506295D01*
X200561Y506242D01*
X200646Y506181D01*
X200710Y506155D01*
X200769Y506120D01*
X200869Y506089D01*
X200965Y506049D01*
X201034Y506038D01*
X201100Y506018D01*
X201204Y506011D01*
X201307Y505994D01*
X201376Y505999D01*
G37*
G36*
X331865Y528403D02*
X331865Y528403D01*
X331934Y528405D01*
X332035Y528431D01*
X332138Y528448D01*
X332202Y528475D01*
X332268Y528492D01*
X332361Y528541D01*
X332457Y528581D01*
X332513Y528621D01*
X332574Y528654D01*
X332653Y528722D01*
X332737Y528783D01*
X332783Y528835D01*
X332835Y528881D01*
X332896Y528965D01*
X332964Y529044D01*
X332996Y529106D01*
X333037Y529162D01*
X333076Y529258D01*
X333125Y529350D01*
X333142Y529417D01*
X333168Y529481D01*
X333185Y529584D01*
X333211Y529685D01*
X333218Y529789D01*
X333224Y529822D01*
X333222Y529845D01*
X333225Y529890D01*
X333225Y535906D01*
X333221Y535941D01*
X333224Y535977D01*
X333201Y536113D01*
X333185Y536249D01*
X333173Y536283D01*
X333168Y536318D01*
X333115Y536445D01*
X333068Y536575D01*
X333049Y536604D01*
X333035Y536637D01*
X332954Y536749D01*
X332879Y536864D01*
X332853Y536889D01*
X332833Y536917D01*
X332729Y537008D01*
X332629Y537103D01*
X332598Y537121D01*
X332572Y537144D01*
X332449Y537208D01*
X332331Y537278D01*
X332297Y537288D01*
X332265Y537305D01*
X332132Y537339D01*
X332000Y537380D01*
X331965Y537382D01*
X331931Y537391D01*
X331726Y537405D01*
X330175Y537405D01*
X330120Y537431D01*
X330018Y537453D01*
X329918Y537483D01*
X329849Y537488D01*
X329782Y537502D01*
X329678Y537500D01*
X329573Y537507D01*
X329505Y537496D01*
X329436Y537494D01*
X329335Y537468D01*
X329232Y537451D01*
X329169Y537425D01*
X329102Y537407D01*
X329009Y537358D01*
X328913Y537318D01*
X328857Y537278D01*
X328796Y537246D01*
X328717Y537177D01*
X328633Y537116D01*
X328587Y537064D01*
X328535Y537019D01*
X328474Y536934D01*
X328406Y536855D01*
X328374Y536794D01*
X328334Y536738D01*
X328294Y536642D01*
X328245Y536549D01*
X328228Y536482D01*
X328202Y536418D01*
X328185Y536315D01*
X328159Y536214D01*
X328152Y536110D01*
X328146Y536077D01*
X328148Y536055D01*
X328145Y536009D01*
X328145Y531972D01*
X328161Y531834D01*
X328171Y531694D01*
X328181Y531662D01*
X328185Y531628D01*
X328232Y531498D01*
X328273Y531364D01*
X328291Y531335D01*
X328302Y531303D01*
X328378Y531186D01*
X328449Y531066D01*
X328479Y531032D01*
X328491Y531014D01*
X328515Y530990D01*
X328584Y530912D01*
X330666Y528830D01*
X330748Y528765D01*
X330823Y528693D01*
X330883Y528658D01*
X330937Y528615D01*
X331031Y528571D01*
X331121Y528518D01*
X331187Y528498D01*
X331250Y528468D01*
X331352Y528447D01*
X331452Y528416D01*
X331521Y528411D01*
X331588Y528397D01*
X331692Y528399D01*
X331797Y528392D01*
X331865Y528403D01*
G37*
G36*
X327085Y619866D02*
X327085Y619866D01*
X327154Y619868D01*
X327255Y619894D01*
X327358Y619911D01*
X327422Y619937D01*
X327488Y619955D01*
X327581Y620004D01*
X327677Y620044D01*
X327733Y620084D01*
X327794Y620116D01*
X327873Y620185D01*
X327957Y620246D01*
X328003Y620298D01*
X328055Y620343D01*
X328116Y620428D01*
X328184Y620507D01*
X328216Y620568D01*
X328257Y620624D01*
X328296Y620720D01*
X328345Y620813D01*
X328362Y620880D01*
X328388Y620944D01*
X328405Y621047D01*
X328431Y621148D01*
X328438Y621252D01*
X328444Y621285D01*
X328442Y621308D01*
X328445Y621353D01*
X328445Y626976D01*
X328441Y627011D01*
X328444Y627047D01*
X328421Y627183D01*
X328405Y627319D01*
X328393Y627353D01*
X328388Y627388D01*
X328335Y627515D01*
X328288Y627645D01*
X328269Y627674D01*
X328255Y627707D01*
X328174Y627819D01*
X328099Y627934D01*
X328073Y627959D01*
X328053Y627987D01*
X327949Y628078D01*
X327849Y628173D01*
X327818Y628191D01*
X327792Y628214D01*
X327669Y628278D01*
X327551Y628348D01*
X327517Y628358D01*
X327485Y628375D01*
X327352Y628409D01*
X327220Y628450D01*
X327185Y628452D01*
X327151Y628461D01*
X326946Y628475D01*
X324431Y628475D01*
X324328Y628463D01*
X324223Y628461D01*
X324157Y628443D01*
X324088Y628435D01*
X323990Y628400D01*
X323889Y628374D01*
X323828Y628341D01*
X323763Y628318D01*
X323675Y628261D01*
X323583Y628212D01*
X323531Y628167D01*
X323473Y628129D01*
X323401Y628053D01*
X323323Y627985D01*
X323282Y627929D01*
X323235Y627879D01*
X323182Y627789D01*
X323121Y627704D01*
X323094Y627640D01*
X323060Y627581D01*
X323029Y627481D01*
X322989Y627385D01*
X322978Y627316D01*
X322958Y627250D01*
X322950Y627146D01*
X322934Y627043D01*
X322939Y626974D01*
X322934Y626905D01*
X322951Y626802D01*
X322958Y626698D01*
X322979Y626632D01*
X322990Y626564D01*
X323030Y626468D01*
X323061Y626368D01*
X323096Y626309D01*
X323123Y626245D01*
X323184Y626160D01*
X323237Y626070D01*
X323305Y625992D01*
X323325Y625965D01*
X323342Y625950D01*
X323371Y625916D01*
X323773Y625515D01*
X323773Y624257D01*
X323773Y622838D01*
X323777Y622803D01*
X323774Y622767D01*
X323797Y622632D01*
X323813Y622494D01*
X323825Y622461D01*
X323830Y622426D01*
X323883Y622299D01*
X323930Y622169D01*
X323950Y622140D01*
X323963Y622107D01*
X324044Y621995D01*
X324119Y621880D01*
X324145Y621855D01*
X324165Y621827D01*
X324270Y621736D01*
X324369Y621641D01*
X324400Y621623D01*
X324427Y621600D01*
X324549Y621536D01*
X324667Y621466D01*
X324701Y621456D01*
X324733Y621439D01*
X324741Y621437D01*
X325886Y620292D01*
X325968Y620228D01*
X326043Y620156D01*
X326103Y620121D01*
X326157Y620078D01*
X326251Y620033D01*
X326341Y619981D01*
X326407Y619960D01*
X326470Y619931D01*
X326572Y619909D01*
X326672Y619879D01*
X326741Y619874D01*
X326808Y619860D01*
X326912Y619862D01*
X327017Y619855D01*
X327085Y619866D01*
G37*
G36*
X323416Y520710D02*
X323416Y520710D01*
X323468Y520710D01*
X323586Y520738D01*
X323706Y520757D01*
X323754Y520777D01*
X323805Y520789D01*
X323913Y520844D01*
X324025Y520890D01*
X324067Y520921D01*
X324114Y520944D01*
X324207Y521022D01*
X324305Y521092D01*
X324340Y521132D01*
X324380Y521165D01*
X324453Y521262D01*
X324532Y521353D01*
X324556Y521400D01*
X324588Y521442D01*
X324679Y521625D01*
X324835Y522002D01*
X325827Y522993D01*
X325849Y523021D01*
X325875Y523045D01*
X325956Y523157D01*
X326041Y523265D01*
X326056Y523297D01*
X326077Y523325D01*
X326130Y523453D01*
X326188Y523578D01*
X326195Y523612D01*
X326209Y523645D01*
X326231Y523781D01*
X326259Y523916D01*
X326259Y523951D01*
X326264Y523986D01*
X326255Y524124D01*
X326251Y524262D01*
X326242Y524296D01*
X326240Y524331D01*
X326199Y524463D01*
X326164Y524596D01*
X326148Y524627D01*
X326137Y524661D01*
X326067Y524780D01*
X326003Y524902D01*
X325979Y524929D01*
X325961Y524959D01*
X325827Y525114D01*
X324354Y526586D01*
X324272Y526651D01*
X324197Y526723D01*
X324137Y526758D01*
X324083Y526801D01*
X323989Y526845D01*
X323899Y526898D01*
X323833Y526918D01*
X323770Y526948D01*
X323668Y526969D01*
X323568Y527000D01*
X323499Y527005D01*
X323432Y527019D01*
X323328Y527017D01*
X323223Y527024D01*
X323155Y527013D01*
X323086Y527011D01*
X322985Y526985D01*
X322882Y526968D01*
X322818Y526941D01*
X322752Y526924D01*
X322659Y526875D01*
X322563Y526835D01*
X322507Y526795D01*
X322446Y526762D01*
X322367Y526694D01*
X322283Y526633D01*
X322237Y526581D01*
X322185Y526535D01*
X322124Y526451D01*
X322056Y526372D01*
X322024Y526311D01*
X321983Y526254D01*
X321944Y526158D01*
X321895Y526066D01*
X321878Y525999D01*
X321851Y525935D01*
X321835Y525832D01*
X321809Y525731D01*
X321802Y525627D01*
X321796Y525594D01*
X321798Y525571D01*
X321795Y525526D01*
X321795Y522199D01*
X321801Y522147D01*
X321798Y522095D01*
X321821Y521976D01*
X321835Y521856D01*
X321852Y521806D01*
X321862Y521755D01*
X321911Y521644D01*
X321952Y521530D01*
X321981Y521487D01*
X322002Y521439D01*
X322075Y521342D01*
X322141Y521241D01*
X322179Y521205D01*
X322210Y521163D01*
X322303Y521086D01*
X322391Y521002D01*
X322436Y520976D01*
X322476Y520942D01*
X322585Y520888D01*
X322689Y520827D01*
X322739Y520812D01*
X322786Y520788D01*
X322904Y520761D01*
X323020Y520725D01*
X323072Y520721D01*
X323123Y520710D01*
X323244Y520710D01*
X323365Y520701D01*
X323416Y520710D01*
G37*
G36*
X294675Y507681D02*
X294675Y507681D01*
X294744Y507683D01*
X294845Y507709D01*
X294948Y507726D01*
X295011Y507753D01*
X295078Y507770D01*
X295171Y507819D01*
X295267Y507859D01*
X295323Y507899D01*
X295384Y507932D01*
X295463Y508000D01*
X295547Y508061D01*
X295593Y508113D01*
X295645Y508159D01*
X295706Y508243D01*
X295774Y508322D01*
X295806Y508383D01*
X295847Y508440D01*
X295886Y508536D01*
X295935Y508628D01*
X295952Y508695D01*
X295978Y508759D01*
X295995Y508862D01*
X296021Y508963D01*
X296028Y509067D01*
X296034Y509100D01*
X296032Y509123D01*
X296035Y509168D01*
X296035Y510877D01*
X296019Y511016D01*
X296009Y511155D01*
X295999Y511187D01*
X295995Y511221D01*
X295948Y511352D01*
X295907Y511485D01*
X295889Y511514D01*
X295878Y511546D01*
X295802Y511663D01*
X295731Y511783D01*
X295701Y511817D01*
X295689Y511836D01*
X295665Y511859D01*
X295596Y511937D01*
X295370Y512164D01*
X295342Y512186D01*
X295319Y512212D01*
X295207Y512293D01*
X295099Y512378D01*
X295067Y512393D01*
X295038Y512414D01*
X294911Y512467D01*
X294786Y512525D01*
X294752Y512532D01*
X294719Y512546D01*
X294583Y512568D01*
X294448Y512596D01*
X294412Y512596D01*
X294377Y512601D01*
X294240Y512591D01*
X294102Y512588D01*
X294068Y512579D01*
X294032Y512577D01*
X293901Y512536D01*
X293768Y512501D01*
X293736Y512485D01*
X293702Y512474D01*
X293583Y512404D01*
X293462Y512340D01*
X293435Y512316D01*
X293405Y512298D01*
X293250Y512164D01*
X293024Y511938D01*
X292937Y511828D01*
X292846Y511723D01*
X292830Y511693D01*
X292809Y511667D01*
X292750Y511541D01*
X292685Y511417D01*
X292677Y511384D01*
X292662Y511354D01*
X292634Y511217D01*
X292599Y511082D01*
X292596Y511037D01*
X292591Y511015D01*
X292592Y510982D01*
X292585Y510877D01*
X292585Y509620D01*
X292601Y509482D01*
X292611Y509342D01*
X292621Y509310D01*
X292625Y509276D01*
X292672Y509145D01*
X292713Y509012D01*
X292731Y508983D01*
X292742Y508951D01*
X292818Y508834D01*
X292889Y508714D01*
X292919Y508680D01*
X292931Y508662D01*
X292955Y508638D01*
X293024Y508560D01*
X293476Y508108D01*
X293558Y508043D01*
X293633Y507971D01*
X293693Y507936D01*
X293747Y507893D01*
X293841Y507849D01*
X293931Y507796D01*
X293997Y507776D01*
X294060Y507746D01*
X294162Y507725D01*
X294262Y507694D01*
X294331Y507689D01*
X294398Y507675D01*
X294502Y507677D01*
X294607Y507670D01*
X294675Y507681D01*
G37*
G36*
X326981Y591167D02*
X326981Y591167D01*
X327017Y591164D01*
X327153Y591187D01*
X327289Y591203D01*
X327323Y591215D01*
X327358Y591220D01*
X327485Y591273D01*
X327615Y591320D01*
X327644Y591339D01*
X327677Y591353D01*
X327789Y591434D01*
X327904Y591509D01*
X327929Y591535D01*
X327957Y591555D01*
X328048Y591659D01*
X328143Y591759D01*
X328161Y591790D01*
X328184Y591816D01*
X328248Y591939D01*
X328318Y592057D01*
X328328Y592091D01*
X328345Y592123D01*
X328379Y592256D01*
X328420Y592388D01*
X328422Y592423D01*
X328431Y592457D01*
X328445Y592662D01*
X328445Y593275D01*
X328433Y593379D01*
X328431Y593483D01*
X328413Y593550D01*
X328405Y593619D01*
X328370Y593717D01*
X328344Y593818D01*
X328311Y593879D01*
X328288Y593944D01*
X328231Y594032D01*
X328182Y594124D01*
X328137Y594176D01*
X328099Y594234D01*
X328024Y594306D01*
X327955Y594384D01*
X327899Y594425D01*
X327849Y594472D01*
X327759Y594525D01*
X327674Y594586D01*
X327610Y594612D01*
X327551Y594647D01*
X327451Y594678D01*
X327355Y594718D01*
X327286Y594729D01*
X327220Y594749D01*
X327116Y594757D01*
X327013Y594773D01*
X326944Y594768D01*
X326875Y594773D01*
X326773Y594756D01*
X326668Y594749D01*
X326602Y594728D01*
X326534Y594717D01*
X326438Y594677D01*
X326338Y594646D01*
X326279Y594611D01*
X326215Y594584D01*
X326130Y594523D01*
X326041Y594470D01*
X325962Y594402D01*
X325935Y594382D01*
X325920Y594365D01*
X325886Y594336D01*
X325272Y593722D01*
X325208Y593640D01*
X325136Y593565D01*
X325101Y593505D01*
X325058Y593451D01*
X325013Y593357D01*
X324961Y593267D01*
X324940Y593201D01*
X324911Y593138D01*
X324889Y593036D01*
X324859Y592936D01*
X324854Y592867D01*
X324840Y592800D01*
X324842Y592695D01*
X324835Y592591D01*
X324846Y592523D01*
X324848Y592454D01*
X324874Y592353D01*
X324891Y592250D01*
X324917Y592186D01*
X324935Y592120D01*
X324984Y592027D01*
X325024Y591931D01*
X325064Y591875D01*
X325096Y591814D01*
X325165Y591735D01*
X325226Y591651D01*
X325278Y591605D01*
X325323Y591553D01*
X325408Y591492D01*
X325487Y591424D01*
X325548Y591392D01*
X325604Y591351D01*
X325701Y591312D01*
X325793Y591263D01*
X325860Y591246D01*
X325924Y591219D01*
X326027Y591203D01*
X326128Y591177D01*
X326232Y591170D01*
X326265Y591164D01*
X326288Y591166D01*
X326333Y591163D01*
X326946Y591163D01*
X326981Y591167D01*
G37*
D10*
X436118Y547116D03*
X461518Y547116D03*
D11*
X336250Y541680D03*
X336250Y551180D03*
X336250Y560680D03*
X362250Y560680D03*
X362250Y551180D03*
X362250Y541680D03*
D12*
X397510Y579730D03*
X397510Y560730D03*
D13*
X396240Y511430D03*
X396240Y527430D03*
D14*
X343208Y616814D03*
X343208Y607314D03*
X343208Y597814D03*
X318208Y597814D03*
X318208Y616814D03*
D13*
X362712Y588392D03*
X362712Y604392D03*
D15*
X326008Y635000D03*
X310008Y635000D03*
D13*
X296418Y587376D03*
X296418Y603376D03*
D16*
X299060Y519630D03*
X289560Y519630D03*
X280060Y519630D03*
X280060Y544630D03*
X299060Y544630D03*
D15*
X296290Y495300D03*
X280290Y495300D03*
X284100Y566420D03*
X300100Y566420D03*
D17*
X227330Y575310D02*
X212090Y575310D01*
X212090Y600710D02*
X227330Y600710D01*
X227330Y626110D02*
X212090Y626110D01*
X213360Y543560D02*
X228600Y543560D01*
X228600Y518160D02*
X213360Y518160D01*
X213360Y492760D02*
X228600Y492760D01*
D18*
X467614Y647700D03*
X467614Y622300D03*
X442214Y647700D03*
X442214Y622300D03*
X416814Y647700D03*
X416814Y622300D03*
D17*
X358902Y631444D02*
X358902Y646684D01*
X384302Y646684D02*
X384302Y631444D01*
D19*
X397460Y560680D02*
X362250Y560680D01*
X397460Y560680D02*
X397510Y560730D01*
X436118Y560730D01*
X436118Y547116D01*
X436118Y519430D01*
X420370Y519430D01*
X412370Y527430D01*
X396240Y527430D01*
X325120Y579120D02*
X318770Y572770D01*
X325120Y579120D02*
X396900Y579120D01*
X397510Y579730D01*
X395860Y511810D02*
X396240Y511430D01*
X362568Y510540D02*
X356870Y510540D01*
X362568Y510540D02*
X395350Y510540D01*
X396240Y511430D01*
X336250Y531160D02*
X336250Y541680D01*
X336250Y531160D02*
X355473Y511937D01*
X356870Y510540D01*
X318770Y512366D02*
X318770Y572770D01*
X318770Y512366D02*
X329342Y501794D01*
X352696Y502810D02*
X354330Y502810D01*
X356870Y504842D02*
X359719Y507691D01*
X362568Y510540D01*
X356870Y510540D02*
X356870Y506984D01*
X356870Y504842D01*
X355473Y503445D01*
X359719Y507691D02*
X356870Y510540D01*
X355473Y511937D02*
X355473Y503953D01*
X355473Y503445D01*
X355473Y503953D02*
X354330Y502810D01*
X352696Y502810D02*
X356870Y506984D01*
X352696Y502810D02*
X351680Y501794D01*
X329342Y501794D01*
X351680Y501794D02*
X353314Y501794D01*
X354330Y502810D01*
X384302Y618744D02*
X384302Y639064D01*
X384302Y618744D02*
X397510Y605536D01*
X397510Y579730D01*
X336250Y551180D02*
X327660Y551180D01*
X325120Y548640D01*
X325120Y530098D01*
X332486Y522732D02*
X332486Y516890D01*
X332486Y522732D02*
X325120Y530098D01*
D20*
X332486Y516890D03*
X331978Y470154D03*
D19*
X313944Y470154D01*
X308610Y464820D01*
X200660Y464820D01*
X190500Y474980D01*
X190500Y514350D02*
X200660Y524510D01*
X190500Y514350D02*
X190500Y474980D01*
X200660Y524510D02*
X200660Y594360D01*
X207010Y600710D01*
X219710Y600710D01*
D21*
X362250Y541680D02*
X376530Y541680D01*
X378460Y539750D01*
X378460Y530860D01*
D20*
X378460Y530860D03*
X378968Y477520D03*
D21*
X359918Y477520D01*
X351028Y486410D01*
X320040Y486410D01*
X304800Y471170D01*
X204470Y471170D01*
X196850Y478790D01*
D19*
X196850Y513080D01*
X201930Y518160D01*
X220980Y518160D01*
D22*
X461518Y547116D02*
X461518Y580644D01*
X456946Y622300D02*
X467614Y622300D01*
X456946Y622300D02*
X450850Y622300D01*
X446532Y622300D02*
X442214Y622300D01*
X416814Y622300D01*
X461518Y580644D02*
X467614Y586740D01*
X467614Y605536D01*
X467614Y622300D01*
X467614Y605536D02*
X450850Y622300D01*
X446532Y622300D01*
D19*
X336250Y568660D02*
X336250Y560680D01*
X336250Y568660D02*
X337820Y570230D01*
X345440Y570230D02*
X347980Y570230D01*
X350520Y570230D01*
X355600Y570230D01*
X355346Y569976D02*
X448818Y569976D01*
X448818Y512318D01*
X448310Y511810D01*
X349250Y532130D02*
X349250Y568960D01*
X347980Y567690D02*
X347980Y570230D01*
X349250Y532130D02*
X361950Y519430D01*
X347980Y567690D02*
X349250Y568960D01*
X350520Y570230D01*
X347980Y567690D02*
X345440Y570230D01*
X344170Y570230D01*
X337820Y570230D01*
X361950Y519430D02*
X407622Y519430D01*
X415242Y511810D02*
X448310Y511810D01*
X415242Y511810D02*
X407622Y519430D01*
X347980Y567690D02*
X346710Y567690D01*
X344170Y570230D01*
X347980Y567690D02*
X353060Y567690D01*
X355346Y569976D01*
X355600Y570230D01*
X343208Y616814D02*
X344424Y618030D01*
X359538Y591566D02*
X362712Y588392D01*
X289560Y519630D02*
X289560Y507746D01*
X296290Y501016D02*
X296290Y495300D01*
X296290Y501016D02*
X289560Y507746D01*
X289560Y519630D02*
X289560Y549910D01*
X284100Y555370D02*
X284100Y566420D01*
X284100Y555370D02*
X289560Y549910D01*
X284100Y566420D02*
X284100Y575564D01*
X284100Y577850D01*
X286386Y577850D01*
X292354Y577850D01*
X295656Y577850D01*
X300736Y577850D01*
X313944Y577850D01*
X314198Y577850D01*
X270256Y577850D02*
X267716Y575310D01*
X270256Y577850D02*
X281814Y577850D01*
X284100Y577850D01*
X267716Y575310D02*
X219710Y575310D01*
X281814Y577850D02*
X284100Y575564D01*
X286386Y577850D01*
X313944Y577850D02*
X324232Y588138D01*
X329566Y588138D02*
X333248Y588138D01*
X336930Y588138D01*
X336676Y588392D02*
X362712Y588392D01*
X296418Y587376D02*
X296418Y581914D01*
X296418Y578612D01*
X295656Y577850D01*
X292354Y577850D02*
X296418Y581914D01*
X296418Y582168D02*
X296418Y587376D01*
X296418Y582168D02*
X300736Y577850D01*
X331470Y629538D02*
X326008Y635000D01*
X331470Y629538D02*
X331470Y590042D01*
X333248Y591820D02*
X333248Y588138D01*
X331470Y590042D02*
X333248Y591820D01*
X331470Y590042D02*
X329566Y588138D01*
X324232Y588138D01*
X333248Y591820D02*
X336676Y588392D01*
X336930Y588138D01*
X433324Y496824D02*
X448310Y511810D01*
X433324Y496824D02*
X327660Y496824D01*
X314198Y510286D01*
X314198Y577850D01*
X416814Y647700D02*
X416814Y647954D01*
X407416Y657352D01*
X368046Y657352D01*
X357886Y657352D01*
X358140Y657098D02*
X357124Y657098D01*
X356870Y657352D02*
X353822Y657352D01*
X350266Y657352D01*
X334518Y657352D01*
X326008Y648842D02*
X326008Y635000D01*
X326008Y648842D02*
X334518Y657352D01*
X343208Y629974D02*
X343208Y616814D01*
X344297Y631063D02*
X351536Y638302D01*
X344297Y631063D02*
X343208Y629974D01*
X359156Y648462D02*
X358267Y649351D01*
X354457Y653161D01*
X350266Y657352D01*
X359156Y648462D02*
X358902Y648208D01*
X359156Y648462D02*
X364109Y653415D01*
X368046Y657352D01*
X358902Y656336D02*
X358902Y655320D01*
X358902Y656336D02*
X358140Y657098D01*
X357886Y657352D01*
X361188Y656336D02*
X364109Y653415D01*
X361188Y656336D02*
X358902Y656336D01*
X358902Y655320D02*
X358902Y653288D01*
X359029Y653415D02*
X364109Y653415D01*
X359029Y653415D02*
X358902Y653288D01*
X358902Y655320D02*
X357124Y657098D01*
X356870Y657352D01*
X357124Y657098D02*
X357124Y655828D01*
X354457Y653161D01*
X357886Y653288D02*
X353822Y657352D01*
X357886Y653288D02*
X358902Y653288D01*
D22*
X358902Y648716D02*
X358902Y639064D01*
X358902Y648716D02*
X358267Y649351D01*
X358902Y639064D02*
X352298Y639064D01*
X344297Y631063D01*
D19*
X320748Y619354D02*
X318208Y616814D01*
X320748Y624262D02*
X310008Y635000D01*
X320748Y624262D02*
X320748Y619354D01*
D22*
X247650Y626110D02*
X219710Y626110D01*
D19*
X264160Y626110D02*
X273456Y616814D01*
X264160Y626110D02*
X247650Y626110D01*
X273456Y616814D02*
X318208Y616814D01*
D22*
X219710Y626110D02*
X202184Y626110D01*
X198882Y629412D01*
X198882Y658368D01*
X205486Y664972D01*
X435356Y664972D02*
X442214Y658114D01*
X435356Y664972D02*
X205486Y664972D01*
X442214Y658114D02*
X442214Y647700D01*
D19*
X318208Y597814D02*
X317954Y598068D01*
X309346Y598068D01*
X304038Y603376D01*
X296418Y603376D01*
X300100Y566420D02*
X299060Y565380D01*
X299060Y544630D01*
X299060Y536600D01*
X306832Y528828D01*
X306832Y511048D02*
X310896Y506984D01*
X306832Y511048D02*
X306832Y528828D01*
X310896Y506984D02*
X310896Y484886D01*
X303530Y477520D01*
X207010Y477520D02*
X201930Y482600D01*
X207010Y477520D02*
X303530Y477520D01*
X201930Y482600D02*
X201930Y501650D01*
X205740Y505460D01*
X266700Y505460D02*
X269240Y508000D01*
X266700Y505460D02*
X205740Y505460D01*
X269240Y508000D02*
X269240Y541020D01*
X265430Y544830D01*
X260350Y544830D01*
D22*
X222250Y544830D02*
X220980Y543560D01*
X222250Y544830D02*
X260350Y544830D01*
D19*
X318262Y492252D02*
X310896Y484886D01*
X318262Y492252D02*
X469900Y492252D01*
X485394Y507746D01*
X485394Y581152D01*
X485394Y583946D01*
D22*
X485394Y581152D02*
X485394Y639318D01*
X477012Y647700D01*
X467614Y647700D01*
D19*
X280290Y495300D02*
X280060Y495530D01*
X280060Y519630D01*
X280290Y495300D02*
X280290Y486790D01*
X281940Y485140D01*
X299060Y508660D02*
X306070Y501650D01*
X299060Y508660D02*
X299060Y519630D01*
X306070Y487680D02*
X303530Y485140D01*
X281940Y485140D01*
X306070Y487680D02*
X306070Y501650D01*
X281940Y485140D02*
X278640Y485140D01*
X276860Y485140D02*
X274320Y485140D01*
X266700Y492760D01*
X260350Y492760D01*
D22*
X220980Y492760D01*
D19*
X278640Y485140D02*
X280290Y486790D01*
X278640Y485140D02*
X276860Y485140D01*
X343208Y597814D02*
X343208Y607314D01*
X344478Y606044D02*
X361060Y606044D01*
X344478Y606044D02*
X343208Y607314D01*
X361060Y606044D02*
X362712Y604392D01*
M02*
