G04 EAGLE Gerber X2 export*
%TF.Part,Single*%
%TF.FileFunction,Legend,Top,1*%
%TF.FilePolarity,Positive*%
%TF.GenerationSoftware,Autodesk,EAGLE,9.2.2*%
%TF.CreationDate,2020-03-12T07:58:02Z*%
G75*
%MOMM*%
%FSLAX34Y34*%
%LPD*%
%INSilkscreen Top*%
%AMOC8*
5,1,8,0,0,1.08239X$1,22.5*%
G01*
%ADD10C,0.152400*%
%ADD11C,0.127000*%


D10*
X207010Y568960D02*
X207010Y581660D01*
X213360Y588010D01*
X226060Y588010D01*
X232410Y581660D01*
X213360Y588010D02*
X207010Y594360D01*
X207010Y607060D01*
X213360Y613410D01*
X226060Y613410D01*
X232410Y607060D01*
X232410Y594360D01*
X226060Y588010D01*
X226060Y562610D02*
X213360Y562610D01*
X207010Y568960D01*
X226060Y562610D02*
X232410Y568960D01*
X232410Y581660D01*
X213360Y613410D02*
X207010Y619760D01*
X207010Y632460D01*
X213360Y638810D01*
X226060Y638810D01*
X232410Y632460D01*
X232410Y619760D01*
X226060Y613410D01*
D11*
X198247Y566293D02*
X189357Y566293D01*
X198247Y566293D02*
X198347Y566291D01*
X198446Y566285D01*
X198546Y566275D01*
X198644Y566262D01*
X198743Y566244D01*
X198840Y566223D01*
X198936Y566198D01*
X199032Y566169D01*
X199126Y566136D01*
X199219Y566100D01*
X199310Y566060D01*
X199400Y566016D01*
X199488Y565969D01*
X199574Y565919D01*
X199658Y565865D01*
X199740Y565808D01*
X199819Y565748D01*
X199897Y565684D01*
X199971Y565618D01*
X200043Y565549D01*
X200112Y565477D01*
X200178Y565403D01*
X200242Y565325D01*
X200302Y565246D01*
X200359Y565164D01*
X200413Y565080D01*
X200463Y564994D01*
X200510Y564906D01*
X200554Y564816D01*
X200594Y564725D01*
X200630Y564632D01*
X200663Y564538D01*
X200692Y564442D01*
X200717Y564346D01*
X200738Y564249D01*
X200756Y564150D01*
X200769Y564052D01*
X200779Y563952D01*
X200785Y563853D01*
X200787Y563753D01*
X200787Y562483D01*
X200787Y572273D02*
X189357Y572273D01*
X189357Y575448D01*
X189359Y575559D01*
X189365Y575669D01*
X189374Y575780D01*
X189388Y575890D01*
X189405Y575999D01*
X189426Y576108D01*
X189451Y576216D01*
X189480Y576323D01*
X189512Y576429D01*
X189548Y576534D01*
X189588Y576637D01*
X189631Y576739D01*
X189678Y576840D01*
X189729Y576939D01*
X189782Y577036D01*
X189839Y577130D01*
X189900Y577223D01*
X189963Y577314D01*
X190030Y577403D01*
X190100Y577489D01*
X190173Y577572D01*
X190248Y577654D01*
X190326Y577732D01*
X190408Y577807D01*
X190491Y577880D01*
X190577Y577950D01*
X190666Y578017D01*
X190757Y578080D01*
X190850Y578141D01*
X190945Y578198D01*
X191041Y578251D01*
X191140Y578302D01*
X191241Y578349D01*
X191343Y578392D01*
X191446Y578432D01*
X191551Y578468D01*
X191657Y578500D01*
X191764Y578529D01*
X191872Y578554D01*
X191981Y578575D01*
X192090Y578592D01*
X192200Y578606D01*
X192311Y578615D01*
X192421Y578621D01*
X192532Y578623D01*
X192643Y578621D01*
X192753Y578615D01*
X192864Y578606D01*
X192974Y578592D01*
X193083Y578575D01*
X193192Y578554D01*
X193300Y578529D01*
X193407Y578500D01*
X193513Y578468D01*
X193618Y578432D01*
X193721Y578392D01*
X193823Y578349D01*
X193924Y578302D01*
X194023Y578251D01*
X194120Y578198D01*
X194214Y578141D01*
X194307Y578080D01*
X194398Y578017D01*
X194487Y577950D01*
X194573Y577880D01*
X194656Y577807D01*
X194738Y577732D01*
X194816Y577654D01*
X194891Y577572D01*
X194964Y577489D01*
X195034Y577403D01*
X195101Y577314D01*
X195164Y577223D01*
X195225Y577130D01*
X195282Y577036D01*
X195335Y576939D01*
X195386Y576840D01*
X195433Y576739D01*
X195476Y576637D01*
X195516Y576534D01*
X195552Y576429D01*
X195584Y576323D01*
X195613Y576216D01*
X195638Y576108D01*
X195659Y575999D01*
X195676Y575890D01*
X195690Y575780D01*
X195699Y575669D01*
X195705Y575559D01*
X195707Y575448D01*
X195707Y572273D01*
X191897Y583132D02*
X189357Y586307D01*
X200787Y586307D01*
X200787Y583132D02*
X200787Y589482D01*
D10*
X233680Y549910D02*
X233680Y537210D01*
X227330Y530860D01*
X214630Y530860D01*
X208280Y537210D01*
X227330Y530860D02*
X233680Y524510D01*
X233680Y511810D01*
X227330Y505460D01*
X214630Y505460D01*
X208280Y511810D01*
X208280Y524510D01*
X214630Y530860D01*
X214630Y556260D02*
X227330Y556260D01*
X233680Y549910D01*
X214630Y556260D02*
X208280Y549910D01*
X208280Y537210D01*
X227330Y505460D02*
X233680Y499110D01*
X233680Y486410D01*
X227330Y480060D01*
X214630Y480060D01*
X208280Y486410D01*
X208280Y499110D01*
X214630Y505460D01*
D11*
X239903Y533198D02*
X248793Y533198D01*
X248893Y533196D01*
X248992Y533190D01*
X249092Y533180D01*
X249190Y533167D01*
X249289Y533149D01*
X249386Y533128D01*
X249482Y533103D01*
X249578Y533074D01*
X249672Y533041D01*
X249765Y533005D01*
X249856Y532965D01*
X249946Y532921D01*
X250034Y532874D01*
X250120Y532824D01*
X250204Y532770D01*
X250286Y532713D01*
X250365Y532653D01*
X250443Y532589D01*
X250517Y532523D01*
X250589Y532454D01*
X250658Y532382D01*
X250724Y532308D01*
X250788Y532230D01*
X250848Y532151D01*
X250905Y532069D01*
X250959Y531985D01*
X251009Y531899D01*
X251056Y531811D01*
X251100Y531721D01*
X251140Y531630D01*
X251176Y531537D01*
X251209Y531443D01*
X251238Y531347D01*
X251263Y531251D01*
X251284Y531154D01*
X251302Y531055D01*
X251315Y530957D01*
X251325Y530857D01*
X251331Y530758D01*
X251333Y530658D01*
X251333Y529388D01*
X251333Y539179D02*
X239903Y539179D01*
X239903Y542354D01*
X239905Y542465D01*
X239911Y542575D01*
X239920Y542686D01*
X239934Y542796D01*
X239951Y542905D01*
X239972Y543014D01*
X239997Y543122D01*
X240026Y543229D01*
X240058Y543335D01*
X240094Y543440D01*
X240134Y543543D01*
X240177Y543645D01*
X240224Y543746D01*
X240275Y543845D01*
X240328Y543942D01*
X240385Y544036D01*
X240446Y544129D01*
X240509Y544220D01*
X240576Y544309D01*
X240646Y544395D01*
X240719Y544478D01*
X240794Y544560D01*
X240872Y544638D01*
X240954Y544713D01*
X241037Y544786D01*
X241123Y544856D01*
X241212Y544923D01*
X241303Y544986D01*
X241396Y545047D01*
X241491Y545104D01*
X241587Y545157D01*
X241686Y545208D01*
X241787Y545255D01*
X241889Y545298D01*
X241992Y545338D01*
X242097Y545374D01*
X242203Y545406D01*
X242310Y545435D01*
X242418Y545460D01*
X242527Y545481D01*
X242636Y545498D01*
X242746Y545512D01*
X242857Y545521D01*
X242967Y545527D01*
X243078Y545529D01*
X243189Y545527D01*
X243299Y545521D01*
X243410Y545512D01*
X243520Y545498D01*
X243629Y545481D01*
X243738Y545460D01*
X243846Y545435D01*
X243953Y545406D01*
X244059Y545374D01*
X244164Y545338D01*
X244267Y545298D01*
X244369Y545255D01*
X244470Y545208D01*
X244569Y545157D01*
X244666Y545104D01*
X244760Y545047D01*
X244853Y544986D01*
X244944Y544923D01*
X245033Y544856D01*
X245119Y544786D01*
X245202Y544713D01*
X245284Y544638D01*
X245362Y544560D01*
X245437Y544478D01*
X245510Y544395D01*
X245580Y544309D01*
X245647Y544220D01*
X245710Y544129D01*
X245771Y544036D01*
X245828Y543942D01*
X245881Y543845D01*
X245932Y543746D01*
X245979Y543645D01*
X246022Y543543D01*
X246062Y543440D01*
X246098Y543335D01*
X246130Y543229D01*
X246159Y543122D01*
X246184Y543014D01*
X246205Y542905D01*
X246222Y542796D01*
X246236Y542686D01*
X246245Y542575D01*
X246251Y542465D01*
X246253Y542354D01*
X246253Y539179D01*
X239903Y553530D02*
X239905Y553634D01*
X239911Y553739D01*
X239920Y553843D01*
X239933Y553946D01*
X239951Y554049D01*
X239971Y554151D01*
X239996Y554253D01*
X240024Y554353D01*
X240056Y554453D01*
X240092Y554551D01*
X240131Y554648D01*
X240173Y554743D01*
X240219Y554837D01*
X240269Y554929D01*
X240321Y555019D01*
X240377Y555107D01*
X240437Y555193D01*
X240499Y555277D01*
X240564Y555358D01*
X240632Y555437D01*
X240704Y555514D01*
X240777Y555587D01*
X240854Y555659D01*
X240933Y555727D01*
X241014Y555792D01*
X241098Y555854D01*
X241184Y555914D01*
X241272Y555970D01*
X241362Y556022D01*
X241454Y556072D01*
X241548Y556118D01*
X241643Y556160D01*
X241740Y556199D01*
X241838Y556235D01*
X241938Y556267D01*
X242038Y556295D01*
X242140Y556320D01*
X242242Y556340D01*
X242345Y556358D01*
X242448Y556371D01*
X242552Y556380D01*
X242657Y556386D01*
X242761Y556388D01*
X239903Y553530D02*
X239905Y553412D01*
X239911Y553293D01*
X239920Y553175D01*
X239933Y553058D01*
X239951Y552941D01*
X239971Y552824D01*
X239996Y552708D01*
X240024Y552593D01*
X240057Y552480D01*
X240092Y552367D01*
X240132Y552255D01*
X240174Y552145D01*
X240221Y552036D01*
X240271Y551928D01*
X240324Y551823D01*
X240381Y551719D01*
X240441Y551617D01*
X240504Y551517D01*
X240571Y551419D01*
X240640Y551323D01*
X240713Y551230D01*
X240789Y551139D01*
X240867Y551050D01*
X240949Y550964D01*
X241033Y550881D01*
X241119Y550800D01*
X241209Y550723D01*
X241300Y550648D01*
X241394Y550576D01*
X241491Y550507D01*
X241589Y550442D01*
X241690Y550379D01*
X241793Y550320D01*
X241897Y550264D01*
X242003Y550212D01*
X242111Y550163D01*
X242220Y550118D01*
X242331Y550076D01*
X242443Y550038D01*
X244983Y555435D02*
X244908Y555511D01*
X244829Y555586D01*
X244748Y555657D01*
X244664Y555726D01*
X244578Y555791D01*
X244490Y555853D01*
X244400Y555913D01*
X244308Y555969D01*
X244213Y556022D01*
X244117Y556071D01*
X244019Y556117D01*
X243920Y556160D01*
X243819Y556199D01*
X243717Y556234D01*
X243614Y556266D01*
X243510Y556294D01*
X243405Y556319D01*
X243298Y556340D01*
X243192Y556357D01*
X243085Y556370D01*
X242977Y556379D01*
X242869Y556385D01*
X242761Y556387D01*
X244983Y555435D02*
X251333Y550037D01*
X251333Y556387D01*
D10*
X473964Y660400D02*
X480314Y654050D01*
X461264Y660400D02*
X454914Y654050D01*
X448564Y660400D01*
X435864Y660400D02*
X429514Y654050D01*
X480314Y654050D02*
X480314Y615950D01*
X473964Y609600D01*
X461264Y609600D01*
X454914Y615950D01*
X448564Y609600D01*
X435864Y609600D01*
X429514Y615950D01*
X454914Y615950D02*
X454914Y654050D01*
X429514Y654050D02*
X429514Y615950D01*
X435864Y660400D02*
X448564Y660400D01*
X461264Y660400D02*
X473964Y660400D01*
X429514Y654050D02*
X423164Y660400D01*
X410464Y660400D02*
X404114Y654050D01*
X429514Y615950D02*
X423164Y609600D01*
X410464Y609600D01*
X404114Y615950D01*
X404114Y654050D01*
X410464Y660400D02*
X423164Y660400D01*
D11*
X456490Y602615D02*
X456490Y593725D01*
X456488Y593625D01*
X456482Y593526D01*
X456472Y593426D01*
X456459Y593328D01*
X456441Y593229D01*
X456420Y593132D01*
X456395Y593036D01*
X456366Y592940D01*
X456333Y592846D01*
X456297Y592753D01*
X456257Y592662D01*
X456213Y592572D01*
X456166Y592484D01*
X456116Y592398D01*
X456062Y592314D01*
X456005Y592232D01*
X455945Y592153D01*
X455881Y592075D01*
X455815Y592001D01*
X455746Y591929D01*
X455674Y591860D01*
X455600Y591794D01*
X455522Y591730D01*
X455443Y591670D01*
X455361Y591613D01*
X455277Y591559D01*
X455191Y591509D01*
X455103Y591462D01*
X455013Y591418D01*
X454922Y591378D01*
X454829Y591342D01*
X454735Y591309D01*
X454639Y591280D01*
X454543Y591255D01*
X454446Y591234D01*
X454347Y591216D01*
X454249Y591203D01*
X454149Y591193D01*
X454050Y591187D01*
X453950Y591185D01*
X452680Y591185D01*
X462471Y591185D02*
X462471Y602615D01*
X465646Y602615D01*
X465757Y602613D01*
X465867Y602607D01*
X465978Y602598D01*
X466088Y602584D01*
X466197Y602567D01*
X466306Y602546D01*
X466414Y602521D01*
X466521Y602492D01*
X466627Y602460D01*
X466732Y602424D01*
X466835Y602384D01*
X466937Y602341D01*
X467038Y602294D01*
X467137Y602243D01*
X467234Y602190D01*
X467328Y602133D01*
X467421Y602072D01*
X467512Y602009D01*
X467601Y601942D01*
X467687Y601872D01*
X467770Y601799D01*
X467852Y601724D01*
X467930Y601646D01*
X468005Y601564D01*
X468078Y601481D01*
X468148Y601395D01*
X468215Y601306D01*
X468278Y601215D01*
X468339Y601122D01*
X468396Y601027D01*
X468449Y600931D01*
X468500Y600832D01*
X468547Y600731D01*
X468590Y600629D01*
X468630Y600526D01*
X468666Y600421D01*
X468698Y600315D01*
X468727Y600208D01*
X468752Y600100D01*
X468773Y599991D01*
X468790Y599882D01*
X468804Y599772D01*
X468813Y599661D01*
X468819Y599551D01*
X468821Y599440D01*
X468819Y599329D01*
X468813Y599219D01*
X468804Y599108D01*
X468790Y598998D01*
X468773Y598889D01*
X468752Y598780D01*
X468727Y598672D01*
X468698Y598565D01*
X468666Y598459D01*
X468630Y598354D01*
X468590Y598251D01*
X468547Y598149D01*
X468500Y598048D01*
X468449Y597949D01*
X468396Y597853D01*
X468339Y597758D01*
X468278Y597665D01*
X468215Y597574D01*
X468148Y597485D01*
X468078Y597399D01*
X468005Y597316D01*
X467930Y597234D01*
X467852Y597156D01*
X467770Y597081D01*
X467687Y597008D01*
X467601Y596938D01*
X467512Y596871D01*
X467421Y596808D01*
X467328Y596747D01*
X467234Y596690D01*
X467137Y596637D01*
X467038Y596586D01*
X466937Y596539D01*
X466835Y596496D01*
X466732Y596456D01*
X466627Y596420D01*
X466521Y596388D01*
X466414Y596359D01*
X466306Y596334D01*
X466197Y596313D01*
X466088Y596296D01*
X465978Y596282D01*
X465867Y596273D01*
X465757Y596267D01*
X465646Y596265D01*
X462471Y596265D01*
X473329Y591185D02*
X476504Y591185D01*
X476615Y591187D01*
X476725Y591193D01*
X476836Y591202D01*
X476946Y591216D01*
X477055Y591233D01*
X477164Y591254D01*
X477272Y591279D01*
X477379Y591308D01*
X477485Y591340D01*
X477590Y591376D01*
X477693Y591416D01*
X477795Y591459D01*
X477896Y591506D01*
X477995Y591557D01*
X478092Y591610D01*
X478186Y591667D01*
X478279Y591728D01*
X478370Y591791D01*
X478459Y591858D01*
X478545Y591928D01*
X478628Y592001D01*
X478710Y592076D01*
X478788Y592154D01*
X478863Y592236D01*
X478936Y592319D01*
X479006Y592405D01*
X479073Y592494D01*
X479136Y592585D01*
X479197Y592678D01*
X479254Y592773D01*
X479307Y592869D01*
X479358Y592968D01*
X479405Y593069D01*
X479448Y593171D01*
X479488Y593274D01*
X479524Y593379D01*
X479556Y593485D01*
X479585Y593592D01*
X479610Y593700D01*
X479631Y593809D01*
X479648Y593918D01*
X479662Y594028D01*
X479671Y594139D01*
X479677Y594249D01*
X479679Y594360D01*
X479677Y594471D01*
X479671Y594581D01*
X479662Y594692D01*
X479648Y594802D01*
X479631Y594911D01*
X479610Y595020D01*
X479585Y595128D01*
X479556Y595235D01*
X479524Y595341D01*
X479488Y595446D01*
X479448Y595549D01*
X479405Y595651D01*
X479358Y595752D01*
X479307Y595851D01*
X479254Y595947D01*
X479197Y596042D01*
X479136Y596135D01*
X479073Y596226D01*
X479006Y596315D01*
X478936Y596401D01*
X478863Y596484D01*
X478788Y596566D01*
X478710Y596644D01*
X478628Y596719D01*
X478545Y596792D01*
X478459Y596862D01*
X478370Y596929D01*
X478279Y596992D01*
X478186Y597053D01*
X478092Y597110D01*
X477995Y597163D01*
X477896Y597214D01*
X477795Y597261D01*
X477693Y597304D01*
X477590Y597344D01*
X477485Y597380D01*
X477379Y597412D01*
X477272Y597441D01*
X477164Y597466D01*
X477055Y597487D01*
X476946Y597504D01*
X476836Y597518D01*
X476725Y597527D01*
X476615Y597533D01*
X476504Y597535D01*
X477139Y602615D02*
X473329Y602615D01*
X477139Y602615D02*
X477239Y602613D01*
X477338Y602607D01*
X477438Y602597D01*
X477536Y602584D01*
X477635Y602566D01*
X477732Y602545D01*
X477828Y602520D01*
X477924Y602491D01*
X478018Y602458D01*
X478111Y602422D01*
X478202Y602382D01*
X478292Y602338D01*
X478380Y602291D01*
X478466Y602241D01*
X478550Y602187D01*
X478632Y602130D01*
X478711Y602070D01*
X478789Y602006D01*
X478863Y601940D01*
X478935Y601871D01*
X479004Y601799D01*
X479070Y601725D01*
X479134Y601647D01*
X479194Y601568D01*
X479251Y601486D01*
X479305Y601402D01*
X479355Y601316D01*
X479402Y601228D01*
X479446Y601138D01*
X479486Y601047D01*
X479522Y600954D01*
X479555Y600860D01*
X479584Y600764D01*
X479609Y600668D01*
X479630Y600571D01*
X479648Y600472D01*
X479661Y600374D01*
X479671Y600274D01*
X479677Y600175D01*
X479679Y600075D01*
X479677Y599975D01*
X479671Y599876D01*
X479661Y599776D01*
X479648Y599678D01*
X479630Y599579D01*
X479609Y599482D01*
X479584Y599386D01*
X479555Y599290D01*
X479522Y599196D01*
X479486Y599103D01*
X479446Y599012D01*
X479402Y598922D01*
X479355Y598834D01*
X479305Y598748D01*
X479251Y598664D01*
X479194Y598582D01*
X479134Y598503D01*
X479070Y598425D01*
X479004Y598351D01*
X478935Y598279D01*
X478863Y598210D01*
X478789Y598144D01*
X478711Y598080D01*
X478632Y598020D01*
X478550Y597963D01*
X478466Y597909D01*
X478380Y597859D01*
X478292Y597812D01*
X478202Y597768D01*
X478111Y597728D01*
X478018Y597692D01*
X477924Y597659D01*
X477828Y597630D01*
X477732Y597605D01*
X477635Y597584D01*
X477536Y597566D01*
X477438Y597553D01*
X477338Y597543D01*
X477239Y597537D01*
X477139Y597535D01*
X474599Y597535D01*
D10*
X365252Y651764D02*
X352552Y651764D01*
X365252Y651764D02*
X371602Y645414D01*
X371602Y632714D01*
X365252Y626364D01*
X346202Y632714D02*
X346202Y645414D01*
X352552Y651764D01*
X346202Y632714D02*
X352552Y626364D01*
X365252Y626364D01*
X371602Y645414D02*
X377952Y651764D01*
X390652Y651764D01*
X397002Y645414D01*
X397002Y632714D01*
X390652Y626364D01*
X377952Y626364D01*
X371602Y632714D01*
D11*
X349885Y660527D02*
X349885Y669417D01*
X349885Y660527D02*
X349883Y660427D01*
X349877Y660328D01*
X349867Y660228D01*
X349854Y660130D01*
X349836Y660031D01*
X349815Y659934D01*
X349790Y659838D01*
X349761Y659742D01*
X349728Y659648D01*
X349692Y659555D01*
X349652Y659464D01*
X349608Y659374D01*
X349561Y659286D01*
X349511Y659200D01*
X349457Y659116D01*
X349400Y659034D01*
X349340Y658955D01*
X349276Y658877D01*
X349210Y658803D01*
X349141Y658731D01*
X349069Y658662D01*
X348995Y658596D01*
X348917Y658532D01*
X348838Y658472D01*
X348756Y658415D01*
X348672Y658361D01*
X348586Y658311D01*
X348498Y658264D01*
X348408Y658220D01*
X348317Y658180D01*
X348224Y658144D01*
X348130Y658111D01*
X348034Y658082D01*
X347938Y658057D01*
X347841Y658036D01*
X347742Y658018D01*
X347644Y658005D01*
X347544Y657995D01*
X347445Y657989D01*
X347345Y657987D01*
X346075Y657987D01*
X355865Y657987D02*
X355865Y669417D01*
X359040Y669417D01*
X359151Y669415D01*
X359261Y669409D01*
X359372Y669400D01*
X359482Y669386D01*
X359591Y669369D01*
X359700Y669348D01*
X359808Y669323D01*
X359915Y669294D01*
X360021Y669262D01*
X360126Y669226D01*
X360229Y669186D01*
X360331Y669143D01*
X360432Y669096D01*
X360531Y669045D01*
X360628Y668992D01*
X360722Y668935D01*
X360815Y668874D01*
X360906Y668811D01*
X360995Y668744D01*
X361081Y668674D01*
X361164Y668601D01*
X361246Y668526D01*
X361324Y668448D01*
X361399Y668366D01*
X361472Y668283D01*
X361542Y668197D01*
X361609Y668108D01*
X361672Y668017D01*
X361733Y667924D01*
X361790Y667829D01*
X361843Y667733D01*
X361894Y667634D01*
X361941Y667533D01*
X361984Y667431D01*
X362024Y667328D01*
X362060Y667223D01*
X362092Y667117D01*
X362121Y667010D01*
X362146Y666902D01*
X362167Y666793D01*
X362184Y666684D01*
X362198Y666574D01*
X362207Y666463D01*
X362213Y666353D01*
X362215Y666242D01*
X362213Y666131D01*
X362207Y666021D01*
X362198Y665910D01*
X362184Y665800D01*
X362167Y665691D01*
X362146Y665582D01*
X362121Y665474D01*
X362092Y665367D01*
X362060Y665261D01*
X362024Y665156D01*
X361984Y665053D01*
X361941Y664951D01*
X361894Y664850D01*
X361843Y664751D01*
X361790Y664655D01*
X361733Y664560D01*
X361672Y664467D01*
X361609Y664376D01*
X361542Y664287D01*
X361472Y664201D01*
X361399Y664118D01*
X361324Y664036D01*
X361246Y663958D01*
X361164Y663883D01*
X361081Y663810D01*
X360995Y663740D01*
X360906Y663673D01*
X360815Y663610D01*
X360722Y663549D01*
X360628Y663492D01*
X360531Y663439D01*
X360432Y663388D01*
X360331Y663341D01*
X360229Y663298D01*
X360126Y663258D01*
X360021Y663222D01*
X359915Y663190D01*
X359808Y663161D01*
X359700Y663136D01*
X359591Y663115D01*
X359482Y663098D01*
X359372Y663084D01*
X359261Y663075D01*
X359151Y663069D01*
X359040Y663067D01*
X355865Y663067D01*
X366724Y660527D02*
X369264Y669417D01*
X366724Y660527D02*
X373074Y660527D01*
X371169Y663067D02*
X371169Y657987D01*
M02*
